<svg width="30" height="30" viewBox="0 0 30 30" fill="none" xmlns="http://www.w3.org/2000/svg">
<path d="M15 29.1663C7.17573 29.1663 0.833313 22.8239 0.833313 14.9997C0.833313 7.17543 7.17573 0.833008 15 0.833008C22.8242 0.833008 29.1666 7.17543 29.1666 14.9997C29.1666 22.8239 22.8242 29.1663 15 29.1663ZM15 26.333C18.0058 26.333 20.8884 25.139 23.0139 23.0136C25.1393 20.8881 26.3333 18.0055 26.3333 14.9997C26.3333 11.9939 25.1393 9.11121 23.0139 6.9858C20.8884 4.86039 18.0058 3.66634 15 3.66634C11.9942 3.66634 9.11152 4.86039 6.9861 6.9858C4.86069 9.11121 3.66665 11.9939 3.66665 14.9997C3.66665 18.0055 4.86069 20.8881 6.9861 23.0136C9.11152 25.139 11.9942 26.333 15 26.333ZM16.4166 14.9997H22.0833V17.833H13.5833V7.91634H16.4166V14.9997Z" fill="#0C0404"/>
</svg>
