<svg width="24" height="24" viewBox="0 0 24 24" fill="none" xmlns="http://www.w3.org/2000/svg">
<path d="M16 1C16.2652 1 16.5196 1.10536 16.7071 1.29289C16.8946 1.48043 17 1.73478 17 2V2.999L22 3V9L19.98 8.999L22.747 16.595C22.9346 17.1029 23.0171 17.6436 22.9895 18.1843C22.9619 18.725 22.8249 19.2545 22.5867 19.7407C22.3484 20.2269 22.014 20.6596 21.6036 21.0128C21.1932 21.3659 20.7153 21.632 20.1991 21.795C19.6828 21.9581 19.1388 22.0146 18.6 21.9611C18.0612 21.9077 17.5389 21.7455 17.0647 21.4842C16.5904 21.223 16.1742 20.8682 15.8411 20.4414C15.5081 20.0145 15.2651 19.5245 15.127 19.001H10.874C10.6465 19.8786 10.1278 20.653 9.40275 21.1973C8.67771 21.7416 7.78933 22.0237 6.88309 21.9972C5.97685 21.9707 5.10646 21.6373 4.41445 21.0515C3.72244 20.4658 3.24983 19.6624 3.074 18.773C2.74987 18.6041 2.47832 18.3494 2.28894 18.0368C2.09956 17.7241 1.99962 17.3655 2 17V12H11C11 12.2449 11.09 12.4813 11.2527 12.6644C11.4155 12.8474 11.6398 12.9643 11.883 12.993L12 13H14C14.2449 13 14.4813 12.91 14.6644 12.7473C14.8474 12.5845 14.9643 12.3603 14.993 12.117L15 12V3H12V1H16ZM7 16C6.46957 16 5.96086 16.2107 5.58579 16.5858C5.21071 16.9609 5 17.4696 5 18C5 18.5304 5.21071 19.0391 5.58579 19.4142C5.96086 19.7893 6.46957 20 7 20C7.53043 20 8.03914 19.7893 8.41421 19.4142C8.78929 19.0391 9 18.5304 9 18C9 17.4696 8.78929 16.9609 8.41421 16.5858C8.03914 16.2107 7.53043 16 7 16ZM19 16C18.4696 16 17.9609 16.2107 17.5858 16.5858C17.2107 16.9609 17 17.4696 17 18C17 18.5304 17.2107 19.0391 17.5858 19.4142C17.9609 19.7893 18.4696 20 19 20C19.5304 20 20.0391 19.7893 20.4142 19.4142C20.7893 19.0391 21 18.5304 21 18C21 17.4696 20.7893 16.9609 20.4142 16.5858C20.0391 16.2107 19.5304 16 19 16ZM10 3C10.2652 3 10.5196 3.10536 10.7071 3.29289C10.8946 3.48043 11 3.73478 11 4V11H2V4C2 3.73478 2.10536 3.48043 2.29289 3.29289C2.48043 3.10536 2.73478 3 3 3H10ZM20 5H17V7H20V5ZM9 5H4V6H9V5Z" fill="#F37413"/>
</svg>
