<svg width="315" height="260" viewBox="0 0 315 260" fill="none" xmlns="http://www.w3.org/2000/svg">
<g clip-path="url(#clip0_331_2543)">
<mask id="mask0_331_2543" style="mask-type:luminance" maskUnits="userSpaceOnUse" x="0" y="0" width="315" height="260">
<path d="M315 0H0V260H315V0Z" fill="white"/>
</mask>
<g mask="url(#mask0_331_2543)">
<path d="M0 20.8848C54.819 35.5578 194.566 56.0998 315 20.8848" stroke="#666666" stroke-width="1.75" stroke-linejoin="round"/>
<path d="M38.207 76.7563L37.256 28.2313L79.415 27.4043L80.366 75.9313L76.602 80.5703L73.14 76.0713L69.375 80.7133L65.43 76.2243L62.388 80.8493L59.407 76.3413L56.365 80.9673L51.698 76.4933L48.896 81.1143L45.193 76.6213L41.91 81.2523L38.207 76.7563Z" fill="#FFCF6F"/>
<path d="M38.207 76.7563L37.256 28.2313L79.415 27.4043L80.366 75.9313L76.602 80.5703L73.14 76.0713L69.375 80.7133L65.43 76.2243L62.388 80.8493L59.407 76.3413L56.365 80.9673L51.698 76.4933L48.896 81.1143L45.193 76.6213L41.91 81.2523L38.207 76.7563Z" stroke="#FFCF6F" stroke-width="1.75"/>
<path d="M42.659 38.2786L73.107 37.6826" stroke="#F37413" stroke-width="1.75"/>
<path d="M42.166 48.433L55.698 48.167" stroke="#F37413" stroke-width="1.75"/>
<path d="M60.768 48.433L74.3 48.167" stroke="#F37413" stroke-width="1.75"/>
<path d="M43.406 58.7019L74.636 58.0879" stroke="#F37413" stroke-width="1.75"/>
<path d="M43.405 67.2085L65.787 66.7705" stroke="#F37413" stroke-width="1.75"/>
<path d="M58.818 29.6328C60.161 29.6328 61.249 30.7208 61.249 32.0628C61.249 33.4058 60.161 34.4948 58.818 34.4948C57.476 34.4948 56.389 33.4058 56.389 32.0628C56.389 30.7208 57.476 29.6328 58.818 29.6328Z" fill="#FFCF6F"/>
<path d="M93.519 90.7615L100.499 29.8955L153.38 35.9605L146.401 96.8255L140.909 101.998L137.334 95.7865L131.843 100.957L127.665 94.6785L123.081 99.9525L120.111 93.8115L115.526 99.0855L110.441 92.7025L106.159 98.0115L102.282 91.7655L97.396 97.0075L93.519 90.7615Z" fill="#FFCF6F"/>
<path d="M93.519 90.7615L100.499 29.8955L153.38 35.9605L146.401 96.8255L140.909 101.998L137.334 95.7865L131.843 100.957L127.665 94.6785L123.081 99.9525L120.111 93.8115L115.526 99.0855L110.441 92.7025L106.159 98.0115L102.282 91.7655L97.396 97.0075L93.519 90.7615Z" stroke="#FFCF6F" stroke-width="1.75"/>
<path d="M111.256 40.5938L139.284 43.8098" stroke="#F37413" stroke-width="1.75"/>
<path d="M110.374 49.4072L122.832 50.8372" stroke="#F37413" stroke-width="1.75"/>
<path d="M126.496 51.8887L138.954 53.3187" stroke="#F37413" stroke-width="1.75"/>
<path d="M109.133 58.0898L137.88 61.3858" stroke="#F37413" stroke-width="1.75"/>
<path d="M107.894 68.0107L136.64 71.3067" stroke="#F37413" stroke-width="1.75"/>
<path d="M107.894 76.6914L128.495 79.0534" stroke="#F37413" stroke-width="1.75"/>
<path d="M126.876 35.4678C128.219 35.4678 129.307 36.5568 129.307 37.8998C129.307 39.2418 128.219 40.3298 126.876 40.3298C125.533 40.3298 124.445 39.2418 124.445 37.8998C124.445 36.5568 125.533 35.4678 126.876 35.4678Z" fill="#FFCF6F"/>
<path d="M119.279 219.425V132.592H194.721V219.425L187.824 227.592L181.788 219.425L174.891 227.592L167.993 219.425L162.389 227.592L157.217 219.425L151.611 227.592L143.421 219.425L138.249 227.592L131.781 219.425L125.746 227.592L119.279 219.425Z" fill="#FFCF6F"/>
<path d="M119.279 219.425V132.592H194.721V219.425L187.824 227.592L181.788 219.425L174.891 227.592L167.993 219.425L162.389 227.592L157.217 219.425L151.611 227.592L143.421 219.425L138.249 227.592L131.781 219.425L125.746 227.592L119.279 219.425Z" stroke="#FFCF6F" stroke-width="1.75"/>
<path d="M128.594 150.754H183.079" stroke="#F37413" stroke-width="1.75"/>
<path d="M128.594 159.603H152.809" stroke="#F37413" stroke-width="1.75"/>
<path d="M159.329 160.534H183.545" stroke="#F37413" stroke-width="1.75"/>
<path d="M128.594 169.848H184.476" stroke="#F37413" stroke-width="1.75"/>
<path d="M128.594 181.022H184.476" stroke="#F37413" stroke-width="1.75"/>
<path d="M128.279 192.592H168.329" stroke="#F37413" stroke-width="1.75"/>
<path d="M240.942 69.2615L242.427 26.7393L279.371 28.0294L277.886 70.5516L274.369 74.4331L271.552 70.3305L268.035 74.2119L264.797 70.0946L261.913 73.9981L259.52 69.9103L256.635 73.8138L252.764 69.6744L250.092 73.5853L247.064 69.4753L243.969 73.3715L240.942 69.2615Z" fill="#FFCF6F"/>
<path d="M240.942 69.2615L242.427 26.7393L279.371 28.0294L277.886 70.5516L274.369 74.4331L271.552 70.3305L268.035 74.2119L264.797 70.0946L261.913 73.9981L259.52 69.9103L256.635 73.8138L252.764 69.6744L250.092 73.5853L247.064 69.4753L243.969 73.3715L240.942 69.2615Z" stroke="#FFCF6F" stroke-width="1.75"/>
<path d="M246.678 35.793L273.359 36.7247" stroke="#F37413" stroke-width="1.75"/>
<path d="M246.526 40.126L258.384 40.5401" stroke="#F37413" stroke-width="1.75"/>
<path d="M261.561 41.1074L273.42 41.5215" stroke="#F37413" stroke-width="1.75"/>
<path d="M246.351 45.1426L273.717 46.0982" stroke="#F37413" stroke-width="1.75"/>
<path d="M246.16 50.6152L273.525 51.5709" stroke="#F37413" stroke-width="1.75"/>
<path d="M245.808 56.2754L265.42 56.9603" stroke="#F37413" stroke-width="1.75"/>
<path d="M261.75 29.7041C262.799 29.7407 263.62 30.6219 263.584 31.6707C263.547 32.7195 262.666 33.5413 261.617 33.5047C260.568 33.4681 259.746 32.5868 259.783 31.538C259.82 30.4892 260.701 29.6674 261.75 29.7041Z" fill="#FFCF6F"/>
<path d="M178.179 210.32C181.695 210.32 184.543 207.471 184.543 203.956C184.543 200.442 181.695 197.592 178.179 197.592C174.665 197.592 171.815 200.442 171.815 203.956C171.815 207.471 174.665 210.32 178.179 210.32Z" fill="#FF0055"/>
<path d="M181.186 202.588C181.419 202.356 181.419 201.978 181.186 201.744C180.954 201.511 180.577 201.511 180.343 201.744L177.185 204.902L176.016 203.734C175.784 203.5 175.406 203.5 175.172 203.734C174.939 203.966 174.939 204.344 175.172 204.577L176.763 206.168C176.997 206.401 177.374 206.401 177.607 206.168L181.186 202.588Z" fill="white"/>
<path d="M201.512 169.451L205.315 176.866L265.995 227.114L270.531 221.637L209.851 171.387L201.512 169.451Z" fill="#F37413"/>
<path d="M201.512 169.451L205.315 176.866L265.995 227.114L270.531 221.637L209.851 171.387L201.512 169.451Z" stroke="#F37413" stroke-width="1.75" stroke-linejoin="round"/>
<path d="M262.793 224.462L266.981 219.406" stroke="#F37413" stroke-width="1.75"/>
<path d="M205.995 176.985L210.231 171.87" stroke="#F37413" stroke-width="1.75"/>
</g>
</g>
<defs>
<clipPath id="clip0_331_2543">
<rect width="315" height="260" fill="white"/>
</clipPath>
</defs>
</svg>
