<svg width="294" height="294" viewBox="0 0 294 294" fill="none" xmlns="http://www.w3.org/2000/svg">
<mask id="mask0_331_3827" style="mask-type:luminance" maskUnits="userSpaceOnUse" x="0" y="0" width="294" height="294">
<path d="M294 0H0V294H294V0Z" fill="white"/>
</mask>
<g mask="url(#mask0_331_3827)">
<mask id="mask1_331_3827" style="mask-type:luminance" maskUnits="userSpaceOnUse" x="-21" y="35" width="336" height="224">
<path d="M-20.58 35.2803H314.58V258.72H-20.58V35.2803Z" fill="white"/>
</mask>
<g mask="url(#mask1_331_3827)">
<g opacity="0.39">
<path d="M285.44 123.278C283.238 87.7163 260.898 59.2584 223.664 57.8726C212.655 57.4628 201.832 59.5753 191.548 63.4402C178.224 68.4475 166.689 77.3518 153.016 81.5394C133.952 87.3781 114.522 85.409 94.8947 85.8794C81.5124 86.2 67.9299 87.6957 55.6018 92.9125C4.07647 114.716 10.3054 181.708 26.9905 224.523C27.7993 226.599 28.6446 228.663 29.5185 230.717H258.255C276.206 197.793 287.64 158.829 285.44 123.278Z" fill="white"/>
</g>
<mask id="mask2_331_3827" style="mask-type:luminance" maskUnits="userSpaceOnUse" x="-21" y="35" width="336" height="224">
<path d="M-20.5801 35.2803H314.58V258.72H-20.5801V35.2803Z" fill="white"/>
</mask>
<g mask="url(#mask2_331_3827)">
<path d="M182.197 230.775H153.164V175.357H182.197V230.775Z" fill="white"/>
<path d="M234.014 230.714H203.61V144.596H234.014V230.714Z" fill="white"/>
<mask id="mask3_331_3827" style="mask-type:luminance" maskUnits="userSpaceOnUse" x="-127" y="112" width="293" height="138">
<path d="M153.512 112.581L34.9924 161.451L22.7673 172.919L-13.8768 196.157L-88.0589 213.585L-126.044 226.098L-108.169 249.782L33.0456 218.948L165.689 136.601L153.512 112.581Z" fill="white"/>
</mask>
<g mask="url(#mask3_331_3827)">
<path d="M59.9015 166.441L59.8145 161.074C67.7566 160.942 89.4328 158.89 114.623 152.073C133.084 147.078 150.777 140.334 167.21 132.029C187.721 121.664 206.319 108.823 222.487 93.8623L226.133 97.8017C209.572 113.125 190.53 126.27 169.534 136.869C152.753 145.34 134.695 152.214 115.859 157.299C83.7677 165.964 60.8609 166.426 59.9015 166.441Z" fill="white"/>
</g>
</g>
<mask id="mask4_331_3827" style="mask-type:luminance" maskUnits="userSpaceOnUse" x="-21" y="35" width="336" height="224">
<path d="M-20.5803 35.2803H314.58V258.721H-20.5803V35.2803Z" fill="white"/>
</mask>
<g mask="url(#mask4_331_3827)">
<path d="M192.506 108.687L186.329 104.886C186.279 104.636 186.221 104.387 186.149 104.138C184.695 99.0705 179.409 96.1413 174.341 97.5954C169.715 98.923 166.873 103.445 167.519 108.079L163.086 113.5C163.018 113.583 163.099 113.704 163.202 113.672L168.925 111.903C171.138 115.377 175.446 117.14 179.607 115.946C182.951 114.987 185.363 112.357 186.199 109.224L192.438 108.948C192.577 108.942 192.625 108.76 192.506 108.687Z" fill="white"/>
<path d="M176.965 116.487C175.782 116.487 174.605 116.267 173.475 115.829C171.592 115.1 169.955 113.778 168.853 112.098L163.251 113.83C163.134 113.867 163.009 113.822 162.941 113.721C162.873 113.619 162.879 113.487 162.956 113.392L167.343 108.027C167.044 105.755 167.564 103.442 168.812 101.505C170.085 99.5279 172.032 98.0817 174.295 97.4325C179.443 95.9553 184.833 98.9416 186.311 104.09C186.371 104.3 186.426 104.526 186.479 104.779L192.594 108.542C192.71 108.614 192.765 108.751 192.731 108.883C192.697 109.015 192.582 109.107 192.446 109.114L186.329 109.384C185.423 112.612 182.875 115.181 179.653 116.105C178.767 116.36 177.864 116.487 176.965 116.487ZM168.998 111.703L169.066 111.811C171.281 115.287 175.596 116.921 179.561 115.783C182.757 114.866 185.178 112.397 186.037 109.179L186.069 109.06L192.345 108.782L186.179 104.988L186.165 104.917C186.11 104.644 186.052 104.404 185.989 104.182C184.562 99.2117 179.358 96.3285 174.387 97.7546C169.926 99.0348 167.045 103.462 167.685 108.053L167.695 108.126L163.34 113.452L168.998 111.703Z" fill="#5253CF"/>
<path d="M179.572 106.148C179.572 104.663 178.285 103.479 176.765 103.65C175.657 103.776 174.738 104.66 174.573 105.763C174.473 106.435 174.641 107.064 174.984 107.563C175.117 107.758 175.186 107.989 175.186 108.225V109.778H178.93V108.225C178.93 107.992 178.995 107.762 179.128 107.57C179.407 107.165 179.572 106.676 179.572 106.148Z" fill="white"/>
<path d="M179.098 109.946H175.018V108.225C175.018 108.019 174.958 107.823 174.845 107.658C174.462 107.099 174.306 106.417 174.407 105.739C174.582 104.566 175.566 103.617 176.747 103.484C177.511 103.398 178.275 103.639 178.844 104.147C179.413 104.656 179.739 105.385 179.739 106.148C179.739 106.692 179.576 107.217 179.266 107.665C179.156 107.824 179.098 108.018 179.098 108.225V109.946ZM175.353 109.611H178.763V108.225C178.763 107.949 178.841 107.69 178.99 107.475C179.261 107.082 179.404 106.623 179.404 106.148C179.404 105.48 179.118 104.842 178.62 104.397C178.116 103.946 177.463 103.74 176.784 103.817C175.752 103.934 174.892 104.763 174.739 105.788C174.65 106.382 174.786 106.979 175.122 107.468C175.273 107.689 175.353 107.951 175.353 108.225V109.611Z" fill="#5253CF"/>
<path d="M178.93 112.223H175.186V110.843H178.93V112.223Z" fill="white"/>
<path d="M179.098 112.392H175.018V110.676H179.098V112.392ZM175.353 112.056H178.763V111.011H175.353V112.056Z" fill="#5253CF"/>
<path d="M176.164 105.086C176.164 105.086 175.438 105.561 175.801 106.455L176.164 105.086Z" fill="white"/>
<path d="M175.646 106.517C175.318 105.709 175.781 105.136 176.072 104.945L176.256 105.226L176.164 105.086L176.257 105.225C176.232 105.242 175.652 105.641 175.956 106.391L175.646 106.517Z" fill="#5253CF"/>
<g style="mix-blend-mode:multiply">
<path d="M177.067 102.465V98.918" stroke="#7779DA" stroke-width="0.5586"/>
</g>
<g style="mix-blend-mode:multiply">
<path d="M173.974 103.855L171.217 101.623" stroke="#7779DA" stroke-width="0.5586"/>
</g>
<g style="mix-blend-mode:multiply">
<path d="M180.01 103.636L182.805 101.452" stroke="#7779DA" stroke-width="0.5586"/>
</g>
</g>
<mask id="mask5_331_3827" style="mask-type:luminance" maskUnits="userSpaceOnUse" x="-31" y="28" width="356" height="238">
<path d="M-30.6349 28.5771H324.635V265.424H-30.6349V28.5771Z" fill="white"/>
</mask>
<g mask="url(#mask5_331_3827)">
<g opacity="0.76">
<path d="M267.747 119.6C266.363 115.299 262.325 112.186 257.566 112.186C257.53 112.186 257.493 112.186 257.458 112.189C251.598 112.245 246.87 117.014 246.87 122.885C246.87 128.793 251.657 133.581 257.566 133.581C263.474 133.581 268.265 128.793 268.265 122.885C268.265 121.738 268.086 120.636 267.747 119.6ZM257.566 129.69C253.81 129.69 250.761 126.64 250.761 122.885C250.761 119.194 253.699 116.192 257.358 116.084C257.426 116.08 257.498 116.08 257.566 116.08C260.583 116.08 263.142 118.042 264.028 120.764C264.251 121.43 264.37 122.144 264.37 122.885C264.37 126.64 261.324 129.69 257.566 129.69Z" fill="white"/>
</g>
<path d="M256.754 133.547L257.084 129.664C259.939 129.875 262.723 128.249 263.865 125.455C263.891 125.392 263.918 125.326 263.94 125.262C265.191 125.804 266.443 126.354 267.507 126.828C267.497 126.863 267.484 126.896 267.47 126.929C265.669 131.335 261.259 133.895 256.754 133.547Z" fill="#CACAFF"/>
</g>
<mask id="mask6_331_3827" style="mask-type:luminance" maskUnits="userSpaceOnUse" x="8" y="53" width="262" height="175">
<path d="M8.12732 53.0752H269.553V227.359H8.12732V53.0752Z" fill="white"/>
</mask>
<g mask="url(#mask6_331_3827)">
<path d="M110.83 111.418C107.626 111.418 105.029 114.015 105.029 117.218C105.029 117.86 105.137 118.475 105.33 119.052L102.804 122.121C102.763 122.17 102.816 122.241 102.875 122.217L106.27 120.796C107.332 122.147 108.977 123.019 110.83 123.019C114.033 123.019 116.63 120.422 116.63 117.218C116.63 114.015 114.033 111.418 110.83 111.418Z" fill="white"/>
<path d="M110.829 123.15C109.034 123.15 107.363 122.352 106.229 120.955L102.925 122.338C102.843 122.372 102.749 122.346 102.697 122.275C102.644 122.204 102.646 122.107 102.702 122.039L105.183 119.026C104.994 118.435 104.898 117.828 104.898 117.219C104.898 113.949 107.559 111.288 110.829 111.288C114.1 111.288 116.76 113.949 116.76 117.219C116.76 120.49 114.1 123.15 110.829 123.15ZM106.311 120.637L106.372 120.716C107.457 122.097 109.082 122.889 110.829 122.889C113.956 122.889 116.499 120.346 116.499 117.219C116.499 114.093 113.956 111.55 110.829 111.55C107.703 111.55 105.16 114.093 105.16 117.219C105.16 117.824 105.259 118.427 105.454 119.012L105.477 119.08L103.082 121.989L106.311 120.637Z" fill="#5253CF"/>
</g>
<mask id="mask7_331_3827" style="mask-type:luminance" maskUnits="userSpaceOnUse" x="-21" y="35" width="336" height="224">
<path d="M-20.5801 35.2803H314.58V258.72H-20.5801V35.2803Z" fill="white"/>
</mask>
<g mask="url(#mask7_331_3827)">
<path d="M271.063 230.939H15.7871V230.492H271.063V230.939Z" fill="#1B1B43"/>
</g>
<mask id="mask8_331_3827" style="mask-type:luminance" maskUnits="userSpaceOnUse" x="-362" y="16" width="487" height="325">
<path d="M-361.804 16.9326H124.148V340.901H-361.804V16.9326Z" fill="white"/>
</mask>
<g mask="url(#mask8_331_3827)">
<path d="M49.0375 205.861C49.0375 209.92 45.7465 213.211 41.6867 213.211C37.627 213.211 34.3358 209.92 34.3358 205.861C34.3358 201.801 37.627 198.51 41.6867 198.51C45.7465 198.51 49.0375 201.801 49.0375 205.861Z" fill="#CACAFF"/>
<path d="M37.1873 207.652L38.1636 207.109C37.811 206.402 37.624 205.631 37.6327 205.114L39.0078 204.753C39.012 205.316 39.1338 206.043 39.5057 206.712C39.8319 207.298 40.2811 207.573 40.6923 207.344C41.0835 207.127 41.1475 206.66 40.9812 205.756C40.7387 204.449 40.835 203.413 41.8325 202.857C42.7378 202.354 43.8021 202.597 44.6306 203.577L45.6078 203.033L46.1686 204.041L45.2633 204.545C45.616 205.251 45.7297 205.794 45.7543 206.225L44.4259 206.574C44.39 206.243 44.3639 205.638 43.9519 204.898C43.5798 204.229 43.1715 204.173 42.8833 204.334C42.5442 204.522 42.5283 205.003 42.6857 206.06C42.9347 207.525 42.6442 208.333 41.718 208.848C40.8026 209.358 39.6607 209.144 38.7966 208.076L37.7482 208.66L37.1873 207.652Z" fill="white"/>
</g>
<mask id="mask9_331_3827" style="mask-type:luminance" maskUnits="userSpaceOnUse" x="-151" y="105" width="219" height="147">
<path d="M-150.802 105.931H67.0533V251.168H-150.802V105.931Z" fill="white"/>
</mask>
<g mask="url(#mask9_331_3827)">
<path d="M33.3807 190.629C33.3807 192.449 31.9053 193.925 30.0853 193.925C28.2653 193.925 26.7899 192.449 26.7899 190.629C26.7899 188.809 28.2653 187.334 30.0853 187.334C31.9053 187.334 33.3807 188.809 33.3807 190.629Z" fill="#CACAFF"/>
<path d="M28.9094 188.805L29.2327 189.187C29.513 188.971 29.8364 188.822 30.0643 188.782L30.342 189.356C30.0946 189.406 29.7851 189.522 29.5232 189.744C29.2935 189.938 29.2111 190.159 29.3473 190.32C29.4768 190.474 29.6876 190.461 30.0709 190.31C30.6249 190.091 31.0893 190.044 31.4196 190.435C31.7194 190.789 31.7043 191.279 31.3447 191.728L31.6682 192.111L31.2733 192.444L30.9735 192.089C30.6931 192.306 30.464 192.402 30.2766 192.45L30.0086 191.896C30.1509 191.852 30.4148 191.788 30.7049 191.543C30.967 191.322 30.9563 191.137 30.8609 191.024C30.7486 190.891 30.5359 190.926 30.0842 191.086C29.4616 191.322 29.0809 191.264 28.7742 190.901C28.4711 190.543 28.4665 190.022 28.8616 189.549L28.5145 189.139L28.9094 188.805Z" fill="white"/>
</g>
<mask id="mask10_331_3827" style="mask-type:luminance" maskUnits="userSpaceOnUse" x="-171" y="78" width="262" height="175">
<path d="M-170.495 78.2168H90.93V252.5H-170.495V78.2168Z" fill="white"/>
</mask>
<g mask="url(#mask10_331_3827)">
<path d="M50.5231 179.855C50.5231 182.039 48.7527 183.809 46.5686 183.809C44.3847 183.809 42.6141 182.039 42.6141 179.855C42.6141 177.671 44.3847 175.9 46.5686 175.9C48.7527 175.9 50.5231 177.671 50.5231 179.855Z" fill="#CACAFF"/>
<path d="M47.2676 177.345L47.1823 177.94C47.5996 178.019 47.991 178.191 48.2093 178.362L47.9161 179.069C47.6737 178.887 47.3225 178.703 46.9152 178.644C46.558 178.593 46.2938 178.696 46.2579 178.946C46.2237 179.185 46.4026 179.364 46.8438 179.587C47.4824 179.909 47.8949 180.288 47.8077 180.896C47.7286 181.447 47.2779 181.824 46.5885 181.859L46.503 182.455L45.8889 182.367L45.968 181.815C45.5505 181.736 45.281 181.608 45.0886 181.478L45.3719 180.796C45.5252 180.888 45.7926 181.074 46.2438 181.139C46.6513 181.197 46.8082 181.04 46.8334 180.865C46.8631 180.658 46.6626 180.495 46.1585 180.218C45.4504 179.848 45.1989 179.46 45.2799 178.895C45.3599 178.338 45.8232 177.918 46.5618 177.896L46.6535 177.257L47.2676 177.345Z" fill="white"/>
</g>
<mask id="mask11_331_3827" style="mask-type:luminance" maskUnits="userSpaceOnUse" x="-21" y="35" width="336" height="224">
<path d="M-20.5801 35.2803H314.58V258.72H-20.5801V35.2803Z" fill="white"/>
</mask>
<g mask="url(#mask11_331_3827)">
<path d="M211.085 219.028L210.723 225.14L207.308 225.197L207.386 218.997L211.085 219.028Z" fill="#FFAF9F"/>
<path d="M198.973 230.731L211.887 230.514C211.98 230.338 212.028 230.09 212.044 229.794C212.107 228.701 211.729 226.963 211.54 225.867C211.517 225.739 211.498 225.619 211.482 225.511C211.455 225.328 211.438 225.175 211.436 225.063C211.421 224.166 210.63 224.333 210.63 224.333C209.344 225.636 207.833 223.739 206.979 224.384C206.979 224.384 206.611 224.657 205.602 225.597C204.592 226.536 202.858 227.174 201.385 227.82C199.482 228.653 198.952 229.462 198.855 230.015C198.778 230.453 198.973 230.731 198.973 230.731Z" fill="#F7931F"/>
<path d="M198.973 230.73L211.886 230.514C211.98 230.338 212.028 230.09 212.044 229.794L198.855 230.015C198.778 230.453 198.973 230.73 198.973 230.73Z" fill="#F37413"/>
<path d="M210.569 230.536L210.953 230.53C210.563 230.099 210.193 229.434 210.224 228.474C210.265 227.196 211.016 226.324 211.54 225.866C211.517 225.739 211.498 225.619 211.482 225.511C210.916 225.958 209.966 226.934 209.916 228.463C209.887 229.38 210.199 230.059 210.569 230.536Z" fill="#F37413"/>
<path d="M205.833 226.355C205.929 226.353 206.015 226.287 206.037 226.19C206.063 226.075 205.992 225.961 205.877 225.934L205.068 225.748C204.953 225.721 204.839 225.793 204.812 225.907C204.786 226.022 204.857 226.136 204.972 226.162L205.782 226.349C205.799 226.353 205.816 226.355 205.833 226.355Z" fill="#F37413"/>
<path d="M206.624 225.67C206.719 225.669 206.805 225.602 206.827 225.505C206.854 225.391 206.782 225.276 206.668 225.25L205.858 225.063C205.743 225.037 205.629 225.108 205.603 225.223C205.576 225.337 205.648 225.452 205.762 225.478L206.572 225.665C206.59 225.669 206.607 225.67 206.624 225.67Z" fill="#F37413"/>
<path d="M205.035 226.837C205.13 226.835 205.216 226.769 205.238 226.672C205.265 226.558 205.193 226.443 205.079 226.417L204.269 226.23C204.154 226.203 204.04 226.275 204.013 226.39C203.987 226.504 204.059 226.619 204.173 226.645L204.983 226.832C205 226.836 205.018 226.837 205.035 226.837Z" fill="#F37413"/>
<path d="M204.236 227.301C204.331 227.299 204.417 227.233 204.439 227.136C204.466 227.021 204.394 226.907 204.28 226.881L203.469 226.694C203.355 226.667 203.241 226.739 203.214 226.854C203.188 226.968 203.259 227.082 203.374 227.109L204.184 227.296C204.201 227.3 204.219 227.301 204.236 227.301Z" fill="#F37413"/>
<path d="M203.363 227.734C203.458 227.732 203.544 227.666 203.567 227.568C203.593 227.454 203.521 227.34 203.407 227.313L202.597 227.127C202.482 227.1 202.368 227.172 202.342 227.286C202.315 227.401 202.387 227.515 202.501 227.541L203.311 227.728C203.329 227.732 203.346 227.734 203.363 227.734Z" fill="#F37413"/>
<path d="M202.415 228.104C202.51 228.102 202.596 228.036 202.618 227.939C202.645 227.824 202.574 227.71 202.459 227.684L201.649 227.497C201.534 227.47 201.42 227.542 201.394 227.656C201.367 227.771 201.439 227.885 201.553 227.912L202.363 228.098C202.381 228.102 202.398 228.104 202.415 228.104Z" fill="#F37413"/>
<path d="M216.374 160.365L217.586 168.005C218.238 172.108 218.332 176.281 217.867 180.409L213.155 222.753H205.476L206.207 172.219L197.869 166.441L198.82 159.932L216.374 160.365Z" fill="#091213"/>
<path d="M212.446 213.965L217.373 217.6L215.56 220.494L210.404 217.049L212.446 213.965Z" fill="#FFAF9F"/>
<path d="M215.658 230.498L222.514 219.552C222.417 219.378 222.235 219.203 221.996 219.028C221.113 218.379 219.45 217.749 218.428 217.31C218.308 217.26 218.197 217.211 218.098 217.165C217.93 217.088 217.792 217.019 217.697 216.959C216.937 216.483 216.646 217.238 216.646 217.238C217.038 219.026 214.624 219.26 214.699 220.327C214.699 220.327 214.728 220.784 214.965 222.142C215.203 223.5 214.793 225.302 214.532 226.89C214.193 228.939 214.583 229.825 214.994 230.207C215.319 230.51 215.658 230.498 215.658 230.498Z" fill="#F88628"/>
<path d="M215.658 230.499L222.514 219.553C222.417 219.379 222.235 219.203 221.996 219.028L214.994 230.208C215.319 230.51 215.658 230.499 215.658 230.499Z" fill="#F37413"/>
<path d="M221.814 220.669L222.018 220.344C221.444 220.436 220.685 220.384 219.897 219.835C218.848 219.104 218.526 217.999 218.428 217.31C218.308 217.259 218.197 217.211 218.098 217.165C218.165 217.884 218.465 219.212 219.72 220.087C220.473 220.611 221.212 220.719 221.814 220.669Z" fill="#F37413"/>
<path d="M215.727 222.36C215.778 222.279 215.769 222.171 215.7 222.099C215.618 222.015 215.483 222.012 215.399 222.094L214.801 222.671C214.716 222.753 214.714 222.888 214.796 222.972C214.877 223.057 215.012 223.059 215.096 222.978L215.694 222.4C215.707 222.388 215.718 222.374 215.727 222.36Z" fill="#F37413"/>
<path d="M215.584 221.325C215.634 221.244 215.626 221.136 215.556 221.064C215.474 220.979 215.34 220.977 215.255 221.059L214.657 221.636C214.572 221.718 214.57 221.853 214.652 221.937C214.734 222.022 214.868 222.024 214.953 221.942L215.551 221.365C215.563 221.353 215.575 221.339 215.584 221.325Z" fill="#F37413"/>
<path d="M215.696 223.293C215.747 223.212 215.738 223.105 215.669 223.033C215.587 222.948 215.452 222.946 215.368 223.028L214.77 223.605C214.685 223.686 214.683 223.821 214.765 223.906C214.846 223.99 214.981 223.993 215.066 223.911L215.664 223.334C215.676 223.321 215.687 223.308 215.696 223.293Z" fill="#F37413"/>
<path d="M215.65 224.216C215.701 224.135 215.692 224.027 215.623 223.956C215.541 223.871 215.406 223.869 215.322 223.95L214.724 224.528C214.639 224.609 214.637 224.744 214.719 224.829C214.8 224.913 214.935 224.916 215.019 224.834L215.617 224.256C215.63 224.244 215.641 224.231 215.65 224.216Z" fill="#F37413"/>
<path d="M215.537 225.184C215.587 225.103 215.578 224.995 215.509 224.923C215.427 224.839 215.293 224.836 215.208 224.918L214.61 225.496C214.525 225.577 214.523 225.712 214.605 225.796C214.686 225.881 214.821 225.883 214.906 225.802L215.504 225.224C215.516 225.212 215.527 225.198 215.537 225.184Z" fill="#F37413"/>
<path d="M215.332 226.179C215.382 226.098 215.373 225.99 215.304 225.918C215.223 225.834 215.088 225.832 215.003 225.913L214.405 226.491C214.321 226.572 214.318 226.707 214.4 226.792C214.482 226.876 214.616 226.879 214.701 226.797L215.299 226.219C215.312 226.207 215.323 226.194 215.332 226.179Z" fill="#F37413"/>
<path d="M195.567 177.762L198.764 156.07L210.442 156.654L208.027 176.813L208.025 176.839L205.343 182.948C205.043 183.639 205.02 184.418 205.279 185.125L208.027 192.523L208.027 192.463L217.214 213.755L209.507 219.71L197.538 192.431C195.516 187.823 194.833 182.74 195.567 177.762Z" fill="black"/>
<path d="M215.347 135.73C215.347 135.73 218.571 131.581 212.866 129.608C207.161 127.636 201.331 132.384 200.658 135.42C199.986 138.456 215.347 135.73 215.347 135.73Z" fill="#F9502F"/>
<path d="M208.606 133.952C208.638 133.948 208.67 133.933 208.694 133.907C210.006 132.498 212.478 132.318 212.502 132.316C212.505 132.316 212.508 132.316 212.51 132.315C212.585 132.306 212.641 132.241 212.635 132.166C212.63 132.089 212.561 132.03 212.482 132.035C212.376 132.042 209.871 132.226 208.482 133.717C208.429 133.774 208.433 133.863 208.492 133.916C208.524 133.945 208.566 133.956 208.606 133.952Z" fill="#CC101D"/>
<path d="M212.231 133.697C212.282 133.691 212.327 133.659 212.347 133.608C212.375 133.536 212.338 133.454 212.265 133.426C212.188 133.397 210.377 132.72 209.206 133.141C209.131 133.167 209.093 133.248 209.121 133.321C209.148 133.394 209.23 133.432 209.304 133.405C210.376 133.021 212.144 133.682 212.162 133.689C212.185 133.698 212.208 133.7 212.231 133.697Z" fill="#CC101D"/>
<path d="M181.68 153.605C181.413 154.303 179.409 153.881 178.687 153.692C177.369 153.348 175.514 152.817 174.981 152.523C174.207 152.096 172.073 150.707 172.352 150.082C172.63 149.457 173.288 149.814 173.288 149.814C173.288 149.814 172.483 149.085 172.821 148.48C173.158 147.876 174.163 148.464 174.163 148.464C174.163 148.464 173.392 147.654 173.772 147.075C174.152 146.495 175.06 147.255 175.06 147.255C175.06 147.255 174.32 146.548 174.834 146.198C175.452 145.777 176.666 147.235 177.557 147.642C177.759 147.734 181.795 149.224 181.795 149.224L181.68 153.605Z" fill="#FFAAA1"/>
<path d="M182.874 148.846C182.874 148.846 181.581 147.667 180.895 147.275C180.21 146.883 177.099 146.361 176.938 147.022C176.729 147.876 178.459 148.528 179.351 148.738C179.351 148.738 178.866 150.712 180.001 151.448C181.137 152.184 182.874 148.846 182.874 148.846Z" fill="#FFAAA1"/>
<path d="M178.666 154.017C178.666 154.017 184.08 155.777 187.286 156.593C187.964 156.806 188.696 156.945 189.451 156.986C192.712 157.164 195.192 154.194 194.073 152.034L193.337 149.794C192.261 148.535 189.196 148.237 189.196 148.237L181.856 146.277L178.666 154.017Z" fill="#F9502F"/>
<path d="M180.85 154.652C180.915 154.619 180.965 154.557 180.982 154.481C181.587 151.638 183.632 146.585 183.653 146.534C183.704 146.408 183.643 146.268 183.517 146.22C183.39 146.173 183.247 146.236 183.195 146.362C183.175 146.413 181.113 151.506 180.499 154.391C180.471 154.523 180.556 154.651 180.689 154.676C180.746 154.686 180.802 154.676 180.85 154.652Z" fill="#CC101D"/>
<path d="M188.392 151.493C188.406 152.012 187.729 152.457 188.336 153.222C188.338 153.224 189.712 155.604 191.435 155.373C193.158 155.143 196.552 153.136 197.889 151.461C204.437 143.231 204.144 138.358 204.144 138.358L198.053 137.322L198.056 137.31L198.053 137.31L198.05 137.322L198.04 137.353L198.018 137.43C198.018 137.43 194.395 143.406 191.918 145.517C191.369 145.984 189.99 147.657 188.541 150.124L188.392 151.493Z" fill="#F9502F"/>
<path d="M198.016 137.428C197.737 138.817 198.604 151.45 195.304 165.913C197.056 167.465 201.122 168.172 204.301 168.716L205.864 167.426L207.511 169.03C210.56 169.104 214.664 168.212 217.487 166.801C218.216 164.723 218 157.675 218.184 155.467C218.221 155.028 218.249 154.588 218.27 154.148C218.371 152.031 218.136 147.434 218.128 147.312C218.127 147.298 218.126 147.283 218.125 147.269C218.03 145.389 219.815 139.603 219.317 137.657C218.33 133.801 215.922 135.135 213.558 134.804C212.782 134.696 212.119 134.52 211.57 134.325C211.341 134.244 211.133 134.16 210.942 134.076C210.863 134.041 210.789 134.007 210.717 133.971C209.949 133.603 209.512 133.267 209.512 133.267L204.255 133.353C203.816 134.009 203.253 134.425 202.645 134.724C202.578 134.756 202.51 134.788 202.441 134.819C202.339 134.864 202.235 134.907 202.132 134.947C200.356 135.635 198.383 135.609 198.016 137.428Z" fill="#F9502F"/>
<path d="M214.5 163.352C214.558 163.346 214.608 163.304 214.622 163.246C216.519 155.411 216.361 142.291 216.359 142.16C216.358 142.082 216.293 142.02 216.214 142.021C216.135 142.022 216.072 142.085 216.073 142.163C216.074 142.294 216.232 155.379 214.343 163.18C214.325 163.255 214.372 163.331 214.449 163.349C214.467 163.354 214.484 163.354 214.5 163.352Z" fill="#CC101D"/>
<path d="M206.006 136.339C205.972 136.507 206.197 136.694 206.508 136.755C206.819 136.817 207.099 136.729 207.133 136.561C207.167 136.392 206.942 136.205 206.631 136.144C206.32 136.083 206.04 136.17 206.006 136.339Z" fill="#CC101D"/>
<path d="M203.614 136.034C203.58 136.203 203.805 136.389 204.116 136.451C204.427 136.512 204.707 136.425 204.741 136.256C204.775 136.087 204.55 135.901 204.239 135.839C203.928 135.778 203.648 135.865 203.614 136.034Z" fill="#CC101D"/>
<path d="M203.112 137.331C203.175 137.323 203.228 137.275 203.236 137.21C203.246 137.132 203.191 137.062 203.112 137.052C201.047 136.786 200.773 135.617 200.762 135.567C200.746 135.491 200.67 135.443 200.593 135.457C200.516 135.473 200.466 135.546 200.482 135.622C200.493 135.68 200.795 137.038 203.076 137.331C203.088 137.332 203.1 137.332 203.112 137.331Z" fill="#CC101D"/>
<path d="M201.587 150.041C204.257 149.722 206.485 148.773 207.957 147.977C209.79 146.985 210.882 146.007 210.893 145.997C210.951 145.945 210.955 145.856 210.902 145.798C210.848 145.741 210.757 145.737 210.699 145.79C210.689 145.799 209.616 146.758 207.81 147.734C206.146 148.633 203.501 149.731 200.346 149.857C200.267 149.861 200.206 149.926 200.209 150.003C200.212 150.081 200.279 150.142 200.358 150.138C200.777 150.122 201.187 150.088 201.587 150.041Z" fill="#CC101D"/>
<path d="M210.29 154.017C210.29 154.017 203.71 153.179 199.731 153.606L199.167 158.922C199.167 158.922 205.596 159.212 209.667 159.42L210.29 154.017Z" fill="#CC101D"/>
<path d="M211.845 137.522C213.074 137.376 213.97 136.926 214.567 136.502C215.518 135.827 215.927 135.087 215.944 135.056C215.982 134.987 215.955 134.902 215.885 134.865C215.816 134.828 215.729 134.854 215.692 134.922C215.688 134.93 215.29 135.645 214.388 136.282C213.557 136.868 212.115 137.506 209.957 137.218C209.879 137.208 209.807 137.262 209.796 137.339C209.786 137.416 209.841 137.487 209.92 137.497C210.635 137.593 211.276 137.59 211.845 137.522Z" fill="#CC101D"/>
<path d="M198.7 149.734C198.71 149.736 198.721 149.737 198.732 149.737C198.827 149.738 198.905 149.663 198.905 149.57C198.922 147.198 198.916 144.383 198.851 143.597C198.843 143.504 198.76 143.434 198.666 143.442C198.571 143.449 198.501 143.53 198.508 143.623C198.573 144.398 198.578 147.202 198.562 149.567C198.561 149.649 198.621 149.718 198.7 149.734Z" fill="#CC101D"/>
<path d="M204.658 154.046C204.717 154.039 204.768 153.996 204.78 153.935C205.821 148.902 206.684 136.57 206.693 136.446C206.698 136.369 206.638 136.301 206.56 136.296C206.481 136.291 206.412 136.349 206.407 136.427C206.399 136.55 205.536 148.863 204.5 153.878C204.484 153.954 204.534 154.029 204.611 154.044C204.627 154.048 204.643 154.048 204.658 154.046Z" fill="white"/>
<path d="M201.078 154.007C201.148 153.999 201.202 153.941 201.203 153.87C201.301 146.55 204.27 136.36 204.3 136.258C204.322 136.183 204.278 136.105 204.202 136.084C204.126 136.062 204.047 136.105 204.025 136.179C203.995 136.282 201.015 146.508 200.917 153.866C200.916 153.943 200.979 154.007 201.058 154.008C201.065 154.009 201.071 154.008 201.078 154.007Z" fill="white"/>
<path d="M204.005 132.546L204.031 133.894C204.194 134.019 204.358 134.127 204.522 134.22C206.931 135.587 209.467 133.805 209.467 133.805L209.377 129.131L204.645 132.138L204.005 132.546Z" fill="#FFAAA1"/>
<path d="M204.002 132.428L204.03 133.895C204.193 134.019 204.358 134.128 204.522 134.221C206.535 133.399 207.971 131.283 207.971 131.283L204.645 132.139L204.002 132.428Z" fill="#270904"/>
<mask id="mask12_331_3827" style="mask-type:luminance" maskUnits="userSpaceOnUse" x="-38" y="2" width="366" height="272">
<path d="M-3.73779 2.44141L327.687 52.3367L294.424 273.287L-37.0013 223.392L-3.73779 2.44141Z" fill="white"/>
</mask>
<g mask="url(#mask12_331_3827)">
<path d="M203.012 122.199C203.012 122.199 201.322 123.427 202.359 125.416C202.359 125.416 203.013 123.153 203.012 122.199Z" fill="#272A50"/>
<path d="M209.419 131.228C209.419 131.228 210.467 132.289 210.707 131.538C210.947 130.788 210.583 130.398 210.583 130.398C210.583 130.398 211.715 131.532 211.755 130.706C211.795 129.881 211.208 129.124 211.208 129.124C211.208 129.124 212.305 128.383 211.986 127.131C211.667 125.879 211.646 124.968 212.024 123.963C212.402 122.959 212.269 121.903 211.771 121.432C211.042 120.743 209.956 120.811 209.956 120.811C209.956 120.811 209.428 118.935 207.27 118.915C205.112 118.895 203.898 117.198 202.799 117.594C201.699 117.99 200.362 121.487 203.262 122.629C203.262 122.629 208.963 126.643 209.419 131.228Z" fill="#071F49"/>
<path d="M203.002 125.907C203.002 125.907 202.349 124.905 201.794 125.743C201.239 126.581 201.334 128.442 202.548 128.304L203.002 125.907Z" fill="#FC7C64"/>
<path d="M201.762 128.941C201.762 128.941 201.392 131.705 204.316 132.094C207.222 132.482 209.499 130.507 209.616 130.417C209.618 130.415 209.619 130.415 209.619 130.415L209.728 129.838L210.292 126.845L210.594 125.246C210.594 125.246 211.35 122.395 208.616 121.486C206.618 120.821 204.653 120.896 203.544 121.816C203.508 121.845 203.473 121.876 203.44 121.908C203.086 122.236 202.832 122.66 202.709 123.184L202.235 126.067L202.119 126.773L201.762 128.941Z" fill="#FFAAA1"/>
<path d="M210.292 126.845C210.292 126.845 209.627 127.027 209.316 127.805C208.882 127.746 208.587 127.336 208.677 126.914C208.73 126.669 208.796 126.376 208.874 126.045C209.109 125.056 209.441 124.751 208.869 124.108C208.298 123.464 208.86 123.111 208.337 122.652C207.763 122.149 206.29 122.96 205.23 122.708C203.971 122.409 204.1 121.568 202.972 122.5C202.972 122.5 203.302 121.051 204.751 120.702C206.2 120.353 210.236 120.832 210.806 122.748C211.377 124.665 210.292 126.845 210.292 126.845Z" fill="#1A1F52"/>
<path d="M206.001 126.938C205.974 127.139 206.374 127.359 206.894 127.43C207.414 127.5 207.857 127.394 207.884 127.193C207.91 126.992 207.51 126.772 206.99 126.701C206.471 126.631 206.028 126.737 206.001 126.938Z" fill="#FC7C64"/>
<path d="M202.119 126.774C202.191 126.79 202.267 126.805 202.345 126.815C202.864 126.885 203.307 126.779 203.334 126.578C203.36 126.377 202.96 126.157 202.441 126.086C202.371 126.077 202.302 126.07 202.235 126.067L202.119 126.774Z" fill="#FC7C64"/>
<path d="M208.849 129.172C208.858 129.204 209.117 130.098 209.616 130.417C209.618 130.416 209.619 130.415 209.619 130.415L209.728 129.838C209.728 129.838 209.276 129.698 208.849 129.172Z" fill="#270904"/>
<path d="M209.618 127.321C209.618 127.321 210.938 125.989 211.607 127.267C212.158 128.32 210.544 130.651 209.315 129.611L209.618 127.321Z" fill="#FFAAA1"/>
<path d="M209.528 129.185C209.586 129.193 209.642 129.156 209.656 129.099C209.93 127.993 210.938 127.731 210.981 127.72C211.043 127.705 211.081 127.642 211.065 127.581C211.049 127.519 210.986 127.482 210.923 127.497C210.875 127.509 209.737 127.8 209.429 129.043C209.414 129.105 209.453 129.167 209.515 129.183C209.519 129.184 209.523 129.184 209.528 129.185Z" fill="#270904"/>
<path d="M210.698 128.642C210.732 128.646 210.767 128.636 210.793 128.612C210.84 128.569 210.842 128.496 210.798 128.45C210.757 128.407 210.384 128.029 210.026 128.07C209.962 128.077 209.916 128.134 209.924 128.197C209.932 128.26 209.99 128.305 210.054 128.298C210.26 128.275 210.539 128.513 210.628 128.607C210.648 128.626 210.672 128.638 210.698 128.642Z" fill="#270904"/>
<path d="M204 128.323C205.027 128.462 205.983 127.71 205.995 127.7C206.045 127.66 206.052 127.588 206.011 127.538C205.971 127.489 205.897 127.481 205.847 127.521C205.785 127.571 204.304 128.733 203.152 127.67C203.104 127.627 203.031 127.629 202.987 127.675C202.943 127.721 202.946 127.793 202.993 127.837C203.315 128.135 203.662 128.277 204 128.323Z" fill="#270904"/>
<path d="M205.976 125.808C205.939 126.084 206.037 126.326 206.194 126.347C206.352 126.368 206.509 126.162 206.545 125.885C206.582 125.609 206.484 125.368 206.327 125.346C206.17 125.325 206.013 125.532 205.976 125.808Z" fill="#270904"/>
<path d="M203.152 125.425C203.115 125.701 203.213 125.943 203.37 125.964C203.528 125.985 203.685 125.779 203.721 125.502C203.758 125.226 203.66 124.985 203.503 124.963C203.346 124.942 203.189 125.149 203.152 125.425Z" fill="#270904"/>
<path d="M208.027 124.677C207.824 124.999 207.396 125.1 207.064 124.904C206.87 124.789 206.639 124.671 206.391 124.581C206.039 124.455 205.863 124.067 206.007 123.729C206.007 123.729 207.47 123.794 208.027 124.677Z" fill="#272A50"/>
<path d="M202.622 123.906C202.728 124.249 203.092 124.448 203.442 124.353C203.646 124.297 203.885 124.248 204.132 124.229C204.482 124.202 204.738 123.894 204.689 123.55C204.689 123.55 203.345 123.243 202.622 123.906Z" fill="#272A50"/>
<path d="M204.643 127.045C204.707 127.054 204.765 127.01 204.774 126.947C204.782 126.884 204.737 126.826 204.673 126.818C204.248 126.76 204.078 126.512 204.025 126.408C204.61 125.535 205.193 124.655 205.199 124.646C205.234 124.593 205.218 124.522 205.164 124.487C205.11 124.452 205.038 124.467 205.003 124.52C204.997 124.529 204.392 125.443 203.796 126.331C203.776 126.36 203.772 126.396 203.782 126.429C203.789 126.45 203.958 126.952 204.643 127.045Z" fill="#270904"/>
<path d="M204.611 126.134C204.577 126.519 205.205 126.892 206.013 126.966C206.821 127.04 207.504 126.789 207.538 126.404C207.572 126.019 206.944 125.646 206.135 125.572C205.327 125.497 204.644 125.749 204.611 126.134Z" fill="white" fill-opacity="0.19"/>
<path d="M200.866 125.859C200.832 126.244 201.46 126.616 202.268 126.691C203.076 126.765 203.759 126.513 203.793 126.128C203.827 125.743 203.199 125.371 202.39 125.296C201.582 125.222 200.899 125.474 200.866 125.859Z" fill="white" fill-opacity="0.63"/>
<path d="M203.786 126.125C203.806 126.126 203.826 126.12 203.842 126.107C204.158 125.852 204.557 126.125 204.574 126.137C204.613 126.164 204.666 126.155 204.694 126.117C204.721 126.079 204.712 126.026 204.673 125.999C204.494 125.873 204.067 125.705 203.733 125.975C203.696 126.005 203.691 126.058 203.722 126.094C203.738 126.114 203.762 126.125 203.786 126.125Z" fill="#270904"/>
<path d="M210.63 126.735C210.656 126.735 210.681 126.725 210.699 126.704C210.729 126.668 210.724 126.615 210.687 126.585C209.419 125.555 207.581 126.209 207.503 126.238C207.459 126.254 207.437 126.302 207.454 126.346C207.47 126.39 207.52 126.412 207.564 126.396C207.582 126.39 209.388 125.748 210.578 126.715C210.594 126.728 210.612 126.734 210.63 126.735Z" fill="#270904"/>
</g>
<path d="M203.86 160.708C203.86 160.708 201.345 160.925 200.034 161.403C198.278 162.042 197.005 163.223 196.502 163.744C195.453 164.833 193.708 168.058 194.625 168.602C195.457 169.095 197.06 165.729 197.06 165.729C197.06 165.729 194.81 168.96 195.946 169.38C197.083 169.801 198.703 165.815 198.703 165.815C198.703 165.815 196.47 169.176 197.732 169.438C198.686 169.636 200.376 166.086 200.376 166.086C200.376 166.086 198.478 168.985 199.446 169.227C200.516 169.495 202.3 166.29 202.3 166.29C204.908 166.527 206.337 165.677 207.282 164.969C207.51 164.798 203.86 160.708 203.86 160.708Z" fill="#FFAAA1"/>
<path d="M202.003 160.695L205.819 169.067C205.819 169.067 217.353 164.128 220.931 157.871C226.415 148.28 218.873 136.594 218.873 136.594L211.111 139.709L213.373 151.799C212.916 157.641 202.003 160.695 202.003 160.695ZM214.807 153.512C214.815 153.504 214.813 153.51 214.808 153.522C214.799 153.54 214.801 153.518 214.807 153.512Z" fill="#F9502F"/>
<path d="M211.841 164.906C211.864 164.906 211.887 164.9 211.909 164.89C211.962 164.865 217.225 162.382 219.762 159.876C222.318 157.351 222.767 154.127 222.785 153.991C222.797 153.899 222.731 153.815 222.637 153.803C222.543 153.792 222.457 153.857 222.445 153.95C222.441 153.982 221.99 157.198 219.519 159.639C217.025 162.103 211.816 164.561 211.763 164.585C211.677 164.626 211.641 164.726 211.681 164.81C211.711 164.873 211.775 164.909 211.841 164.906Z" fill="#CC101D"/>
<path d="M215.543 154.59C215.604 154.588 215.662 154.554 215.691 154.497C215.735 154.414 215.701 154.312 215.617 154.27C214.573 153.752 213.196 153.351 213.138 153.335C213.047 153.308 212.952 153.36 212.924 153.449C212.897 153.539 212.949 153.632 213.04 153.659C213.054 153.663 214.445 154.068 215.461 154.572C215.487 154.585 215.516 154.59 215.543 154.59Z" fill="#CC101D"/>
<path d="M213.19 153.694C213.196 153.694 213.202 153.694 213.209 153.693C213.9 153.595 214.845 153.559 214.855 153.559C214.949 153.556 215.024 153.477 215.021 153.384C215.018 153.291 214.939 153.218 214.845 153.222C214.844 153.221 214.844 153.222 214.844 153.222C214.804 153.223 213.87 153.258 213.161 153.359C213.068 153.372 213.002 153.458 213.015 153.55C213.027 153.636 213.103 153.697 213.19 153.694Z" fill="#CC101D"/>
<path d="M213.122 149.883C213.124 149.883 213.125 149.883 213.127 149.882C213.222 149.876 213.294 149.796 213.288 149.703C213.275 149.477 212.95 144.137 212.06 141.711C212.027 141.624 211.929 141.579 211.84 141.611C211.751 141.643 211.705 141.74 211.737 141.827C212.61 144.208 212.943 149.67 212.946 149.725C212.951 149.816 213.029 149.886 213.122 149.883Z" fill="#CC101D"/>
<path d="M212.297 143.324C212.347 143.322 212.395 143.3 212.428 143.258C212.486 143.185 212.473 143.079 212.399 143.022L211.565 142.384C211.49 142.327 211.383 142.34 211.324 142.414C211.265 142.487 211.279 142.593 211.353 142.65L212.187 143.289C212.22 143.314 212.259 143.325 212.297 143.324Z" fill="#CC101D"/>
<path d="M208.121 168.135C208.15 168.137 208.178 168.132 208.203 168.118C208.299 168.066 208.324 167.91 208.26 167.77L204.588 159.726C204.524 159.586 204.394 159.514 204.299 159.567C204.203 159.619 204.178 159.774 204.242 159.914L207.914 167.959C207.961 168.062 208.043 168.127 208.121 168.135Z" fill="#CC101D"/>
</g>
<mask id="mask13_331_3827" style="mask-type:luminance" maskUnits="userSpaceOnUse" x="-21" y="35" width="336" height="224">
<path d="M-20.5801 35.2803H314.58V258.72H-20.5801V35.2803Z" fill="white"/>
</mask>
<g mask="url(#mask13_331_3827)">
<path d="M157.537 216.969L162.172 224.59L164.346 222.158L161.648 216.245L157.537 216.969Z" fill="#FF9D83"/>
<path d="M161.545 220.611C161.303 220.613 161.072 220.608 160.872 220.594C160.348 220.559 159.418 220.297 158.795 220.106L158.748 220.092L158.188 219.913L158.155 219.902C158.155 219.902 152.05 212.097 149.15 200.055C149.082 199.774 149.01 199.491 148.933 199.204C147.307 193.152 143.61 185.444 141.853 178.574C141.573 177.481 141.325 176.452 141.106 175.479C141.036 175.168 140.968 174.862 140.904 174.561L143.381 172.934C143.381 172.934 149.673 184.869 151.127 195.797C152.333 204.854 159.357 216.969 161.545 220.611Z" fill="black"/>
<path d="M170.87 231.146C170.87 231.146 166.94 230.878 166.271 230.757C165.602 230.637 165.127 229.626 164.496 228.117C164.238 227.499 163.591 227.124 162.916 226.897L162.685 230.466L161.604 230.392L160.909 226.547C160.342 225.312 161.012 224.274 161.532 223.365C162.062 223.4 163.463 223.86 165.957 227.089C166.777 228.148 167.733 228.572 168.709 228.608C168.722 228.618 168.735 228.626 168.748 228.632C170.924 229.796 170.87 231.146 170.87 231.146Z" fill="#CC101D"/>
<path d="M168.709 228.608C168.709 228.608 165.328 224.299 164.346 222.157L161.532 223.365L167.221 229.489L168.656 229.398L168.709 228.608Z" fill="#FF9D83"/>
<path d="M163.979 221.247C163.979 221.247 162.639 221.385 161.545 221.394C161.303 221.396 161.072 221.391 160.872 221.377C160.348 221.342 159.418 221.08 158.795 220.889L158.748 220.875C158.474 220.79 158.266 220.722 158.188 220.696L158.155 220.685C158.155 220.685 152.05 212.88 149.15 200.838C149.082 200.557 149.01 200.274 148.933 199.987C147.307 193.935 143.61 186.227 141.853 179.357C141.573 178.264 141.325 177.235 141.106 176.262C141.036 175.951 140.968 175.645 140.904 175.344C139.658 169.56 139.44 165.803 139.275 161.794L152.364 166.091C152.364 166.091 156.303 190.716 163.979 221.247Z" fill="#091213"/>
<path d="M135.23 217.082L136.515 224.799L139.217 224.968L139.832 217.396L135.23 217.082Z" fill="#FF9D83"/>
<path d="M136.453 224.369C136.453 224.369 136.568 225.888 135.897 227.459C135.897 227.459 135.317 229.443 137.298 229.616C139.279 229.789 139.779 229.635 139.638 228.384C139.498 227.134 139.216 224.969 139.216 224.969L136.453 224.369Z" fill="#FF9D83"/>
<path d="M135.897 227.46C135.897 227.46 135.312 229.546 135.468 230.572C135.468 230.572 136.123 230.852 137.564 230.951C138.931 231.044 139.75 230.864 139.75 230.864C139.75 230.864 139.856 228.562 139.552 227.657C139.552 227.657 138.002 229.672 135.897 227.46Z" fill="#CC101D"/>
<path d="M142.432 198.174C142.114 203.418 141.027 215.45 140.005 220.393C140.005 220.393 139.318 220.921 137.712 220.819C136.068 220.713 135.374 220.057 135.374 220.057C134.253 211.266 133.525 204.006 133.059 197.76C132.678 192.636 132.328 188.24 132.086 184.46C131.872 181.111 131.742 178.245 131.754 175.782C131.757 175.447 131.76 175.12 131.767 174.801C131.776 174.38 131.789 173.97 131.809 173.574C131.828 173.175 131.853 172.787 131.882 172.411L131.939 172.409L135.27 172.312L145.796 172.006C144.995 181.178 142.617 195.126 142.432 198.174Z" fill="#091213"/>
<path d="M137.712 220.819C136.308 220.804 135.374 220.057 135.374 220.057C134.253 211.266 133.525 204.006 133.059 197.76C132.678 192.635 132.328 188.24 132.086 184.46C131.872 181.111 131.742 178.244 131.754 175.782C131.819 174.572 131.885 173.413 131.939 172.409C131.993 171.39 132.036 170.528 132.049 169.927L135.27 172.312L138.66 174.821C138.66 174.821 133.32 179.052 133.966 187.782C134.611 196.512 136.077 219.477 137.712 220.819Z" fill="black"/>
<path d="M149.91 137.565L149.92 137.733L149.937 137.95C149.95 138.1 149.965 138.252 149.982 138.407C150.013 138.715 150.052 139.03 150.095 139.344C150.182 139.975 150.29 140.609 150.414 141.241C150.657 142.507 150.974 143.765 151.353 145.001C151.547 145.618 151.75 146.231 151.97 146.839C152.195 147.444 152.43 148.045 152.686 148.637C152.747 148.786 152.815 148.932 152.88 149.079C152.946 149.226 153.009 149.375 153.078 149.52C153.217 149.81 153.351 150.103 153.498 150.388C153.571 150.532 153.641 150.677 153.716 150.819L153.942 151.244L153.999 151.351L154.027 151.404L154.034 151.417C154.036 151.421 154.041 151.429 154.037 151.422L154.025 151.403C154.006 151.374 153.995 151.357 153.979 151.339C153.97 151.325 153.956 151.311 153.95 151.304C153.917 151.272 153.931 151.294 153.965 151.328C154.04 151.401 154.209 151.529 154.412 151.653C154.617 151.779 154.859 151.909 155.116 152.036C155.633 152.289 156.212 152.53 156.811 152.757C157.41 152.984 158.032 153.196 158.665 153.398C159.298 153.599 159.94 153.794 160.59 153.978C161.89 154.346 163.212 154.687 164.544 155.006C165.21 155.167 165.878 155.322 166.547 155.471L167.551 155.69L168.052 155.797L168.541 155.899L167.811 160.465L167.264 160.394L166.73 160.322C166.375 160.271 166.022 160.218 165.668 160.164C164.961 160.055 164.256 159.94 163.55 159.817C162.139 159.569 160.729 159.293 159.315 158.968C157.9 158.644 156.484 158.277 155.041 157.807C154.318 157.571 153.589 157.307 152.835 156.974C152.456 156.807 152.072 156.622 151.67 156.398C151.268 156.172 150.849 155.914 150.389 155.536C150.157 155.341 149.916 155.121 149.662 154.817C149.6 154.744 149.535 154.658 149.473 154.575C149.408 154.484 149.346 154.395 149.283 154.292L149.214 154.178L149.178 154.116L149.106 153.994L148.818 153.503C148.723 153.339 148.634 153.173 148.541 153.007C148.354 152.678 148.182 152.341 148.006 152.006C147.917 151.838 147.836 151.668 147.751 151.499C147.668 151.329 147.582 151.161 147.503 150.989L147.263 150.475C147.184 150.304 147.11 150.13 147.033 149.958C146.878 149.613 146.738 149.263 146.592 148.914C146.312 148.214 146.047 147.507 145.807 146.793C145.33 145.363 144.927 143.91 144.606 142.433C144.449 141.693 144.315 140.948 144.202 140.192C144.146 139.813 144.094 139.434 144.051 139.046C144.03 138.852 144.011 138.656 143.994 138.457L143.97 138.151L143.959 137.99L143.949 137.795L149.91 137.565Z" fill="#F37413"/>
<path d="M152.241 152.884C152.189 152.891 152.135 152.873 152.096 152.832C152.031 152.763 152.034 152.655 152.103 152.59C152.953 151.787 153.76 151.244 153.793 151.221C153.872 151.169 153.978 151.19 154.031 151.269C154.084 151.347 154.063 151.454 153.984 151.506C153.976 151.512 153.167 152.057 152.338 152.839C152.311 152.865 152.277 152.88 152.241 152.884Z" fill="#F37413"/>
<path d="M152.606 151.684C152.518 151.694 152.435 151.635 152.417 151.547C152.399 151.454 152.459 151.364 152.552 151.345C152.559 151.344 153.22 151.214 153.782 151.146C153.876 151.135 153.961 151.201 153.972 151.295C153.984 151.39 153.917 151.475 153.823 151.486C153.274 151.553 152.625 151.68 152.619 151.682C152.615 151.682 152.61 151.683 152.606 151.684Z" fill="#F37413"/>
<path d="M165.054 160.559C165.038 160.561 165.021 160.561 165.004 160.558C164.911 160.542 164.848 160.453 164.864 160.36L165.779 154.997C165.795 154.904 165.884 154.841 165.977 154.857C166.07 154.873 166.133 154.961 166.117 155.055L165.202 160.418C165.189 160.494 165.127 160.55 165.054 160.559Z" fill="#F37413"/>
<path d="M167.85 159.513C167.833 159.515 167.815 159.515 167.797 159.511L165.341 159.049C165.248 159.031 165.186 158.942 165.204 158.849C165.221 158.756 165.311 158.694 165.404 158.712L167.861 159.174C167.954 159.192 168.015 159.281 167.998 159.375C167.983 159.45 167.922 159.504 167.85 159.513Z" fill="#F37413"/>
<path d="M167.226 157.715C167.295 157.923 167.183 158.147 166.976 158.216C166.768 158.286 166.544 158.174 166.474 157.966C166.405 157.759 166.517 157.535 166.724 157.465C166.932 157.396 167.156 157.508 167.226 157.715Z" fill="#F37413"/>
<path d="M171.759 156.405C171.754 156.886 170.249 156.751 169.874 156.791C169.497 156.831 169.443 156.916 169.629 157.017L167.433 156.26C167.791 156.16 168.558 155.95 169.017 155.871C169.631 155.765 171.764 155.923 171.759 156.405Z" fill="#FF9D83"/>
<path d="M172.653 157.315C172.748 157.699 172.09 157.939 172.09 157.939C172.09 157.939 172.93 157.886 172.903 158.325C172.875 158.765 172.093 158.893 172.093 158.893C172.093 158.893 172.868 158.883 172.806 159.318C172.744 159.755 172.025 159.914 172.025 159.914C172.025 159.914 172.24 160.017 172.043 160.306C171.761 160.721 170.603 160.837 169.982 160.769C169.361 160.7 167.139 160.033 166.802 159.925L167.237 156.316C167.237 156.316 167.311 156.294 167.433 156.26L169.629 157.017C169.751 157.083 170.698 157.238 170.988 157.26C171.643 157.308 172.546 156.884 172.653 157.315Z" fill="#FF9D83"/>
<path d="M152.561 148.43C152.554 148.447 152.551 148.46 152.545 148.477C152.484 148.653 152.413 148.824 152.331 148.991C151.85 149.992 151.06 150.822 150.745 151.131C150.659 151.218 150.607 151.262 150.607 151.262C150.607 151.268 150.609 151.273 150.609 151.282C150.612 151.334 150.615 151.387 150.618 151.445C150.63 151.666 150.651 151.931 150.699 152.226C151.262 155.607 154.382 169.527 154.607 170.963C149.91 177.072 131.164 173.257 130.652 172.446C130.342 169.033 135.918 154.982 135.574 151.677C135.409 150.081 134.878 147.674 134.132 145.266C134.104 145.171 134.075 145.076 134.043 144.981C133.819 144.273 133.578 143.568 133.322 142.889C132.202 139.915 132.625 137.312 134.384 136.203C134.982 135.826 136.783 135.382 137.577 135.256C137.791 135.221 138.002 135.189 138.202 135.16C139.321 135.001 140.193 134.922 140.193 134.922L145.506 135.229C146.026 135.313 146.494 135.4 146.914 135.499C147.283 135.582 147.615 135.674 147.914 135.773C150.587 136.65 150.622 138.08 150.993 140.672C151.1 141.41 151.265 142.14 151.451 142.843C151.513 143.064 151.575 143.282 151.637 143.5C152.232 145.573 152.909 147.363 152.561 148.43Z" fill="#F37413"/>
<path d="M139.899 134.954C139.899 134.954 137.109 135.261 137.047 136.848C136.984 138.435 142.637 138.583 142.637 138.583C142.637 138.583 140.103 136.718 139.899 134.954Z" fill="white"/>
<path d="M145.383 135.222C145.383 135.222 148.13 135.799 148.037 137.384C147.945 138.969 144.052 138.804 144.052 138.804C144.052 138.804 145.009 136.957 145.383 135.222Z" fill="white"/>
<path d="M145.371 135.004L145.472 136.894C145.554 138.436 143.835 139.399 142.557 138.531C141.069 137.52 139.754 136.173 139.796 134.961L145.371 135.004Z" fill="#FF9D83"/>
<path d="M150.607 151.26C150.607 151.265 150.609 151.271 150.609 151.279C150.612 151.332 150.615 151.384 150.618 151.442C149.637 151.619 148.386 151.589 146.929 151.237C144.058 150.539 141.628 151.769 141.605 151.782C141.583 151.794 141.555 151.799 141.53 151.797C141.48 151.795 141.432 151.766 141.41 151.718C141.371 151.647 141.4 151.56 141.471 151.522C141.572 151.469 144.019 150.231 147 150.953C148.511 151.319 149.785 151.33 150.745 151.128C150.659 151.215 150.607 151.26 150.607 151.26Z" fill="#F37413"/>
<path d="M146.163 143.809C144.389 143.728 140.884 141.024 140.736 140.909C140.672 140.859 140.66 140.767 140.71 140.704C140.759 140.64 140.851 140.629 140.915 140.678C140.95 140.706 144.494 143.441 146.177 143.518C147.786 143.59 148.222 141.848 148.226 141.831C148.245 141.752 148.324 141.704 148.402 141.723C148.481 141.742 148.529 141.82 148.51 141.899C148.505 141.919 148.011 143.892 146.163 143.809Z" fill="#F37413"/>
<path d="M151.371 155.169C151.286 155.181 151.203 155.128 151.18 155.043C150.827 153.702 150.443 151.332 150.44 151.309C150.429 151.242 150.458 151.176 150.514 151.139C150.529 151.129 151.999 150.131 152.394 148.393C152.414 148.3 152.506 148.242 152.598 148.263C152.691 148.284 152.749 148.376 152.728 148.468C152.357 150.104 151.143 151.102 150.795 151.359C150.874 151.833 151.205 153.791 151.512 154.955C151.536 155.047 151.481 155.141 151.39 155.165C151.383 155.166 151.377 155.168 151.371 155.169Z" fill="#F37413"/>
<path d="M145.706 133.517L145.232 136.071C145.232 136.071 143.213 138.564 139.795 134.961C140.541 133.969 141.204 132.085 141.12 131.032C141.12 131.032 141.393 131.206 141.808 131.601C141.89 131.679 141.995 131.74 142.098 131.814C143.009 132.468 144.408 133.324 145.706 133.517Z" fill="#FF9D83"/>
<path d="M145.706 133.516L145.481 134.727C144.441 134.232 142.607 133.183 141.809 131.601C141.898 131.668 141.995 131.739 142.098 131.814C143.009 132.467 144.408 133.323 145.706 133.516Z" fill="#270904"/>
<path d="M155.331 161.437C155.263 161.965 153.786 161.646 153.407 161.647C153.028 161.648 152.964 161.735 153.135 161.868L151.052 160.787C151.421 160.718 152.21 160.575 152.676 160.54C153.3 160.493 155.399 160.909 155.331 161.437Z" fill="#FF9D83"/>
<path d="M156.1 162.537C156.145 162.97 155.459 163.159 155.459 163.159C155.459 163.159 156.301 163.197 156.216 163.675C156.131 164.155 155.338 164.207 155.338 164.207C155.338 164.207 156.109 164.283 155.99 164.754C155.872 165.227 155.136 165.32 155.136 165.32C155.136 165.32 155.337 165.457 155.103 165.752C154.768 166.176 153.603 166.172 152.995 166.026C152.387 165.88 150.267 164.895 149.945 164.739L150.85 160.826C150.85 160.826 150.926 160.811 151.052 160.787L153.135 161.867C153.247 161.954 154.168 162.231 154.453 162.288C155.097 162.416 156.05 162.052 156.1 162.537Z" fill="#FF9D83"/>
<path d="M131.283 146.855C131.238 148.469 131.36 150.103 131.652 151.717C131.725 152.12 131.815 152.522 131.91 152.921C132.009 153.321 132.116 153.719 132.237 154.113C132.25 154.155 132.263 154.197 132.276 154.238C132.386 154.59 132.503 154.94 132.633 155.286C132.703 155.48 132.779 155.671 132.855 155.863L132.884 155.935L132.9 155.976L132.936 156.06C132.984 156.174 133.033 156.274 133.084 156.375C133.186 156.569 133.291 156.738 133.396 156.892C133.605 157.193 133.814 157.436 134.013 157.644C134.214 157.853 134.409 158.032 134.599 158.196C134.899 158.453 135.19 158.671 135.476 158.871C135.553 158.926 135.63 158.978 135.706 159.03C136.426 159.511 137.123 159.903 137.819 160.263C139.209 160.978 140.583 161.574 141.965 162.124C143.344 162.675 144.727 163.174 146.115 163.645C146.81 163.877 147.506 164.103 148.204 164.322C148.553 164.432 148.902 164.541 149.253 164.647L149.782 164.802L150.324 164.959L151.733 160.555L151.254 160.376L150.765 160.19L149.783 159.814C149.129 159.56 148.477 159.3 147.829 159.033C146.532 158.505 145.249 157.955 143.994 157.38C142.743 156.802 141.511 156.2 140.381 155.55C139.819 155.225 139.28 154.89 138.822 154.554C138.595 154.387 138.388 154.22 138.231 154.072C138.156 154.001 138.093 153.935 138.049 153.884L138.044 153.869C137.993 153.726 137.942 153.583 137.897 153.438C137.801 153.15 137.718 152.858 137.64 152.564C137.562 152.27 137.495 151.973 137.433 151.674C137.375 151.375 137.32 151.074 137.277 150.771C137.233 150.468 137.194 150.164 137.166 149.857C137.138 149.551 137.116 149.243 137.104 148.935C137.09 148.625 137.085 148.316 137.088 148.005C137.089 147.694 137.096 147.382 137.113 147.07C137.175 145.822 137.355 144.566 137.638 143.331C137.776 142.713 137.939 142.1 138.127 141.501C138.221 141.201 138.321 140.905 138.426 140.618C138.478 140.474 138.531 140.332 138.585 140.196L138.665 139.998L138.724 139.857L133.308 137.36L133.258 137.471L133.221 137.555L133.155 137.712C133.112 137.815 133.072 137.914 133.034 138.013C132.957 138.21 132.884 138.403 132.814 138.596C132.677 138.983 132.552 139.367 132.435 139.752C132.202 140.522 132.006 141.296 131.841 142.079C131.52 143.644 131.326 145.24 131.283 146.855ZM137.987 153.796C137.993 153.801 138.005 153.817 138.025 153.851C138.027 153.855 138.029 153.859 138.031 153.862C137.995 153.819 137.981 153.792 137.987 153.796Z" fill="#F37413"/>
<path d="M132.276 154.237C132.386 154.589 132.503 154.939 132.633 155.284C132.703 155.478 132.779 155.67 132.856 155.862L132.884 155.934L132.9 155.975L132.936 156.059C132.984 156.173 133.033 156.273 133.084 156.374C133.186 156.568 133.291 156.737 133.396 156.891C133.605 157.192 133.814 157.435 134.013 157.642C134.214 157.852 134.409 158.031 134.599 158.195C134.899 158.452 135.19 158.67 135.477 158.87C136.035 155.078 133.616 154.352 132.276 154.237Z" fill="#F37413"/>
<path d="M136.08 155.116C136.026 155.117 135.972 155.091 135.939 155.043C135.885 154.965 135.904 154.858 135.982 154.804C136.944 154.138 138.251 153.543 138.306 153.518C138.393 153.479 138.494 153.517 138.533 153.603C138.572 153.69 138.534 153.791 138.448 153.83C138.435 153.836 137.113 154.437 136.177 155.086C136.148 155.106 136.114 155.116 136.08 155.116Z" fill="#F37413"/>
<path d="M136.622 153.984C136.535 153.985 136.46 153.919 136.451 153.831C136.441 153.736 136.509 153.652 136.604 153.643C136.643 153.638 137.57 153.544 138.286 153.547C138.381 153.547 138.458 153.624 138.457 153.719C138.457 153.813 138.379 153.888 138.285 153.889C137.588 153.887 136.648 153.983 136.639 153.984C136.633 153.984 136.627 153.984 136.622 153.984Z" fill="#F37413"/>
<path d="M148.425 159.358C148.401 159.359 148.376 159.354 148.353 159.343C142.402 156.599 138.547 154.016 138.375 153.773C138.361 153.753 138.351 153.731 138.346 153.707C138.27 153.327 136.499 144.349 137.623 141.081C137.654 140.992 137.751 140.944 137.841 140.975C137.93 141.006 137.978 141.103 137.947 141.193C136.896 144.25 138.529 152.849 138.673 153.59C139.061 153.926 142.816 156.413 148.496 159.031C148.582 159.071 148.62 159.173 148.58 159.259C148.551 159.321 148.49 159.358 148.425 159.358Z" fill="#F37413"/>
<path d="M137.583 142.756C137.54 142.756 137.496 142.74 137.463 142.708C137.395 142.642 137.394 142.533 137.46 142.465L138.198 141.707C138.264 141.639 138.372 141.638 138.44 141.704C138.508 141.77 138.509 141.878 138.443 141.946L137.705 142.704C137.672 142.739 137.628 142.756 137.583 142.756Z" fill="#F37413"/>
<path d="M147.725 164.23C147.706 164.23 147.688 164.227 147.67 164.221C147.58 164.191 147.531 164.094 147.561 164.004L148.984 159.714C149.014 159.624 149.111 159.575 149.201 159.605C149.291 159.635 149.339 159.732 149.309 159.821L147.886 164.112C147.863 164.184 147.796 164.229 147.725 164.23Z" fill="#F37413"/>
<path d="M150.511 164.021C150.492 164.021 150.473 164.018 150.454 164.012L148.095 163.185C148.006 163.153 147.959 163.055 147.99 162.966C148.021 162.877 148.119 162.83 148.209 162.861L150.567 163.688C150.657 163.72 150.704 163.817 150.672 163.907C150.648 163.977 150.582 164.021 150.511 164.021Z" fill="#F37413"/>
<path d="M150.16 162.15C150.197 162.366 150.052 162.571 149.837 162.608C149.622 162.645 149.417 162.501 149.379 162.286C149.342 162.07 149.486 161.865 149.702 161.828C149.917 161.79 150.122 161.935 150.16 162.15Z" fill="#F37413"/>
<mask id="mask14_331_3827" style="mask-type:luminance" maskUnits="userSpaceOnUse" x="-37" y="5" width="373" height="284">
<path d="M-36.4302 69.0566L292.572 5.10536L335.206 224.44L6.20401 288.391L-36.4302 69.0566Z" fill="white"/>
</mask>
<g mask="url(#mask14_331_3827)">
<path d="M142.547 121.483C142.724 123.692 142.416 126.924 141.724 130.057C140.799 134.243 139.189 138.25 137.139 139.396C133.554 141.399 131.225 138.983 131.225 138.983C136.992 139.295 136.374 133.177 135.33 128.684C134.286 124.191 135.02 120.431 138.305 119.649C140.573 119.109 141.73 120.188 142.23 120.908C142.454 121.232 142.547 121.483 142.547 121.483Z" fill="#270904"/>
<path d="M142.546 121.484C142.724 123.692 142.416 126.925 141.724 130.058L138.269 131.092C138.269 131.092 136.15 127.63 137.387 124.465C138.312 122.099 140.886 121.131 142.23 120.909C142.454 121.233 142.546 121.484 142.546 121.484Z" fill="#F37413"/>
<path d="M148.5 124.705C148.5 124.705 149.738 127.135 148.511 128.323L147.884 124.832L148.5 124.705Z" fill="#270904"/>
<path d="M146.624 122.188C146.624 122.188 142.908 119.45 139.426 122.655C135.883 125.915 137.315 132.728 140.963 133.055C140.963 133.055 146.098 127.093 146.624 122.188Z" fill="#270904"/>
<path d="M147.572 128.931C147.572 128.931 148.409 128.005 148.834 128.972C149.258 129.94 148.844 131.856 147.627 131.5L147.572 128.931Z" fill="#FF7C64"/>
<path d="M147.823 132.851C145.867 135.356 140.728 132.296 140.574 132.202C140.571 132.2 140.57 132.2 140.57 132.2C140.531 131.994 140.497 131.79 140.467 131.588C140.212 129.88 140.244 128.302 140.466 126.808C140.436 125.226 141.425 123.785 142.93 123.292C144.489 122.782 145.848 123.505 146.67 123.788C147.91 124.216 148.644 125.861 148.575 128.169C148.49 131 148.364 132.159 147.823 132.851Z" fill="#FF9D83"/>
<path d="M144.857 129.223C144.85 129.436 144.404 129.595 143.861 129.577C143.318 129.559 142.884 129.371 142.891 129.158C142.898 128.944 143.344 128.785 143.886 128.803C144.429 128.821 144.864 129.009 144.857 129.223Z" fill="#FF7C64"/>
<path d="M148.849 129.731C148.773 129.736 148.693 129.737 148.612 129.735C148.069 129.717 147.635 129.529 147.642 129.315C147.649 129.101 148.095 128.943 148.637 128.961C148.711 128.963 148.782 128.969 148.851 128.977L148.849 129.731Z" fill="#FF7C64"/>
<path d="M141.568 131.042C141.553 131.075 141.137 131.957 140.574 132.201C140.573 132.201 140.573 132.202 140.573 132.202C140.571 132.2 140.57 132.199 140.57 132.199C140.531 131.993 140.497 131.789 140.467 131.587C140.488 131.585 141.052 131.506 141.568 131.042Z" fill="#270904"/>
<path d="M141.098 128.988C141.098 128.988 139.976 127.373 139.076 128.583C138.334 129.58 139.585 132.284 141.017 131.419L141.098 128.988Z" fill="#FF9D83"/>
<path d="M140.102 130.834C140.102 130.834 141.064 132.647 140.498 132.875C139.458 133.294 140.102 130.834 140.102 130.834Z" fill="white"/>
<path d="M140.873 130.939C140.812 130.937 140.761 130.89 140.756 130.828C140.665 129.631 139.68 129.182 139.638 129.163C139.577 129.136 139.549 129.065 139.576 129.004C139.603 128.943 139.674 128.915 139.735 128.942C139.782 128.963 140.895 129.464 140.997 130.809C141.002 130.876 140.952 130.934 140.886 130.939C140.881 130.939 140.877 130.939 140.873 130.939Z" fill="#270904"/>
<path d="M139.77 130.17C139.735 130.169 139.701 130.153 139.678 130.123C139.637 130.07 139.648 129.994 139.701 129.954C139.75 129.916 140.194 129.589 140.554 129.694C140.618 129.713 140.655 129.78 140.636 129.844C140.617 129.908 140.55 129.945 140.486 129.926C140.28 129.866 139.955 130.064 139.847 130.146C139.824 130.163 139.797 130.171 139.77 130.17Z" fill="#270904"/>
<path d="M141.746 125.658C141.746 125.658 142.433 129.014 141.455 129.36C140.298 129.771 139.821 127.108 140.314 124.868L141.746 125.658Z" fill="#270904"/>
<path d="M141.344 126.418C141.344 126.418 146.23 126.406 146.916 124.413C146.916 124.413 147.585 126.001 148.652 125.955C148.652 125.955 149.067 124.044 146.624 122.189C146.624 122.189 141.321 121.537 140.389 123.862C139.457 126.187 141.344 126.418 141.344 126.418Z" fill="#270904"/>
<path d="M145.26 126.717C145.26 126.717 145.717 126.777 145.542 127.192C145.367 127.606 144.464 127.113 143.781 127.865C143.781 127.865 143.535 126.849 145.26 126.717Z" fill="#270904"/>
<path d="M147.336 126.785C147.336 126.785 146.876 126.815 147.024 127.24C147.17 127.665 148.105 127.233 148.737 128.028C148.737 128.028 149.05 127.03 147.336 126.785Z" fill="#270904"/>
<path d="M145.122 128.314C145.064 128.355 144.888 128.41 144.73 128.436C144.572 128.463 144.492 128.452 144.551 128.412C144.609 128.371 144.785 128.316 144.943 128.289C145.101 128.262 145.181 128.273 145.122 128.314Z" fill="#270904"/>
<path d="M147.916 127.831C147.857 127.871 147.682 127.926 147.524 127.953C147.366 127.98 147.286 127.969 147.345 127.928C147.403 127.887 147.579 127.833 147.737 127.806C147.895 127.779 147.975 127.79 147.916 127.831Z" fill="#270904"/>
<path d="M146.471 130.901C145.725 130.877 145.087 130.325 145.078 130.317C145.028 130.273 145.023 130.197 145.067 130.147C145.112 130.096 145.188 130.092 145.238 130.136C145.287 130.179 146.432 131.164 147.342 130.331C147.392 130.286 147.468 130.289 147.513 130.338C147.558 130.387 147.555 130.464 147.506 130.509C147.171 130.815 146.81 130.912 146.471 130.901Z" fill="#270904"/>
<path d="M145.13 129.426L143.436 129.426C143.19 129.426 142.959 129.33 142.785 129.156C142.611 128.982 142.516 128.751 142.516 128.505L142.516 127.861C142.516 127.608 142.722 127.402 142.975 127.402L145.592 127.403C145.845 127.403 146.051 127.609 146.051 127.862L146.051 128.506C146.051 128.969 145.708 129.353 145.262 129.417C145.219 129.423 145.175 129.426 145.13 129.426ZM142.738 127.861L142.738 128.505C142.738 128.692 142.811 128.867 142.943 128.999C143.074 129.131 143.25 129.203 143.436 129.203L145.13 129.204C145.317 129.204 145.492 129.131 145.624 129C145.756 128.868 145.828 128.692 145.828 128.506L145.828 127.862C145.828 127.732 145.722 127.626 145.592 127.625L142.975 127.625C142.963 127.625 142.952 127.626 142.941 127.627C142.827 127.644 142.738 127.742 142.738 127.861Z" fill="white"/>
<path d="M148.533 129.426L147.691 129.426C147.184 129.426 146.771 129.013 146.771 128.505L146.771 127.861C146.771 127.608 146.977 127.402 147.23 127.402L148.995 127.403C149.248 127.403 149.454 127.609 149.454 127.862L149.454 128.506C149.454 128.752 149.358 128.983 149.184 129.157C149.042 129.299 148.862 129.389 148.667 129.417C148.623 129.423 148.578 129.426 148.533 129.426ZM146.994 127.861L146.994 128.505C146.994 128.89 147.307 129.203 147.691 129.203L148.533 129.204C148.72 129.204 148.895 129.131 149.027 128.999C149.158 128.868 149.231 128.692 149.231 128.506L149.231 127.862C149.231 127.732 149.125 127.625 148.995 127.625L147.23 127.625C147.219 127.625 147.207 127.626 147.196 127.627C147.082 127.644 146.994 127.742 146.994 127.861Z" fill="white"/>
<path d="M146.634 129.224C146.483 129.219 146.28 129.186 146.08 129.069C146.022 129.036 146.003 128.962 146.036 128.904C146.07 128.846 146.144 128.827 146.201 128.86C146.383 128.966 146.571 128.985 146.692 128.983L146.332 127.83C146.312 127.767 146.348 127.699 146.412 127.679C146.475 127.659 146.543 127.695 146.563 127.758L146.967 129.053C146.977 129.085 146.974 129.12 146.957 129.149C146.94 129.179 146.911 129.199 146.878 129.207C146.87 129.209 146.774 129.229 146.634 129.224Z" fill="#270904"/>
<path d="M146.872 127.82L146.959 127.615C146.578 127.455 146.217 127.47 145.884 127.662L145.995 127.855C146.268 127.698 146.555 127.686 146.872 127.82Z" fill="white"/>
<path d="M142.643 127.971C142.689 127.964 142.728 127.929 142.737 127.881C142.748 127.821 142.708 127.763 142.648 127.752C142.589 127.741 141.209 127.492 140.219 128.04C140.165 128.069 140.146 128.137 140.175 128.191C140.205 128.245 140.273 128.264 140.327 128.234C141.246 127.726 142.593 127.968 142.607 127.97C142.619 127.973 142.631 127.973 142.643 127.971Z" fill="white"/>
</g>
</g>
<mask id="mask15_331_3827" style="mask-type:luminance" maskUnits="userSpaceOnUse" x="-21" y="35" width="336" height="224">
<path d="M-20.5801 35.2803H314.58V258.72H-20.5801V35.2803Z" fill="white"/>
</mask>
<g mask="url(#mask15_331_3827)">
<path d="M115.075 133.824C115.447 134.047 115.342 134.483 115.342 134.483C115.342 134.483 115.688 134.467 115.937 134.687C116.222 134.939 115.952 135.497 115.952 135.497C115.952 135.497 116.305 135.553 116.544 135.812C116.793 136.081 116.6 136.682 116.6 136.682C116.6 136.682 116.9 136.915 116.947 137.287C117.026 137.924 116.265 138.542 115.786 138.94C115.307 139.338 112.443 140.605 112.126 140.768L110.098 137.991C110.098 137.991 111.242 135.442 112.95 134.341C113.474 134.004 114.658 133.574 115.075 133.824Z" fill="#FF9D83"/>
<path d="M-60.7419 129.932L181.878 -106.108L339.238 55.639L96.6177 291.678L-60.7419 129.932ZM96.6177 291.678L339.238 55.639L181.878 -106.108L-60.7419 129.932L96.6177 291.678ZM87.5205 144.525C88.7808 145.561 90.1599 146.474 91.6295 147.239C91.9965 147.431 93.5143 148.108 93.9036 148.255C93.9452 148.271 94.7282 148.555 95.0843 148.665C95.2826 148.729 95.4828 148.787 95.6836 148.845L95.7586 148.866L95.8013 148.879C95.8013 148.879 96.1209 148.957 96.2335 148.979C96.4516 149.018 96.651 149.038 96.8393 149.05C97.2088 149.069 97.5316 149.053 97.821 149.022C98.1119 148.992 98.3759 148.947 98.6244 148.897C99.0148 148.816 99.3752 148.736 99.7064 148.614C109.558 144.985 113.753 140.531 113.753 140.531L110.856 136.096C110.856 136.096 105.684 140.854 97.6596 142.91C95.6933 143.414 86.2009 135.601 86.4406 134.979L81.1948 137.033C81.1948 137.033 83.5313 140.508 84.0534 141.125C85.104 142.35 86.258 143.491 87.5205 144.525Z" fill="#FC83A1"/>
<path d="M-60.7418 129.932L181.878 -106.108L339.238 55.639L96.6178 291.678L-60.7418 129.932ZM96.6178 291.678L339.238 55.639L181.878 -106.108L-60.7418 129.932L96.6178 291.678ZM94.0277 148.302C94.3764 148.432 94.7282 148.555 95.0844 148.665C95.2827 148.729 95.7587 148.866 95.7587 148.866L95.8013 148.879L95.8902 148.902C96.0113 148.935 96.1209 148.958 96.2335 148.979C96.4516 149.018 96.651 149.039 96.8394 149.05C97.2088 149.069 97.5317 149.053 97.821 149.022C98.112 148.992 98.376 148.947 98.6244 148.897C99.0149 148.816 99.3694 148.719 99.7065 148.614C97.025 145.822 94.9494 147.303 94.0277 148.302Z" fill="#FC6682"/>
<path d="M97.084 145.81C97.0504 145.854 96.9965 145.881 96.9373 145.877C96.8419 145.872 96.7687 145.791 96.7738 145.695C96.8374 144.515 97.1715 143.103 97.1857 143.044C97.208 142.951 97.3013 142.894 97.3942 142.916C97.4873 142.938 97.5445 143.031 97.5224 143.124C97.5191 143.139 97.1814 144.565 97.1195 145.714C97.1175 145.75 97.1046 145.783 97.084 145.81Z" fill="#FC6682"/>
<path d="M96.5146 144.676C96.461 144.746 96.3624 144.765 96.2861 144.717C96.2049 144.667 96.18 144.56 96.2306 144.479C96.2515 144.445 96.7503 143.647 97.1953 143.076C97.2543 143.001 97.363 142.988 97.4383 143.046C97.5137 143.105 97.5245 143.214 97.4681 143.29C97.0349 143.844 96.5295 144.654 96.5244 144.662C96.5214 144.667 96.518 144.671 96.5146 144.676Z" fill="#FC6682"/>
<path d="M108.109 138.581C108.094 138.601 108.075 138.617 108.052 138.629C102.179 141.681 97.7319 143.159 97.4314 143.147C97.4071 143.146 97.3832 143.139 97.3615 143.129C97.0108 142.954 88.7486 138.811 86.836 135.893C86.7837 135.813 86.806 135.705 86.886 135.653C86.9659 135.6 87.0732 135.623 87.1256 135.703C88.9153 138.434 96.7894 142.452 97.4698 142.795C97.9786 142.694 102.287 141.235 107.892 138.322C107.977 138.278 108.081 138.311 108.125 138.396C108.157 138.458 108.149 138.53 108.109 138.581Z" fill="#FC6682"/>
<path d="M88.1483 136.961C88.1216 136.996 88.0817 137.02 88.035 137.027C87.9404 137.04 87.8529 136.974 87.8396 136.88L87.6911 135.822C87.6778 135.727 87.7438 135.639 87.8385 135.626C87.9331 135.613 88.0207 135.679 88.0339 135.773L88.1824 136.832C88.1891 136.879 88.1756 136.925 88.1483 136.961Z" fill="#FC6682"/>
<path d="M111.563 142.154C111.552 142.169 111.538 142.182 111.522 142.192C111.443 142.246 111.335 142.224 111.282 142.145L108.738 138.354C108.684 138.275 108.706 138.167 108.785 138.114C108.865 138.061 108.972 138.082 109.025 138.161L111.569 141.952C111.612 142.016 111.607 142.097 111.563 142.154Z" fill="#FC6682"/>
<path d="M113.122 139.802C113.11 139.818 113.095 139.831 113.078 139.842L110.958 141.213C110.878 141.265 110.771 141.242 110.719 141.162C110.667 141.081 110.69 140.974 110.77 140.922L112.89 139.552C112.971 139.5 113.078 139.522 113.13 139.603C113.171 139.666 113.165 139.746 113.122 139.802Z" fill="#FC6682"/>
<path d="M111.41 138.924C111.605 139.028 111.68 139.27 111.576 139.465C111.473 139.66 111.23 139.734 111.035 139.631C110.84 139.527 110.766 139.285 110.87 139.09C110.973 138.895 111.215 138.821 111.41 138.924Z" fill="#FC6682"/>
<path d="M84.5359 121.319C84.5359 121.319 80.9516 121.95 80.2587 125.727C79.5657 129.504 77.2078 128.448 76.3057 131.273C75.3727 134.194 77.6996 134.885 74.9598 136.823C72.2199 138.762 73.2475 143.646 79.5646 141.447C85.8815 139.249 85.6716 140.364 90.0826 141.741C94.4935 143.119 91.1419 135.884 91.2274 132.143C91.3264 127.808 93.2778 123.326 84.5359 121.319Z" fill="#291628"/>
<path d="M82.8483 217.865C83.183 219.196 83.551 220.462 83.926 221.641C84.0065 221.894 84.0855 222.142 84.1662 222.385C84.2065 222.506 84.2467 222.626 84.2856 222.744C84.3647 222.977 84.4426 223.206 84.5203 223.429C84.6216 223.721 84.723 224.006 84.823 224.281C84.8965 224.485 84.9701 224.685 85.0423 224.88C86.156 227.867 87.0892 229.76 87.0892 229.76L89.3081 229.607C89.3081 229.607 88.4749 225.644 88.3083 219.968C88.3026 219.765 88.2971 219.561 88.2929 219.354C88.2846 218.914 88.2791 218.465 88.2791 218.007C88.2791 217.82 88.2805 217.629 88.2819 217.438C88.3263 212.549 88.9317 206.771 90.8633 201.254C92.4337 196.769 93.5723 192.573 94.3957 188.78C97.0535 176.539 89.5771 170.286 89.5771 170.286L83.9454 169.957L83.3637 170.025C83.3107 175.759 83.1635 183.543 83.0345 189.629C83.0122 190.686 82.9914 191.691 82.9706 192.625C82.8845 196.533 82.8192 199.204 82.8192 199.204C80.4184 204.373 81.2904 211.668 82.8483 217.865Z" fill="#FF9D83"/>
<path d="M75.6875 216.789C76.4056 224.449 79.5659 229.403 79.5659 229.403L80.6448 230.385C80.6448 230.385 81.6278 224.776 82.3375 218.356C83.0136 212.253 83.9411 205.795 84.9896 203.823C86.5572 200.878 87.7125 194.854 88.5443 188.49C89.919 177.959 90.4064 166.494 90.4064 166.494L77.7497 165.866C76.4763 168.006 75.9223 171.516 75.7903 175.507C75.6515 179.703 75.9819 184.431 76.44 188.657C77.0802 194.572 77.9717 199.503 78.1787 200.611C78.1787 200.612 78.1787 200.614 78.18 200.616C78.2078 200.762 78.1648 200.908 78.0967 201.04C75.5778 206.025 75.2141 211.728 75.6875 216.789Z" fill="#FF9D83"/>
<path d="M94.2546 166.441C94.2546 166.441 80.464 167.623 74.3962 166.107L70.2648 217.517C70.2648 217.517 90.237 220.417 99.8255 215.946L94.2546 166.441Z" fill="#091213"/>
<path d="M85.812 231.621H87.2282C87.7028 231.546 88.053 231.409 88.5397 231.345C89.2786 231.248 89.6189 231.551 89.6865 231.621C89.6956 231.63 89.6998 231.635 89.6998 231.635H95.7162C95.8677 231.419 95.7223 230.918 95.5798 230.55C95.484 230.299 95.2752 230.109 95.0169 230.035C94.3787 229.85 93.1209 229.685 91.9691 228.643C91.3211 228.057 88.8395 226.489 88.8395 226.489L88.8265 226.486C88.7719 226.487 88.5125 226.567 87.3837 227.52C86.8002 228.012 85.806 226.826 85.806 226.826C85.806 226.826 85.6192 226.98 85.4799 227.268C85.3678 227.495 85.286 227.807 85.3506 228.191C85.4406 228.733 85.1509 229.741 84.9196 230.422C84.7792 230.835 84.6612 231.128 84.6612 231.128C84.6612 231.128 84.5935 231.468 85.812 231.621Z" fill="#091213"/>
<path d="M85.4797 227.268C85.8178 227.506 86.5317 227.975 87.005 228.037C87.6442 228.121 88.8394 226.489 88.8394 226.489L88.8264 226.486C88.7718 226.487 88.5124 226.567 87.3837 227.52C86.8 228.012 85.8058 226.826 85.8058 226.826C85.8058 226.826 85.6191 226.98 85.4797 227.268Z" fill="#466AA4"/>
<path d="M85.8119 231.619H87.2281C87.7027 231.544 88.0529 231.407 88.5395 231.344C89.2785 231.247 89.6188 231.55 89.6864 231.619C89.6955 231.628 89.6996 231.633 89.6996 231.633H95.7161C95.8676 231.417 95.7221 230.917 95.5797 230.548C95.397 230.385 95.3456 231.254 95.2448 231.392C95.1438 231.53 90.3365 231.443 90.0588 231.241C89.7812 231.039 88.9483 230.685 87.7874 230.963C86.7771 231.204 85.2878 230.586 84.9195 230.421C84.7791 230.834 84.6611 231.127 84.6611 231.127C84.6611 231.127 84.5934 231.467 85.8119 231.619Z" fill="#466AA4"/>
<path d="M78.2537 231.621H79.6699C80.1444 231.546 80.4947 231.409 80.9813 231.345C81.7202 231.248 82.0605 231.551 82.1281 231.621C82.1373 231.63 82.1412 231.635 82.1412 231.635H88.1581C88.3095 231.419 88.164 230.918 88.0217 230.55C87.9258 230.299 87.7168 230.109 87.4584 230.035C86.8204 229.85 85.5624 229.685 84.4106 228.643C83.7625 228.057 81.2812 226.489 81.2812 226.489L81.2681 226.486C81.2135 226.487 80.9539 226.567 79.8253 227.52C79.2418 228.012 78.2476 226.826 78.2476 226.826C78.2476 226.826 78.0607 226.98 77.9214 227.268C77.8095 227.495 77.7276 227.807 77.7923 228.191C77.8821 228.733 77.5924 229.741 77.3612 230.422C77.2208 230.835 77.1027 231.128 77.1027 231.128C77.1027 231.128 77.0352 231.468 78.2537 231.621Z" fill="#091213"/>
<path d="M77.9215 227.268C78.2597 227.506 78.9734 227.975 79.4468 228.037C80.0861 228.121 81.2812 226.489 81.2812 226.489L81.2682 226.486C81.2136 226.487 80.954 226.567 79.8254 227.52C79.2419 228.012 78.2476 226.826 78.2476 226.826C78.2476 226.826 78.0608 226.98 77.9215 227.268Z" fill="#466AA4"/>
<path d="M78.2537 231.619H79.6699C80.1444 231.544 80.4947 231.407 80.9813 231.344C81.7202 231.247 82.0605 231.55 82.1281 231.619C82.1373 231.628 82.1412 231.633 82.1412 231.633H88.1581C88.3095 231.417 88.164 230.917 88.0217 230.548C87.839 230.385 87.7875 231.254 87.6867 231.392C87.5856 231.53 82.7782 231.443 82.5005 231.241C82.2228 231.039 81.3901 230.685 80.2292 230.963C79.2188 231.204 77.7296 230.586 77.3612 230.421C77.2208 230.834 77.1027 231.127 77.1027 231.127C77.1027 231.127 77.0352 231.467 78.2537 231.619Z" fill="#466AA4"/>
<path d="M91.5214 167.092C88.6383 167.812 78.5858 169.376 75.675 168.161C75.5523 168.11 74.3458 152.426 75.1982 148.071C75.3048 147.527 75.3816 146.933 75.4395 146.308C75.5241 145.388 75.5677 144.4 75.6034 143.405C75.7375 139.662 75.3439 137.041 77.0083 136.255C78.5027 135.548 80.3636 135.049 81.5405 134.859C82.2696 134.742 83.4687 134.472 84.289 134.55L87.799 135.465C87.799 135.465 90.8314 136.209 91.5009 136.785C92.1698 137.361 92.3587 139.691 93.4799 141.897C94.6011 144.104 94.7197 146.24 93.3227 148.463C92.1072 150.397 92.3522 149.647 91.9638 152.942C91.4878 156.978 97.15 165.686 91.5214 167.092Z" fill="white"/>
<path d="M81.8778 141.621C81.8778 141.621 85.8091 140.914 90.66 142.204L90.5227 145.615C90.5227 145.615 85.1569 144.606 81.6836 145.216L81.8778 141.621Z" fill="#F0D4B8"/>
<path d="M86.5245 139.08C86.4728 139.076 86.42 139.071 86.3661 139.064C84.2672 138.797 82.476 136.791 82.4007 136.706C82.3478 136.646 82.3536 136.555 82.4134 136.502C82.4733 136.449 82.5647 136.455 82.6177 136.515C82.6353 136.535 84.4132 138.523 86.4028 138.777C88.3093 139.022 88.683 137.141 88.698 137.061C88.7128 136.983 88.7885 136.931 88.8666 136.945C88.9451 136.96 88.997 137.035 88.9826 137.114C88.9785 137.135 88.5668 139.234 86.5245 139.08Z" fill="#F0D4B8"/>
<path d="M79.2693 155.657C79.255 155.644 79.2428 155.629 79.2337 155.611C79.1961 155.537 79.2257 155.446 79.2999 155.409C82.165 153.957 84.838 153.57 86.5758 153.501C88.4623 153.426 89.6544 153.691 89.7043 153.703C89.7854 153.721 89.8362 153.802 89.8177 153.883C89.7993 153.964 89.7186 154.015 89.6375 153.997C89.6256 153.994 88.4258 153.727 86.5761 153.802C84.8709 153.871 82.2481 154.253 79.4362 155.678C79.3799 155.706 79.3142 155.696 79.2693 155.657Z" fill="#F0D4B8"/>
<path d="M82.6426 170.293C80.171 169.3 72.7556 169.697 72.5419 169.225C71.7261 167.421 74.6259 147.88 75.2234 145.415C75.8202 142.951 74.443 138.249 75.4928 136.684C76.5422 135.119 79.7773 134.789 79.7773 134.789C79.7773 134.789 79.3653 134.228 80.268 133.691C81.1711 133.153 83.4329 133.574 83.4329 133.574C82.7275 144.382 83.7591 162.723 82.6426 170.293Z" fill="#FC83A1"/>
<path d="M80.1299 158.817C80.0615 158.811 80.005 158.757 79.9995 158.686C79.4118 151.108 81.6129 137.104 81.6351 136.963C81.6474 136.886 81.72 136.833 81.7973 136.845C81.8744 136.858 81.9271 136.93 81.9148 137.008C81.8926 137.148 79.6968 151.12 80.2819 158.665C80.2879 158.743 80.2297 158.811 80.1517 158.817C80.1443 158.817 80.137 158.817 80.1299 158.817Z" fill="white"/>
<path d="M82.3624 160.115C82.2952 160.11 82.2392 160.057 82.2323 159.987C81.3739 151.269 82.3723 136.415 82.3825 136.266C82.3878 136.188 82.4554 136.129 82.5334 136.134C82.5337 136.134 82.534 136.134 82.5344 136.134C82.6119 136.14 82.6703 136.207 82.665 136.285C82.6549 136.434 81.658 151.265 82.5142 159.96C82.5217 160.037 82.4649 160.107 82.3871 160.114C82.3788 160.115 82.3705 160.115 82.3624 160.115Z" fill="#FC6682"/>
<path d="M81.655 136.124C81.643 136.123 81.6309 136.121 81.619 136.117C80.4496 135.709 79.7724 134.95 79.7441 134.918C79.6924 134.859 79.6981 134.77 79.7567 134.718C79.8155 134.666 79.905 134.672 79.9565 134.731C79.9631 134.738 80.6162 135.467 81.7122 135.85C81.786 135.875 81.825 135.956 81.7993 136.03C81.7777 136.092 81.7174 136.129 81.655 136.124Z" fill="#FC6682"/>
<path d="M95.4495 167.417C95.4495 167.417 91.873 168.992 87.6111 169.304C87.8155 161.035 89.0762 144.629 88.6111 134.529C88.6111 134.529 89.9118 134.399 90.3923 135.174C90.5992 135.507 90.6086 136.047 90.6086 136.047C90.6086 136.047 91.2549 136.223 91.9485 136.612C92.6421 137.001 92.525 137.455 92.6087 138.635C92.6925 139.814 94.3589 141.757 94.7612 144.249C95.1642 146.74 93.4907 148.184 92.8504 150.2C92.2101 152.217 95.4495 167.417 95.4495 167.417Z" fill="#FC83A1"/>
<path d="M90.7296 159.268C90.6535 159.262 90.5953 159.197 90.5988 159.12C91.1186 147.889 89.8263 137.72 89.8131 137.619C89.8031 137.541 89.8577 137.47 89.9354 137.46C90.0128 137.45 90.0839 137.505 90.0939 137.582C90.107 137.684 91.4027 147.876 90.8817 159.134C90.8781 159.212 90.8118 159.272 90.7338 159.268L90.7296 159.268Z" fill="white"/>
<path d="M89.2972 137.012C89.2295 137.007 89.1735 136.954 89.167 136.884C89.1598 136.806 89.2169 136.737 89.2946 136.73C89.3043 136.729 90.2202 136.633 90.4771 135.993C90.5062 135.921 90.5888 135.885 90.6612 135.915C90.7338 135.944 90.769 136.026 90.7399 136.099C90.4181 136.9 89.3658 137.007 89.3211 137.012C89.3131 137.012 89.305 137.012 89.2972 137.012Z" fill="#FC6682"/>
<path d="M90.4007 159.244C90.3301 159.239 90.2733 159.182 90.27 159.109C89.8989 150.772 89.324 137.448 89.3183 137.315C89.3148 137.237 89.3755 137.171 89.4535 137.167C89.5311 137.164 89.5977 137.224 89.6011 137.303C89.6069 137.436 90.1818 150.76 90.553 159.097C90.5564 159.175 90.4959 159.241 90.4178 159.244C90.4121 159.245 90.4063 159.244 90.4007 159.244Z" fill="#FC6682"/>
<path d="M88.6449 133.279L88.6718 135.872C88.6718 135.872 87.01 138.118 83.3794 134.741C83.3633 133.566 83.6151 132.589 83.5779 131.694C83.5779 131.694 83.8795 131.91 84.3823 132.15C84.485 132.2 84.5954 132.251 84.7127 132.305C85.75 132.773 87.314 133.346 88.6449 133.279Z" fill="#FF9D83"/>
<path d="M88.645 133.28L88.6578 134.521C87.5237 134.236 85.4928 133.567 84.3822 132.151C84.485 132.201 84.5955 132.252 84.7128 132.306C85.7501 132.774 87.314 133.347 88.645 133.28Z" fill="#291628"/>
<mask id="mask16_331_3827" style="mask-type:luminance" maskUnits="userSpaceOnUse" x="-31" y="26" width="355" height="250">
<path d="M-14.418 26.501L323.248 50.1762L307.465 275.287L-30.2014 251.612L-14.418 26.501Z" fill="white"/>
</mask>
<g mask="url(#mask16_331_3827)">
<path d="M83.9261 131.829C83.9261 131.829 80.6458 130.207 81.0844 126.46C81.5231 122.714 83.8549 120.354 87.6596 121.241C87.6596 121.241 87.8409 131.998 83.9261 131.829Z" fill="#291628"/>
<path d="M92.4498 124.549C92.4498 124.549 92.9372 127.722 92.3795 128.213C91.8216 128.703 91.1881 127.472 91.1881 127.472C91.1881 127.472 91.8373 124.615 92.4498 124.549Z" fill="#291628"/>
<path d="M91.1813 128.564C91.1813 128.564 92.09 127.68 92.457 128.688C92.8241 129.696 92.2798 131.611 91.0704 131.172L91.1813 128.564Z" fill="#FF7C64"/>
<path d="M91.9966 128.641C91.9692 128.915 91.9419 129.174 91.914 129.419C91.7067 131.252 91.4817 132.246 90.9965 132.659C88.5397 134.75 83.8553 131.513 83.7048 131.408C83.7022 131.407 83.701 131.405 83.701 131.405C83.6756 131.194 83.6547 130.985 83.637 130.779C83.4886 129.031 83.6242 127.434 83.9464 125.936C84.0184 124.33 85.1146 122.935 86.671 122.533C88.2837 122.117 89.614 122.938 90.4281 123.278C91.6571 123.793 92.2948 125.507 92.0745 127.841C92.0479 128.121 92.0226 128.388 91.9966 128.641Z" fill="#FF9D83"/>
<path d="M88.2383 128.667C88.2173 128.883 87.7553 129.015 87.2064 128.961C86.6573 128.908 86.2295 128.689 86.2505 128.473C86.2716 128.257 86.7336 128.126 87.2825 128.179C87.8314 128.232 88.2593 128.451 88.2383 128.667Z" fill="#FF7C64"/>
<path d="M87.4458 129.644C86.5055 129.339 85.9891 128.325 86.2946 127.385C86.6002 126.444 87.6136 125.928 88.554 126.233C89.4942 126.539 90.0106 127.553 89.7051 128.493C89.3996 129.433 88.3861 129.95 87.4458 129.644ZM88.4731 126.482C87.6701 126.221 86.8044 126.662 86.5435 127.466C86.2826 128.268 86.7236 129.134 87.5268 129.395C88.3297 129.656 89.1953 129.215 89.4562 128.412C89.7171 127.609 89.2761 126.743 88.4731 126.482Z" fill="white"/>
<path d="M86.3629 127.621C86.3468 127.621 86.3305 127.618 86.3148 127.612C85.3233 127.217 84.4311 127.602 84.4222 127.606C84.3561 127.635 84.2787 127.605 84.2497 127.539C84.2204 127.473 84.2502 127.395 84.3164 127.366C84.3568 127.348 85.3191 126.933 86.4116 127.368C86.4788 127.395 86.5116 127.471 86.4848 127.538C86.4644 127.59 86.415 127.621 86.3629 127.621Z" fill="white"/>
<path d="M91.4306 129.891C90.4904 129.586 89.9739 128.572 90.2795 127.632C90.5848 126.691 91.5985 126.175 92.5388 126.48C93.479 126.786 93.9954 127.8 93.6899 128.74C93.3844 129.68 92.371 130.197 91.4306 129.891ZM92.4579 126.729C91.6549 126.469 90.7892 126.91 90.5284 127.713C90.2675 128.516 90.7085 129.381 91.5115 129.642C92.3146 129.903 93.1802 129.462 93.4411 128.659C93.7019 127.856 93.2609 126.99 92.4579 126.729Z" fill="white"/>
<path d="M89.5823 127.74C89.562 127.73 89.5441 127.716 89.5304 127.696C89.4889 127.637 89.5032 127.555 89.5623 127.514C89.58 127.501 90.0023 127.213 90.4726 127.538C90.5319 127.579 90.5468 127.66 90.5058 127.72C90.4648 127.779 90.3835 127.794 90.3238 127.753C90.0017 127.531 89.7154 127.726 89.7125 127.728C89.6729 127.756 89.6233 127.759 89.5823 127.74Z" fill="white"/>
<path d="M91.9966 128.639C91.9692 128.914 91.9419 129.173 91.914 129.417C91.4119 129.349 91.0351 129.144 91.0549 128.94C91.0747 128.737 91.4882 128.608 91.9966 128.639Z" fill="#FF7C64"/>
<path d="M84.7876 130.298C84.7702 130.329 84.2919 131.196 83.7048 131.407C83.7044 131.407 83.7044 131.408 83.7038 131.408C83.702 131.406 83.7012 131.404 83.7012 131.404C83.6754 131.194 83.6543 130.984 83.6369 130.778C83.6582 130.777 84.2344 130.733 84.7876 130.298Z" fill="#291628"/>
<path d="M84.4446 128.184C84.4446 128.184 83.4134 126.475 82.4222 127.643C81.6055 128.605 82.6868 131.484 84.2348 130.621L84.4446 128.184Z" fill="#FF9D83"/>
<path d="M84.0897 130.145C84.0283 130.139 83.9797 130.088 83.979 130.025C83.9645 128.806 82.995 128.287 82.9538 128.265C82.8938 128.234 82.8704 128.16 82.9015 128.1C82.9325 128.04 83.0064 128.016 83.0666 128.047C83.1132 128.071 84.208 128.652 84.2243 130.022C84.2251 130.089 84.171 130.145 84.1033 130.146C84.0987 130.146 84.0942 130.146 84.0897 130.145Z" fill="#291628"/>
<path d="M83.0225 129.295C82.987 129.292 82.9534 129.273 82.9321 129.241C82.8947 129.184 82.9101 129.108 82.9664 129.071C83.0191 129.036 83.4901 128.734 83.8479 128.863C83.9116 128.886 83.9445 128.957 83.9214 129.02C83.8983 129.084 83.8278 129.117 83.7644 129.094C83.559 129.02 83.2086 129.204 83.1022 129.275C83.0777 129.291 83.0496 129.298 83.0225 129.295Z" fill="#291628"/>
<path d="M85.4031 124.809C85.4031 124.809 84.2556 126.172 84.7621 127.553C85.2685 128.933 85.3551 130.055 84.9393 130.831C84.9393 130.831 84.747 129.361 84.1501 128.269C83.66 127.373 83.2104 126.694 83.4769 125.618C83.6598 124.879 84.1562 124.153 85.4031 124.809Z" fill="#291628"/>
<path d="M90.236 121.675C91.3482 122.109 92.2488 122.971 92.687 124.082C92.9616 124.778 93.2091 125.702 92.2076 125.632C89.4757 125.44 87.8798 122.696 87.8798 122.696C87.8798 122.696 87.4829 125.32 85.3341 125.111C83.1856 124.901 83.1718 123.29 84.3376 122.319C85.2879 121.527 87.7681 120.71 90.236 121.675Z" fill="#291628"/>
<path d="M89.7651 130.473C89.0107 130.4 88.4003 129.8 88.3915 129.791C88.3436 129.743 88.3437 129.665 88.3916 129.617C88.4395 129.57 88.517 129.57 88.5649 129.617C88.6112 129.664 89.7075 130.737 90.6851 129.952C90.7378 129.909 90.8149 129.918 90.8574 129.97C90.8998 130.023 90.8916 130.1 90.8387 130.143C90.4797 130.432 90.1075 130.507 89.7651 130.473Z" fill="#291628"/>
<path d="M88.7096 125.37C88.7096 125.37 89.1682 125.461 88.9644 125.87C88.7604 126.278 87.8768 125.72 87.1359 126.437C87.1359 126.437 86.9523 125.392 88.7096 125.37Z" fill="#291628"/>
<path d="M90.8082 125.574C90.8082 125.574 90.3407 125.575 90.4619 126.015C90.5833 126.455 91.5579 126.078 92.1466 126.925C92.1466 126.925 92.5285 125.934 90.8082 125.574Z" fill="#291628"/>
<path d="M90.0383 128.784C89.8859 128.769 89.683 128.722 89.4875 128.591C89.4313 128.553 89.4162 128.477 89.4539 128.421C89.4917 128.364 89.5679 128.349 89.6241 128.387C89.8033 128.507 89.9915 128.538 90.1138 128.544L89.8237 127.352C89.8076 127.286 89.848 127.22 89.9138 127.204C89.9796 127.188 90.046 127.228 90.062 127.294L90.3877 128.632C90.3959 128.666 90.3897 128.701 90.3706 128.729C90.3514 128.758 90.3213 128.777 90.2874 128.782C90.2791 128.784 90.1806 128.798 90.0383 128.784Z" fill="#291628"/>
<path d="M88.4743 128.066C88.4454 128.363 88.2875 128.591 88.1214 128.574C87.9554 128.558 87.8442 128.305 87.8731 128.008C87.9019 127.711 88.0601 127.484 88.2261 127.5C88.392 127.516 88.5032 127.77 88.4743 128.066Z" fill="#291628"/>
<path d="M91.4101 128.351C91.3812 128.648 91.2231 128.876 91.0571 128.86C90.8911 128.843 90.7798 128.59 90.8088 128.293C90.8376 127.996 90.9956 127.769 91.1617 127.785C91.3277 127.801 91.439 128.055 91.4101 128.351Z" fill="#291628"/>
</g>
<path d="M91.3735 152.972L91.2526 154.698L94.9827 154.528L95.0479 152.848L91.3735 152.972Z" fill="#1B1B43"/>
<path d="M83.2514 169.716L85.7166 154.311L97.8641 153.692L95.0013 169.008L83.2514 169.716Z" fill="#5253CF"/>
<path d="M96.4549 164.528C96.4766 164.961 96.0559 165.117 96.0559 165.117C96.0559 165.117 96.2617 165.395 96.2171 165.724C96.166 166.101 95.5521 166.187 95.5521 166.187C95.5521 166.187 95.7021 166.511 95.62 166.854C95.5348 167.21 94.9277 167.385 94.9277 167.385C94.9277 167.385 94.9013 167.764 94.6175 168.009C94.1324 168.429 93.1959 168.141 92.5986 167.964C92.0014 167.786 89.3554 166.111 89.0438 165.938L90.224 162.709C90.224 162.709 92.9786 162.242 94.8431 163.049C95.4149 163.297 96.4306 164.042 96.4549 164.528Z" fill="#FF9D83"/>
<path d="M72.4431 146.687C72.1989 148.3 72.1203 149.952 72.2151 151.606C72.2381 152.02 72.4334 153.67 72.506 154.08C72.5137 154.124 72.671 154.942 72.7582 155.304C72.8045 155.507 72.8573 155.709 72.9106 155.911L72.9306 155.986L72.9416 156.029C72.9416 156.029 73.0377 156.344 73.077 156.452C73.1551 156.659 73.2395 156.841 73.3261 157.009C73.4986 157.336 73.6779 157.605 73.8521 157.838C74.0271 158.072 74.2008 158.276 74.3714 158.464C74.6406 158.758 74.8934 159.027 75.1677 159.249C83.3285 165.854 89.3018 167.178 89.3018 167.178L91.6287 162.419C91.6287 162.419 84.8941 160.412 79.0203 154.571C77.5809 153.139 79.4346 140.985 80.0917 140.873L75.6414 137.418C75.6414 137.418 73.8522 141.204 73.5899 141.968C73.0754 143.497 72.6854 145.073 72.4431 146.687Z" fill="#FC83A1"/>
<path d="M72.5298 154.21C72.5965 154.577 72.6711 154.942 72.7584 155.304C72.8047 155.507 72.9308 155.986 72.9308 155.986L72.9417 156.03L72.9671 156.118C73.001 156.239 73.0378 156.344 73.0771 156.452C73.1551 156.659 73.2396 156.841 73.3263 157.009C73.4986 157.336 73.678 157.605 73.8523 157.838C74.0273 158.072 74.2009 158.276 74.3715 158.464C74.6406 158.758 74.9054 159.013 75.1679 159.249C76.194 155.516 73.8592 154.491 72.5298 154.21Z" fill="#FC6682"/>
<path d="M76.2351 155.56C76.1804 155.554 76.1297 155.521 76.1022 155.469C76.0577 155.384 76.0902 155.28 76.1749 155.235C77.2214 154.686 78.6049 154.25 78.6633 154.232C78.7545 154.204 78.8517 154.254 78.8802 154.345C78.9087 154.437 78.8579 154.534 78.7667 154.562C78.7526 154.567 77.3542 155.007 76.3359 155.542C76.3037 155.559 76.2686 155.564 76.2351 155.56Z" fill="#FC6682"/>
<path d="M76.9174 154.491C76.8301 154.48 76.7632 154.406 76.7649 154.316C76.7668 154.22 76.8457 154.144 76.9415 154.146C76.9811 154.147 77.9223 154.166 78.6401 154.257C78.735 154.269 78.8021 154.356 78.7901 154.45C78.7781 154.545 78.6904 154.61 78.5965 154.6C77.898 154.512 76.9443 154.492 76.9346 154.492C76.9289 154.492 76.9231 154.491 76.9174 154.491Z" fill="#FC6682"/>
<path d="M88.0878 161.332C88.0636 161.329 88.0394 161.321 88.0172 161.307C82.3895 157.824 78.8431 154.76 78.7004 154.496C78.6889 154.474 78.6819 154.451 78.6801 154.426C78.6508 154.036 77.9803 144.818 79.5088 141.68C79.5506 141.595 79.6542 141.559 79.7403 141.601C79.8263 141.643 79.8618 141.746 79.8199 141.832C78.3898 144.768 78.9686 153.589 79.0217 154.349C79.3694 154.734 82.8277 157.688 88.1995 161.013C88.2807 161.063 88.3058 161.17 88.2555 161.251C88.2188 161.31 88.1525 161.339 88.0878 161.332Z" fill="#FC6682"/>
<path d="M79.2633 143.354C79.2198 143.349 79.1782 143.327 79.1486 143.291C79.0887 143.216 79.1007 143.107 79.1752 143.047L80.0081 142.378C80.0827 142.318 80.1917 142.33 80.2515 142.405C80.3113 142.479 80.2995 142.588 80.2249 142.648L79.392 143.317C79.3543 143.348 79.3078 143.359 79.2633 143.354Z" fill="#FC6682"/>
<path d="M86.7859 166.128C86.7679 166.126 86.7497 166.121 86.7323 166.113C86.6458 166.072 86.609 165.969 86.6499 165.882L88.6044 161.756C88.6454 161.67 88.7485 161.633 88.835 161.674C88.9213 161.715 88.9581 161.818 88.9172 161.905L86.9628 166.031C86.9301 166.1 86.8578 166.137 86.7859 166.128Z" fill="#FC6682"/>
<path d="M89.6051 166.262C89.5861 166.26 89.567 166.255 89.5488 166.245L87.286 165.126C87.2002 165.084 87.1652 164.98 87.2075 164.894C87.25 164.808 87.3539 164.773 87.4394 164.816L89.7023 165.935C89.788 165.978 89.8232 166.081 89.7807 166.167C89.7473 166.235 89.6759 166.271 89.6051 166.262Z" fill="#FC6682"/>
<path d="M89.4829 164.343C89.4939 164.564 89.3239 164.751 89.1032 164.763C88.8826 164.773 88.6949 164.603 88.6839 164.383C88.6731 164.162 88.843 163.975 89.0636 163.964C89.2842 163.953 89.4719 164.123 89.4829 164.343Z" fill="#FC6682"/>
</g>
</g>
</g>
</svg>
