<svg width="273" height="273" viewBox="0 0 273 273" fill="none" xmlns="http://www.w3.org/2000/svg">
<g clip-path="url(#clip0_331_3829)">
<mask id="mask0_331_3829" style="mask-type:luminance" maskUnits="userSpaceOnUse" x="0" y="0" width="273" height="273">
<path d="M273 0H0V273H273V0Z" fill="white"/>
</mask>
<g mask="url(#mask0_331_3829)">
<path d="M149.511 203.344L162.836 145.627L58.1996 121.47L44.8748 179.186L149.511 203.344Z" fill="#FEFEFE"/>
<path d="M149.511 203.344L162.836 145.627L58.1996 121.47L44.8748 179.186L149.511 203.344Z" stroke="#010102" stroke-width="0.0404444" stroke-miterlimit="10"/>
<path d="M56.1565 117.96C70.7729 121.329 85.3891 124.697 100.005 128.068C110 130.373 119.991 132.695 129.993 134.968C130.855 135.164 130.991 135.451 130.783 136.265C130.22 138.466 130.258 138.476 128.051 137.966C105.34 132.723 82.6276 127.487 59.9244 122.211C58.8982 121.973 58.5891 122.139 58.35 123.186C54.2102 141.284 50.0307 159.373 45.8267 177.457C45.6082 178.398 45.7229 178.739 46.7398 178.973C80.4907 186.733 114.235 194.524 147.972 202.342C148.919 202.562 149.19 202.391 149.407 201.445C153.568 183.276 157.762 165.114 161.982 146.959C162.186 146.084 162.058 145.789 161.145 145.582C152.646 143.661 144.163 141.673 135.666 139.744C134.842 139.557 134.629 139.313 134.849 138.461C135.422 136.246 135.378 136.234 137.575 136.741C146.781 138.867 155.985 141.004 165.198 143.098C166.029 143.287 166.202 143.533 166.005 144.379C161.274 164.755 156.57 185.138 151.881 205.525C151.707 206.282 151.553 206.595 150.633 206.381C114.46 198 78.2786 189.651 42.0992 181.298C41.9203 181.257 41.7435 181.206 41.5658 181.16C46.4293 160.093 51.2929 139.027 56.1565 117.96Z" fill="#0B9DB0"/>
<path d="M109.718 137.164C121.716 139.934 133.712 142.715 145.717 145.454C146.642 145.664 146.998 145.9 146.958 146.981C146.745 152.83 149.351 156.854 154.805 159.216C155.463 159.502 155.585 159.758 155.431 160.417C153.403 169.115 151.393 177.818 149.404 186.526C149.251 187.195 149.016 187.366 148.308 187.32C143.587 187.01 139.763 188.696 137.057 192.645C136.503 193.454 136.072 194.368 135.712 195.284C135.478 195.879 135.196 196.011 134.649 195.813C134.477 195.752 134.292 195.728 134.112 195.686C110.081 190.138 86.05 184.587 62.0144 179.055C61.167 178.86 60.7766 178.676 60.8221 177.602C61.0686 171.759 58.4508 167.69 53.0299 165.332C52.3532 165.038 52.1907 164.78 52.3599 164.058C54.3873 155.396 56.3887 146.729 58.3621 138.056C58.529 137.324 58.8002 137.179 59.5288 137.211C65.4305 137.466 69.5572 134.946 71.9179 129.596C72.295 128.741 72.6187 128.573 73.5147 128.782C85.5763 131.602 97.6487 134.378 109.718 137.164ZM82.0928 157.227C79.3155 169.219 86.8018 181.221 98.8274 184.057C110.774 186.875 122.784 179.405 125.678 167.355C128.544 155.422 120.914 143.189 108.902 140.459C96.8656 137.723 84.872 145.225 82.0928 157.227ZM121.397 143.331C128.314 150.476 131.116 158.632 128.941 168.057C126.763 177.489 120.637 183.59 111.469 186.908C111.783 187.028 111.883 187.079 111.988 187.104C118.9 188.702 125.814 190.289 132.72 191.91C133.371 192.063 133.611 191.81 133.92 191.317C136.619 186.996 140.504 184.521 145.584 184.006C146.292 183.935 146.573 183.701 146.73 183.008C148.291 176.126 149.882 169.25 151.488 162.378C151.632 161.761 151.574 161.421 150.971 161.05C146.588 158.355 144.137 154.41 143.621 149.295C143.552 148.607 143.305 148.371 142.671 148.229C138.797 147.363 134.932 146.456 131.064 145.563C127.951 144.845 124.838 144.126 121.397 143.331ZM96.3823 137.645C95.9829 137.503 95.8296 137.432 95.6684 137.394C88.7927 135.804 81.9137 134.227 75.0435 132.613C74.3765 132.456 74.1539 132.75 73.8536 133.229C71.1473 137.548 67.2578 140.015 62.1785 140.524C61.4523 140.596 61.2034 140.864 61.0498 141.54C59.4954 148.386 57.9196 155.228 56.3081 162.061C56.1347 162.795 56.274 163.152 56.9193 163.553C61.1804 166.201 63.5929 170.05 64.133 175.036C64.2166 175.806 64.4341 176.156 65.2379 176.337C71.9078 177.837 78.5651 179.393 85.2284 180.923C85.5162 180.989 85.8211 181.181 86.163 180.982C71.9624 167.167 77.4349 143.898 96.3823 137.645Z" fill="#7F7F7F"/>
<path d="M100.804 168.101C101.102 166.812 101.364 165.513 101.712 164.237C101.886 163.6 101.722 163.365 101.109 163.13C98.9794 162.311 97.165 161.087 95.981 159.033C93.8906 155.405 95.5155 148.244 102.089 147.577C102.96 147.489 103.854 147.454 104.72 147.553C105.411 147.632 105.628 147.4 105.736 146.785C105.875 145.989 106.11 145.211 106.264 144.417C106.354 143.953 106.559 143.776 107.016 143.941C107.05 143.954 107.087 143.96 107.123 143.967C109.745 144.441 109.796 144.455 109.117 147.051C108.853 148.059 109.027 148.461 110.044 148.878C113.278 150.208 115.503 152.408 115.595 156.182C115.644 158.222 115.61 158.261 113.662 157.811C113.34 157.737 113.02 157.644 112.694 157.592C112.243 157.521 112.133 157.315 112.167 156.841C112.341 154.435 110.924 152.501 108.603 151.823C108.146 151.69 108.031 151.841 107.942 152.236C107.315 154.996 106.689 157.757 106.024 160.508C105.888 161.071 106.151 161.181 106.575 161.348C108.733 162.2 110.597 163.405 111.802 165.496C113.892 169.125 112.268 176.285 105.695 176.952C104.824 177.04 103.929 177.076 103.063 176.976C102.372 176.897 102.155 177.129 102.047 177.744C101.908 178.54 101.673 179.318 101.519 180.112C101.429 180.576 101.225 180.754 100.767 180.588C100.733 180.575 100.696 180.569 100.66 180.563C98.0374 180.088 97.9869 180.075 98.666 177.478C98.9298 176.471 98.7565 176.069 97.7398 175.651C94.5052 174.321 92.2806 172.122 92.1886 168.347C92.1387 166.307 92.1726 166.268 94.1209 166.718C94.4432 166.792 94.7625 166.885 95.0886 166.937C95.5411 167.008 95.6498 167.215 95.6164 167.689C95.4458 170.098 96.8611 172.022 99.1796 172.708C99.7627 172.881 99.7785 172.552 99.8624 172.185C100.173 170.823 100.49 169.462 100.804 168.101ZM104.086 168.957C103.781 170.28 103.467 171.602 103.177 172.929C103.117 173.202 102.861 173.531 103.416 173.697C105.513 174.322 108.265 172.891 108.961 170.803C110.081 167.45 108.243 165.626 105.623 164.539C105.115 164.328 105.079 164.654 105.003 164.986C104.698 166.309 104.392 167.633 104.086 168.957ZM103.702 155.548C104.008 154.224 104.32 152.902 104.614 151.576C104.677 151.291 104.901 150.972 104.342 150.827C102.509 150.352 99.9333 151.346 99.1233 153.049C97.5593 156.337 98.8952 158.686 102.184 159.999C102.72 160.213 102.712 159.824 102.783 159.518C103.094 158.196 103.396 156.872 103.702 155.548Z" fill="#7F7F7F"/>
<path d="M140.287 164.952C143.288 165.64 145.196 168.679 144.495 171.656C143.794 174.638 140.746 176.507 137.75 175.793C134.802 175.091 132.932 172.117 133.579 169.157C134.229 166.186 137.293 164.266 140.287 164.952ZM136.899 169.898C136.641 171.048 137.369 172.235 138.51 172.521C139.678 172.815 140.95 172.035 141.21 170.866C141.472 169.691 140.662 168.451 139.477 168.217C138.322 167.988 137.157 168.748 136.899 169.898Z" fill="#7F7F7F"/>
<path d="M69.9882 148.723C72.9839 149.413 74.8981 152.471 74.1891 155.434C73.4754 158.419 70.4303 160.278 67.4343 159.559C64.4831 158.85 62.6182 155.871 63.2774 152.918C63.9436 149.934 66.9865 148.032 69.9882 148.723ZM68.2638 156.306C69.41 156.557 70.5928 155.817 70.8745 154.672C71.1661 153.488 70.396 152.25 69.2078 151.992C68.0673 151.745 66.8639 152.492 66.582 153.621C66.2933 154.78 67.0876 156.048 68.2638 156.306Z" fill="#7F7F7F"/>
<path d="M141.711 210.632L164.856 156.106L66.0036 114.146L42.8588 168.672L141.711 210.632Z" fill="#FEFEFE"/>
<path d="M141.711 210.632L164.856 156.106L66.0036 114.146L42.8588 168.672L141.711 210.632Z" stroke="#010102" stroke-width="0.0404444" stroke-miterlimit="10"/>
<path d="M64.6011 110.333C78.4104 116.189 92.2198 122.044 106.028 127.902C115.471 131.908 124.907 135.929 134.362 139.904C135.177 140.247 135.262 140.553 134.915 141.319C133.979 143.389 134.014 143.405 131.93 142.52C110.474 133.413 89.0157 124.312 67.5736 115.174C66.6044 114.761 66.2711 114.871 65.854 115.86C58.6343 132.965 51.3771 150.054 44.0967 167.133C43.7181 168.022 43.7719 168.377 44.7328 168.784C76.6234 182.287 108.502 195.819 140.369 209.377C141.264 209.758 141.56 209.637 141.938 208.743C149.19 191.572 156.475 174.415 163.784 157.268C164.136 156.441 164.062 156.129 163.198 155.767C155.162 152.399 147.153 148.969 139.12 145.593C138.341 145.266 138.173 144.988 138.538 144.188C139.487 142.105 139.446 142.086 141.521 142.967C150.219 146.659 158.911 150.362 167.621 154.024C168.406 154.354 168.534 154.627 168.194 155.426C159.995 174.671 151.824 193.928 143.666 213.19C143.363 213.906 143.157 214.187 142.288 213.817C108.12 199.281 73.9381 184.777 39.7589 170.268C39.5899 170.196 39.4246 170.116 39.2576 170.039C47.7054 150.137 56.1532 130.235 64.6011 110.333Z" fill="#12B6CB"/>
<path d="M114.014 138.547C125.349 143.359 136.679 148.18 148.026 152.962C148.901 153.33 149.21 153.624 148.984 154.681C147.759 160.405 149.626 164.82 154.587 168.094C155.185 168.489 155.261 168.762 154.995 169.384C151.487 177.598 147.996 185.82 144.526 194.05C144.259 194.683 143.998 194.81 143.309 194.642C138.713 193.517 134.654 194.513 131.304 197.932C130.617 198.633 130.034 199.458 129.52 200.298C129.187 200.843 128.886 200.924 128.382 200.634C128.223 200.544 128.045 200.488 127.876 200.416C105.173 190.779 82.4708 181.139 59.7609 171.518C58.9602 171.179 58.6077 170.93 58.839 169.88C60.0964 164.168 58.2251 159.706 53.2958 156.443C52.6806 156.036 52.5653 155.754 52.8574 155.072C56.358 146.894 59.8341 138.706 63.2835 130.507C63.575 129.816 63.8671 129.72 64.5792 129.878C70.347 131.154 74.8487 129.388 78.1024 124.53C78.6223 123.754 78.9703 123.644 79.8164 124.006C91.205 128.878 102.612 133.707 114.014 138.547ZM83.3247 153.508C78.5073 164.835 83.7957 177.955 95.146 182.836C106.422 187.686 119.547 182.415 124.489 171.051C129.384 159.796 123.994 146.425 112.638 141.65C101.26 136.866 88.1459 142.171 83.3247 153.508ZM124.445 146.649C130.016 154.886 131.36 163.405 127.58 172.309C123.798 181.219 116.706 186.163 107.101 187.839C107.389 188.012 107.478 188.08 107.577 188.122C114.107 190.896 120.64 193.66 127.16 196.455C127.775 196.719 128.055 196.512 128.445 196.079C131.854 192.293 136.109 190.53 141.202 190.906C141.911 190.958 142.228 190.776 142.503 190.121C145.235 183.615 147.996 177.12 150.771 170.631C151.02 170.049 151.022 169.703 150.492 169.233C146.644 165.818 144.915 161.507 145.296 156.381C145.347 155.692 145.145 155.416 144.545 155.166C140.88 153.64 137.232 152.076 133.577 150.525C130.636 149.277 127.695 148.028 124.445 146.649ZM100.797 136.705C100.429 136.496 100.29 136.399 100.138 136.334C93.6429 133.574 87.1423 130.826 80.6566 128.044C80.027 127.774 79.7567 128.025 79.3778 128.444C75.9627 132.227 71.7038 133.982 66.6134 133.6C65.8857 133.546 65.5942 133.766 65.3254 134.405C62.6058 140.877 59.8659 147.342 57.0923 153.791C56.7941 154.484 56.8693 154.86 57.4351 155.367C61.1717 158.714 62.8791 162.924 62.5453 167.927C62.4939 168.701 62.6473 169.083 63.4075 169.401C69.7156 172.036 76.0015 174.725 82.2979 177.389C82.5698 177.504 82.8368 177.745 83.2081 177.609C71.6222 161.538 81.0521 139.573 100.797 136.705Z" fill="#7F7F7F"/>
<path d="M99.8633 167.466C100.38 166.248 100.864 165.014 101.429 163.819C101.711 163.221 101.59 162.961 101.027 162.624C99.0718 161.447 97.4976 159.927 96.6884 157.698C95.2598 153.762 98.1033 146.992 104.693 147.477C105.566 147.541 106.453 147.662 107.288 147.91C107.955 148.108 108.209 147.917 108.422 147.33C108.697 146.571 109.064 145.845 109.353 145.09C109.522 144.649 109.755 144.509 110.176 144.752C110.208 144.77 110.243 144.783 110.277 144.795C112.778 145.718 112.825 145.74 111.705 148.179C111.271 149.126 111.372 149.552 112.301 150.14C115.255 152.011 117.064 154.564 116.499 158.297C116.194 160.313 116.153 160.346 114.313 159.565C114.008 159.436 113.71 159.289 113.398 159.182C112.966 159.033 112.893 158.81 113.009 158.35C113.598 156.01 112.539 153.86 110.37 152.79C109.944 152.58 109.804 152.708 109.648 153.081C108.551 155.691 107.455 158.301 106.323 160.895C106.091 161.425 106.331 161.579 106.719 161.817C108.696 163.031 110.323 164.541 111.147 166.81C112.575 170.747 109.732 177.516 103.143 177.032C102.27 176.967 101.382 176.847 100.547 176.599C99.8802 176.4 99.6257 176.591 99.4129 177.178C99.1376 177.938 98.7711 178.663 98.482 179.418C98.313 179.86 98.0806 179.999 97.6591 179.757C97.6273 179.738 97.592 179.726 97.5575 179.713C95.0573 178.79 95.0099 178.769 96.1296 176.329C96.5642 175.383 96.4634 174.957 95.5348 174.369C92.5802 172.498 90.7713 169.945 91.3361 166.212C91.6414 164.194 91.6814 164.162 93.522 164.943C93.8266 165.072 94.1248 165.22 94.437 165.327C94.8703 165.475 94.9413 165.698 94.8263 166.159C94.2398 168.502 95.2995 170.643 97.4637 171.721C98.0079 171.992 98.0805 171.671 98.2269 171.324C98.7698 170.037 99.3175 168.752 99.8633 167.466ZM102.947 168.878C102.417 170.129 101.878 171.376 101.362 172.633C101.255 172.891 100.946 173.171 101.464 173.43C103.42 174.41 106.379 173.479 107.427 171.544C109.112 168.435 107.619 166.321 105.228 164.795C104.764 164.498 104.672 164.814 104.539 165.127C104.01 166.378 103.479 167.628 102.947 168.878ZM104.897 155.607C105.428 154.356 105.965 153.108 106.485 151.853C106.596 151.584 106.872 151.309 106.347 151.069C104.624 150.283 101.915 150.814 100.822 152.35C98.7108 155.317 99.6185 157.862 102.629 159.726C103.12 160.03 103.179 159.646 103.303 159.357C103.838 158.109 104.366 156.857 104.897 155.607Z" fill="#7F7F7F"/>
<path d="M139.294 171.222C142.129 172.42 143.48 175.745 142.274 178.554C141.065 181.369 137.739 182.681 134.912 181.458C132.131 180.254 130.806 177 131.957 174.198C133.113 171.385 136.464 170.026 139.294 171.222ZM135.098 175.504C134.644 176.592 135.155 177.888 136.229 178.367C137.328 178.859 138.716 178.312 139.176 177.207C139.638 176.094 139.055 174.733 137.929 174.296C136.832 173.87 135.551 174.416 135.098 175.504Z" fill="#7F7F7F"/>
<path d="M72.8808 143.031C75.7112 144.231 77.0654 147.574 75.8526 150.369C74.6314 153.185 71.3097 154.487 68.4841 153.258C65.7009 152.048 64.3816 148.79 65.5435 145.997C66.7177 143.174 70.0448 141.829 72.8808 143.031ZM69.866 150.199C70.951 150.645 72.2444 150.122 72.7206 149.043C73.2134 147.928 72.6701 146.575 71.5446 146.115C70.4644 145.673 69.1496 146.199 68.676 147.262C68.1903 148.354 68.7524 149.74 69.866 150.199Z" fill="#7F7F7F"/>
<path d="M132.763 216.456L165.025 166.778L74.9606 108.29L42.6991 157.968L132.763 216.456Z" fill="#FEFEFE"/>
<path d="M132.763 216.456L165.025 166.778L74.9606 108.29L42.6991 157.968L132.763 216.456Z" stroke="#010102" stroke-width="0.0404444" stroke-miterlimit="10"/>
<path d="M74.2414 104.292C86.8241 112.457 99.407 120.621 111.988 128.787C120.592 134.372 129.187 139.97 137.808 145.527C138.551 146.006 138.581 146.323 138.107 147.017C136.825 148.892 136.857 148.914 134.958 147.681C115.41 134.986 95.8577 122.298 76.3281 109.575C75.4454 109 75.0981 109.051 74.5155 109.952C64.4352 125.544 54.3209 141.112 44.1854 156.668C43.6582 157.477 43.6494 157.837 44.5251 158.404C73.5864 177.24 102.631 196.102 131.659 214.988C132.475 215.518 132.787 215.45 133.314 214.635C143.439 198.985 153.592 183.354 163.767 167.737C164.258 166.983 164.239 166.663 163.451 166.156C156.122 161.444 148.83 156.675 141.505 151.956C140.795 151.499 140.678 151.196 141.177 150.471C142.473 148.585 142.435 148.559 144.326 149.787C152.25 154.933 160.168 160.089 168.109 165.208C168.825 165.67 168.904 165.96 168.43 166.688C157.014 184.217 145.623 201.762 134.245 219.316C133.822 219.968 133.57 220.208 132.778 219.693C101.653 199.445 70.5096 179.226 39.3691 159.002C39.2151 158.902 39.0663 158.794 38.9152 158.69C50.6906 140.557 62.4659 122.425 74.2414 104.292Z" fill="#10909F"/>
<path d="M118.005 140.657C128.332 147.364 138.653 154.079 148.997 160.759C149.794 161.273 150.048 161.617 149.641 162.619C147.441 168.042 148.513 172.714 152.83 176.8C153.351 177.293 153.378 177.575 153.008 178.142C148.127 185.622 143.261 193.113 138.415 200.615C138.042 201.192 137.763 201.272 137.113 200.986C132.783 199.08 128.613 199.357 124.719 202.142C123.921 202.713 123.204 203.425 122.552 204.162C122.129 204.641 121.819 204.669 121.372 204.296C121.232 204.179 121.066 204.093 120.912 203.993C100.227 190.56 79.5443 177.125 58.8501 163.706C58.1205 163.233 57.8166 162.927 58.2267 161.933C60.4568 156.526 59.3887 151.807 55.101 147.738C54.5658 147.23 54.5013 146.932 54.9073 146.311C59.7748 138.866 64.6199 131.405 69.4407 123.93C69.8478 123.299 70.1521 123.256 70.826 123.535C76.2845 125.794 81.0245 124.836 85.0723 120.617C85.7192 119.943 86.081 119.895 86.8513 120.398C97.2209 127.174 107.616 133.911 118.005 140.657ZM85.1834 150.061C78.4722 160.38 81.402 174.219 91.7323 180.997C101.995 187.731 115.836 184.819 122.676 174.486C129.451 164.252 126.465 150.148 116.111 143.474C105.736 136.786 91.9 139.734 85.1834 150.061ZM126.87 150.447C130.926 159.526 130.77 168.149 125.502 176.261C120.23 184.379 112.387 188.017 102.637 188C102.891 188.22 102.966 188.302 103.057 188.361C109.005 192.227 114.96 196.083 120.895 199.968C121.455 200.335 121.767 200.18 122.225 199.821C126.24 196.684 130.737 195.687 135.687 196.941C136.377 197.116 136.72 196.992 137.105 196.395C140.925 190.461 144.772 184.545 148.632 178.637C148.978 178.106 149.04 177.766 148.6 177.211C145.403 173.18 144.449 168.634 145.714 163.652C145.884 162.982 145.733 162.675 145.186 162.325C141.842 160.186 138.52 158.012 135.191 155.85C132.511 154.11 129.831 152.37 126.87 150.447ZM105.309 136.548C104.982 136.278 104.862 136.158 104.723 136.068C98.8063 132.222 92.8816 128.387 86.9775 124.521C86.4045 124.146 86.0947 124.346 85.6487 124.693C81.6286 127.826 77.1297 128.814 72.1828 127.555C71.4756 127.374 71.1504 127.54 70.7746 128.123C66.9725 134.025 63.1517 139.915 59.3004 145.785C58.8863 146.416 58.8951 146.799 59.3643 147.397C62.4629 151.342 63.4133 155.784 62.2157 160.653C62.0308 161.406 62.1155 161.81 62.809 162.254C68.5636 165.945 74.2871 169.684 80.0254 173.401C80.2732 173.561 80.4941 173.846 80.8835 173.776C72.2642 155.937 85.3651 135.943 105.309 136.548Z" fill="#7F7F7F"/>
<path d="M99.047 166.679C99.7678 165.569 100.459 164.438 101.222 163.359C101.604 162.82 101.529 162.543 101.034 162.112C99.3128 160.615 98.0265 158.844 97.6166 156.508C96.8932 152.384 100.869 146.211 107.274 147.833C108.123 148.047 108.975 148.32 109.755 148.71C110.377 149.02 110.661 148.877 110.972 148.335C111.375 147.635 111.862 146.984 112.278 146.291C112.521 145.886 112.775 145.789 113.148 146.101C113.175 146.124 113.208 146.143 113.24 146.161C115.542 147.504 115.585 147.534 114.058 149.741C113.466 150.598 113.491 151.035 114.304 151.776C116.889 154.132 118.227 156.96 117.022 160.538C116.372 162.471 116.325 162.497 114.649 161.408C114.372 161.227 114.103 161.031 113.815 160.871C113.415 160.649 113.382 160.418 113.576 159.984C114.562 157.782 113.893 155.481 111.943 154.05C111.559 153.769 111.4 153.872 111.181 154.212C109.648 156.591 108.115 158.972 106.549 161.33C106.229 161.811 106.439 162.005 106.78 162.307C108.516 163.845 109.856 165.615 110.273 167.993C110.996 172.118 107.021 178.29 100.615 176.669C99.767 176.454 98.914 176.181 98.1348 175.792C97.5123 175.481 97.2285 175.625 96.917 176.166C96.514 176.866 96.0271 177.517 95.6113 178.21C95.3682 178.615 95.115 178.713 94.7421 178.4C94.714 178.377 94.6814 178.359 94.6496 178.34C92.3476 176.997 92.3047 176.967 93.8309 174.76C94.4233 173.903 94.398 173.466 93.5856 172.725C91.0009 170.37 89.6627 167.542 90.8672 163.964C91.5182 162.029 91.5632 162.004 93.2402 163.093C93.5177 163.274 93.7858 163.47 94.0747 163.63C94.4756 163.852 94.5068 164.084 94.3135 164.517C93.329 166.723 94.001 169.015 95.945 170.453C96.4339 170.815 96.5612 170.511 96.7656 170.195C97.5237 169.021 98.2862 167.851 99.047 166.679ZM101.839 168.606C101.099 169.745 100.352 170.88 99.6257 172.028C99.476 172.264 99.123 172.485 99.5882 172.831C101.344 174.135 104.42 173.732 105.788 172.008C107.987 169.24 106.884 166.898 104.794 164.98C104.388 164.607 104.244 164.902 104.058 165.188C103.32 166.328 102.579 167.467 101.839 168.606ZM106.064 155.874C106.804 154.735 107.549 153.599 108.279 152.454C108.436 152.208 108.755 151.985 108.279 151.657C106.719 150.584 103.96 150.636 102.616 151.96C100.022 154.515 100.474 157.179 103.115 159.537C103.546 159.922 103.671 159.554 103.843 159.291C104.586 158.154 105.324 157.014 106.064 155.874Z" fill="#7F7F7F"/>
<path d="M137.226 177.225C139.811 178.897 140.564 182.406 138.888 184.963C137.208 187.526 133.705 188.24 131.134 186.544C128.604 184.876 127.865 181.442 129.485 178.882C131.111 176.313 134.647 175.556 137.226 177.225ZM132.351 180.713C131.715 181.706 131.993 183.071 132.967 183.73C133.965 184.405 135.426 184.108 136.071 183.098C136.719 182.083 136.381 180.641 135.349 180.015C134.342 179.405 132.986 179.721 132.351 180.713Z" fill="#7F7F7F"/>
<path d="M76.7174 137.93C79.2965 139.603 80.0495 143.131 78.3698 145.673C76.6781 148.234 73.1807 148.94 70.6115 147.239C68.0807 145.564 67.3472 142.126 68.9765 139.577C70.6231 137.001 74.1332 136.254 76.7174 137.93ZM72.5037 144.465C73.4947 145.094 74.8594 144.803 75.5155 143.824C76.1946 142.811 75.8945 141.384 74.866 140.735C73.8789 140.113 72.4927 140.403 71.8416 141.367C71.1739 142.358 71.4866 143.821 72.5037 144.465Z" fill="#7F7F7F"/>
<path d="M122.94 220.637L163.338 177.315L84.7984 104.076L44.4005 147.398L122.94 220.637Z" fill="#FEFEFE"/>
<path d="M122.94 220.637L163.338 177.315L84.7984 104.076L44.4006 147.398L122.94 220.637Z" stroke="#010102" stroke-width="0.0404444" stroke-miterlimit="10"/>
<path d="M84.7844 100.014C95.7581 110.24 106.732 120.465 117.704 130.692C125.208 137.686 132.699 144.692 140.225 151.661C140.873 152.262 140.848 152.579 140.26 153.18C138.672 154.804 138.7 154.832 137.044 153.287C119.998 137.391 102.946 121.5 85.922 105.58C85.1525 104.86 84.8016 104.85 84.0714 105.636C71.4369 119.24 58.7728 132.816 46.0901 146.375C45.4302 147.081 45.3592 147.433 46.123 148.144C71.4721 171.74 96.7996 195.359 122.108 218.999C122.819 219.662 123.138 219.65 123.799 218.939C136.487 205.285 149.2 191.654 161.933 178.041C162.547 177.384 162.584 177.065 161.896 176.43C155.497 170.516 149.143 164.553 142.75 158.634C142.13 158.06 142.067 157.742 142.684 157.114C144.288 155.482 144.255 155.45 145.904 156.988C152.814 163.432 159.716 169.884 166.648 176.305C167.273 176.884 167.3 177.183 166.707 177.818C152.421 193.098 138.156 208.399 123.902 223.71C123.373 224.279 123.083 224.472 122.393 223.827C95.2566 198.482 68.0972 173.161 40.9416 147.837C40.8073 147.712 40.6795 147.58 40.5488 147.451C55.294 131.639 70.0391 115.826 84.7844 100.014Z" fill="#0EA2B6"/>
<path d="M121.568 143.426C130.574 151.824 139.572 160.23 148.599 168.604C149.295 169.249 149.485 169.631 148.91 170.548C145.802 175.507 146.046 180.294 149.588 185.067C150.015 185.643 149.993 185.926 149.53 186.42C143.424 192.938 137.332 199.47 131.256 206.017C130.789 206.521 130.5 206.551 129.91 206.157C125.976 203.528 121.822 203.076 117.504 205.143C116.619 205.567 115.789 206.143 115.019 206.756C114.519 207.154 114.209 207.128 113.834 206.683C113.716 206.543 113.567 206.43 113.433 206.305C95.3952 189.484 77.3595 172.661 59.3098 155.853C58.6734 155.26 58.4273 154.906 59.0038 153.998C62.1388 149.061 61.9065 144.228 58.3904 139.476C57.9516 138.883 57.9399 138.578 58.4475 138.037C64.5339 131.55 70.6008 125.045 76.6465 118.52C77.1569 117.97 77.4641 117.98 78.0793 118.372C83.0627 121.544 87.8969 121.424 92.6159 117.972C93.3701 117.42 93.7347 117.436 94.406 118.065C103.441 126.538 112.509 134.978 121.568 143.426ZM87.6124 146.988C79.2113 155.985 79.6935 170.122 88.6899 178.591C97.6273 187.004 111.763 186.54 120.294 177.552C128.743 168.65 128.251 154.242 119.214 145.871C110.158 137.484 96.0204 137.983 87.6124 146.988ZM128.598 154.606C131.017 164.252 129.365 172.717 122.769 179.791C116.167 186.87 107.811 189.091 98.2128 187.381C98.4247 187.641 98.4848 187.736 98.5637 187.81C103.75 192.65 108.945 197.481 114.115 202.338C114.603 202.796 114.937 202.697 115.451 202.424C119.949 200.032 124.551 199.831 129.208 201.925C129.857 202.218 130.217 202.155 130.699 201.634C135.492 196.454 140.308 191.295 145.135 186.147C145.568 185.685 145.688 185.361 145.351 184.738C142.903 180.212 142.753 175.57 144.863 170.883C145.147 170.253 145.052 169.925 144.574 169.485C141.652 166.797 138.758 164.08 135.855 161.373C133.518 159.194 131.181 157.015 128.598 154.606ZM109.778 137.174C109.503 136.852 109.406 136.713 109.285 136.6C104.126 131.785 98.9573 126.98 93.8142 122.147C93.3151 121.678 92.9753 121.821 92.4757 122.086C87.9728 124.473 83.3706 124.665 78.7176 122.566C78.0524 122.265 77.7033 122.372 77.232 122.881C72.4628 128.033 67.6773 133.17 62.8652 138.282C62.3478 138.831 62.29 139.21 62.6483 139.88C65.0147 144.303 65.1793 148.843 63.1544 153.431C62.8416 154.14 62.8549 154.552 63.4606 155.11C68.4869 159.744 73.4742 164.421 78.4799 169.077C78.696 169.278 78.8642 169.597 79.2599 169.595C73.8691 150.531 90.2428 133.116 109.778 137.174Z" fill="#7F7F7F"/>
<path d="M98.3798 165.762C99.2823 164.794 100.159 163.8 101.098 162.87C101.568 162.405 101.543 162.119 101.13 161.61C99.6946 159.835 98.7354 157.868 98.7373 155.497C98.741 151.31 103.728 145.921 109.754 148.63C110.553 148.989 111.345 149.406 112.045 149.925C112.604 150.339 112.909 150.246 113.309 149.767C113.828 149.148 114.42 148.591 114.95 147.981C115.26 147.624 115.526 147.573 115.839 147.945C115.863 147.973 115.892 147.997 115.92 148.02C117.953 149.743 117.991 149.78 116.104 151.688C115.372 152.429 115.321 152.864 115.993 153.734C118.129 156.503 118.956 159.52 117.148 162.835C116.172 164.626 116.122 164.643 114.66 163.28C114.418 163.054 114.188 162.814 113.932 162.606C113.576 162.318 113.584 162.085 113.851 161.691C115.204 159.694 114.945 157.312 113.273 155.564C112.944 155.221 112.769 155.294 112.494 155.591C110.571 157.668 108.648 159.746 106.697 161.796C106.298 162.215 106.471 162.442 106.754 162.799C108.197 164.615 109.209 166.591 109.207 169.005C109.203 173.192 104.216 178.581 98.1897 175.872C97.3914 175.513 96.5987 175.097 95.899 174.578C95.34 174.163 95.0356 174.255 94.6348 174.734C94.1164 175.354 93.5238 175.91 92.9939 176.521C92.6841 176.878 92.4179 176.93 92.1049 176.557C92.0813 176.529 92.0523 176.506 92.0242 176.482C89.9905 174.76 89.9533 174.723 91.8397 172.814C92.5719 172.073 92.6228 171.638 91.9514 170.768C89.815 167.999 88.9882 164.982 90.7958 161.667C91.7728 159.875 91.8214 159.859 93.2838 161.222C93.5258 161.448 93.7557 161.688 94.0124 161.896C94.3688 162.184 94.3592 162.417 94.0936 162.811C92.741 164.812 93.0048 167.186 94.6696 168.939C95.0882 169.381 95.2663 169.104 95.5225 168.828C96.4728 167.804 97.427 166.784 98.3798 165.762ZM100.795 168.144C99.8683 169.138 98.9356 170.125 98.0209 171.129C97.8324 171.336 97.4464 171.493 97.8446 171.914C99.3472 173.504 102.446 173.64 104.093 172.181C106.74 169.836 106.06 167.338 104.335 165.086C104 164.649 103.806 164.914 103.574 165.163C102.648 166.157 101.722 167.151 100.795 168.144ZM107.166 156.339C108.093 155.346 109.024 154.357 109.942 153.355C110.139 153.141 110.492 152.976 110.08 152.571C108.731 151.243 106.004 150.816 104.451 151.886C101.452 153.952 101.434 156.654 103.626 159.435C103.984 159.888 104.17 159.547 104.386 159.318C105.315 158.329 106.24 157.333 107.166 156.339Z" fill="#7F7F7F"/>
<path d="M134.148 182.776C136.402 184.872 136.535 188.458 134.44 190.686C132.341 192.918 128.767 193.013 126.53 190.896C124.328 188.814 124.196 185.304 126.236 183.064C128.284 180.816 131.897 180.685 134.148 182.776ZM128.74 185.365C127.942 186.233 127.979 187.625 128.824 188.443C129.689 189.281 131.18 189.242 131.99 188.36C132.805 187.473 132.722 185.994 131.814 185.198C130.928 184.423 129.538 184.498 128.74 185.365Z" fill="#7F7F7F"/>
<path d="M81.3815 133.572C83.6309 135.668 83.7599 139.272 81.6644 141.484C79.5536 143.713 75.9869 143.8 73.752 141.679C71.5506 139.59 71.425 136.077 73.4723 133.85C75.5413 131.598 79.1276 131.473 81.3815 133.572ZM76.097 139.276C76.9639 140.067 78.3584 140.018 79.1746 139.167C80.0192 138.288 79.9715 136.83 79.0713 136.013C78.2072 135.229 76.7917 135.273 75.983 136.11C75.1534 136.97 75.2073 138.465 76.097 139.276Z" fill="#7F7F7F"/>
<path d="M112.54 223.049L159.847 187.401L95.2185 101.636L47.9117 137.284L112.54 223.049Z" fill="#FEFEFE"/>
<path d="M112.54 223.049L159.847 187.401L95.2185 101.636L47.9117 137.284L112.54 223.049Z" stroke="#010102" stroke-width="0.0404444" stroke-miterlimit="10"/>
<path d="M95.9103 97.6328C104.941 109.609 113.973 121.584 123.003 133.561C129.178 141.751 135.339 149.952 141.54 158.123C142.074 158.827 141.994 159.134 141.311 159.624C139.465 160.948 139.488 160.98 138.125 159.171C124.098 140.557 110.064 121.946 96.0641 103.311C95.4313 102.469 95.0875 102.398 94.2318 103.046C79.4269 114.249 64.5978 125.42 49.7533 136.57C48.9809 137.151 48.8497 137.486 49.4784 138.318C70.3451 165.957 91.1864 193.616 112.005 221.291C112.59 222.068 112.907 222.111 113.681 221.526C128.547 210.282 143.435 199.066 158.337 187.871C159.056 187.331 159.148 187.023 158.581 186.278C153.305 179.343 148.084 172.367 142.816 165.428C142.305 164.755 142.298 164.431 143.015 163.92C144.878 162.591 144.851 162.554 146.208 164.355C151.894 171.901 157.571 179.453 163.283 186.98C163.798 187.659 163.772 187.958 163.078 188.48C146.355 201.048 129.65 213.639 112.954 226.242C112.334 226.71 112.015 226.85 111.447 226.095C89.1246 196.423 66.7747 166.771 44.4291 137.116C44.3186 136.97 44.2157 136.817 44.1094 136.668C61.3763 123.656 78.6432 110.645 95.9103 97.6328Z" fill="#0E9AAC"/>
<path d="M124.596 146.773C132.007 156.607 139.409 166.448 146.844 176.262C147.418 177.019 147.539 177.428 146.814 178.231C142.891 182.575 142.301 187.332 144.96 192.647C145.281 193.289 145.21 193.563 144.668 193.969C137.523 199.328 130.389 204.704 123.269 210.096C122.721 210.51 122.432 210.49 121.919 210C118.501 206.727 114.488 205.561 109.877 206.847C108.932 207.11 108.014 207.533 107.15 208.004C106.589 208.309 106.288 208.229 105.995 207.726C105.904 207.568 105.777 207.431 105.666 207.284C90.8234 187.587 75.983 167.887 61.1261 148.2C60.6023 147.506 60.4216 147.114 61.1469 146.32C65.0915 142.003 65.702 137.203 63.0646 131.912C62.7355 131.252 62.7768 130.95 63.3706 130.505C70.4911 125.174 77.5955 119.821 84.6822 114.445C85.2805 113.992 85.5812 114.055 86.119 114.548C90.476 118.537 95.2575 119.258 100.504 116.678C101.343 116.265 101.699 116.344 102.251 117.081C109.678 126.994 117.142 136.88 124.596 146.773ZM90.5381 144.385C80.7024 151.786 78.7224 165.792 86.1115 175.695C93.4521 185.532 107.454 187.53 117.416 180.16C127.282 172.86 129.3 158.585 121.853 148.772C114.391 138.94 100.382 136.977 90.5381 144.385ZM129.579 159.004C130.285 168.924 127.189 176.973 119.464 182.794C111.734 188.62 103.119 189.355 93.9634 186.004C94.1268 186.298 94.1695 186.402 94.2345 186.488C98.5018 192.155 102.779 197.815 107.027 203.496C107.428 204.032 107.774 203.993 108.327 203.813C113.173 202.238 117.739 202.839 121.962 205.711C122.55 206.111 122.916 206.112 123.481 205.682C129.101 201.413 134.739 197.169 140.387 192.937C140.894 192.557 141.068 192.259 140.844 191.587C139.219 186.705 139.877 182.107 142.77 177.858C143.159 177.287 143.122 176.947 142.728 176.431C140.317 173.277 137.939 170.098 135.55 166.928C133.627 164.376 131.704 161.825 129.579 159.004ZM114.072 138.569C113.857 138.204 113.785 138.05 113.686 137.918C109.441 132.281 105.185 126.651 100.959 120.998C100.549 120.45 100.19 120.532 99.6518 120.705C94.8028 122.274 90.2372 121.664 86.0194 118.789C85.4164 118.378 85.054 118.422 84.5016 118.842C78.9102 123.087 73.3054 127.315 67.6787 131.514C67.0738 131.965 66.9512 132.328 67.1875 133.05C68.75 137.817 68.1237 142.316 65.3329 146.483C64.9018 147.126 64.8433 147.535 65.3428 148.19C69.4881 153.626 73.5876 159.097 77.7086 164.553C77.8865 164.788 77.9969 165.131 78.3868 165.198C76.3884 145.488 95.5375 131.18 114.072 138.569Z" fill="#7F7F7F"/>
<path d="M97.882 164.742C98.9389 163.945 99.9749 163.119 101.061 162.366C101.604 161.989 101.629 161.704 101.311 161.13C100.206 159.134 99.603 157.03 100.017 154.695C100.747 150.572 106.595 146.131 112.059 149.845C112.783 150.337 113.491 150.886 114.09 151.518C114.569 152.023 114.884 151.985 115.362 151.583C115.98 151.063 116.661 150.617 117.288 150.108C117.655 149.811 117.927 149.806 118.17 150.227C118.188 150.259 118.213 150.287 118.236 150.315C119.94 152.365 119.97 152.408 117.781 153.959C116.931 154.562 116.806 154.982 117.316 155.955C118.939 159.053 119.229 162.168 116.874 165.119C115.601 166.713 115.549 166.721 114.346 165.124C114.147 164.86 113.962 164.584 113.746 164.335C113.446 163.989 113.494 163.761 113.825 163.419C115.504 161.688 115.663 159.296 114.32 157.285C114.055 156.89 113.87 156.931 113.548 157.176C111.294 158.888 109.039 160.6 106.762 162.281C106.296 162.624 106.427 162.877 106.644 163.278C107.749 165.317 108.403 167.439 107.981 169.816C107.25 173.939 101.404 178.379 95.9392 174.666C95.2154 174.173 94.5071 173.625 93.9081 172.993C93.4295 172.488 93.1138 172.526 92.6359 172.928C92.0178 173.448 91.3375 173.893 90.7098 174.402C90.3426 174.7 90.0715 174.705 89.8279 174.284C89.8095 174.252 89.7851 174.224 89.7616 174.195C88.0578 172.146 88.0276 172.103 90.2168 170.551C91.0665 169.949 91.1921 169.529 90.6821 168.555C89.0589 165.458 88.7686 162.343 91.1243 159.392C92.3977 157.797 92.4485 157.789 93.6518 159.386C93.8509 159.65 94.0356 159.927 94.2525 160.176C94.5533 160.521 94.5033 160.75 94.1735 161.091C92.4939 162.827 92.3414 165.211 93.6765 167.227C94.0121 167.734 94.2356 167.492 94.5358 167.265C95.6495 166.422 96.7664 165.582 97.882 164.742ZM99.8468 167.507C98.7618 168.325 97.6718 169.135 96.5966 169.965C96.375 170.136 95.9677 170.223 96.2867 170.707C97.4904 172.534 100.518 173.207 102.394 172.055C105.408 170.206 105.172 167.628 103.864 165.111C103.61 164.622 103.373 164.849 103.101 165.054C102.017 165.872 100.932 166.69 99.8468 167.507ZM108.171 156.988C109.256 156.171 110.345 155.358 111.423 154.532C111.654 154.354 112.031 154.254 111.695 153.783C110.597 152.241 107.985 151.346 106.27 152.131C102.958 153.644 102.472 156.302 104.147 159.422C104.421 159.93 104.664 159.627 104.916 159.439C106.003 158.626 107.086 157.806 108.171 156.988Z" fill="#7F7F7F"/>
<path d="M130.152 187.71C132.008 190.166 131.516 193.72 129.067 195.55C126.612 197.384 123.076 196.857 121.24 194.384C119.433 191.95 119.912 188.471 122.31 186.62C124.718 184.761 128.299 185.259 130.152 187.71ZM124.377 189.32C123.44 190.036 123.235 191.414 123.925 192.366C124.631 193.342 126.106 193.562 127.057 192.834C128.014 192.102 128.189 190.631 127.433 189.69C126.695 188.772 125.314 188.605 124.377 189.32Z" fill="#7F7F7F"/>
<path d="M86.7317 130.09C88.5831 132.544 88.0842 136.117 85.6364 137.931C83.1707 139.759 79.6429 139.226 77.8103 136.749C76.0052 134.309 76.4915 130.828 78.8944 128.99C81.323 127.132 84.8767 127.631 86.7317 130.09ZM80.537 134.79C81.2534 135.719 82.6353 135.913 83.5867 135.217C84.5713 134.497 84.7773 133.054 84.0328 132.093C83.3179 131.17 81.9162 130.969 80.9745 131.652C80.0082 132.355 79.8017 133.837 80.537 134.79Z" fill="#7F7F7F"/>
<path d="M102.948 223.646L155.249 195.838L104.833 101.019L52.5318 128.828L102.948 223.646Z" fill="#FEFEFE"/>
<path d="M102.948 223.646L155.249 195.838L104.833 101.019L52.5318 128.828L102.948 223.646Z" stroke="#010102" stroke-width="0.0404444" stroke-miterlimit="10"/>
<path d="M106.142 97.1735C113.189 110.415 120.236 123.655 127.281 136.898C132.098 145.953 136.901 155.016 141.747 164.057C142.165 164.836 142.038 165.127 141.286 165.504C139.256 166.523 139.274 166.558 138.211 164.558C127.268 143.978 116.319 123.402 105.406 102.806C104.913 101.875 104.584 101.751 103.637 102.257C87.2623 111.007 70.8683 119.72 54.4622 128.411C53.6085 128.864 53.4266 129.174 53.9173 130.095C70.2034 160.658 86.4614 191.236 102.695 221.827C103.15 222.686 103.457 222.778 104.313 222.321C120.755 213.542 137.214 204.792 153.684 196.066C154.479 195.646 154.618 195.356 154.174 194.531C150.048 186.856 145.983 179.15 141.864 171.472C141.465 170.727 141.51 170.406 142.297 170.013C144.345 168.992 144.324 168.951 145.383 170.942C149.819 179.285 154.244 187.633 158.708 195.96C159.111 196.711 159.038 197.003 158.271 197.41C139.788 207.207 121.319 217.03 102.857 226.866C102.171 227.231 101.835 227.319 101.392 226.485C83.9857 193.686 66.5496 160.903 49.1181 128.118C49.0319 127.955 48.9542 127.789 48.8726 127.624C67.9624 117.474 87.0521 107.324 106.142 97.1735Z" fill="#0FA8BC"/>
<path d="M126.788 150.196C132.569 161.068 138.34 171.946 144.149 182.803C144.597 183.639 144.652 184.063 143.811 184.742C139.257 188.419 137.93 193.025 139.724 198.691C139.941 199.374 139.828 199.635 139.23 199.951C131.334 204.127 123.447 208.319 115.571 212.532C114.965 212.855 114.682 212.79 114.253 212.225C111.389 208.459 107.608 206.679 102.852 207.227C101.877 207.34 100.905 207.614 99.9773 207.944C99.3755 208.157 99.0906 208.031 98.8805 207.488C98.8147 207.318 98.7111 207.163 98.6248 207C87.046 185.224 75.47 163.445 63.8758 141.677C63.467 140.909 63.3498 140.494 64.1903 139.823C68.7618 136.176 70.1157 131.53 68.3383 125.893C68.1166 125.189 68.2046 124.897 68.8607 124.551C76.7275 120.399 84.5818 116.223 92.4223 112.022C93.0842 111.668 93.3711 111.778 93.8253 112.348C97.5046 116.97 102.114 118.43 107.7 116.703C108.593 116.426 108.933 116.56 109.362 117.374C115.147 128.327 120.972 139.259 126.788 150.196ZM93.5225 142.509C82.6501 148.28 78.5035 161.804 84.2524 172.741C89.9637 183.606 103.481 187.769 114.473 182.048C125.36 176.382 129.586 162.598 123.766 151.741C117.934 140.863 104.404 136.732 93.5225 142.509ZM129.795 163.056C128.941 172.964 124.624 180.43 116.084 184.971C107.537 189.515 98.9137 188.894 90.3949 184.152C90.5103 184.468 90.5363 184.577 90.587 184.672C93.9152 190.937 97.2539 197.196 100.561 203.472C100.873 204.064 101.221 204.079 101.796 203.988C106.828 203.191 111.244 204.499 114.966 207.996C115.485 208.483 115.845 208.541 116.471 208.205C122.689 204.868 128.922 201.558 135.162 198.262C135.723 197.966 135.941 197.699 135.825 197C134.984 191.924 136.353 187.486 139.875 183.741C140.349 183.238 140.365 182.897 140.056 182.325C138.168 178.833 136.317 175.321 134.453 171.816C132.953 168.995 131.453 166.174 129.795 163.056ZM117.676 140.446C117.521 140.052 117.474 139.89 117.397 139.743C114.086 133.511 110.763 127.285 107.474 121.041C107.155 120.435 106.787 120.459 106.228 120.547C101.194 121.338 96.7796 120.021 93.0635 116.521C92.5323 116.021 92.1674 116.008 91.5561 116.336C85.3695 119.655 79.1722 122.954 72.958 126.22C72.29 126.571 72.1121 126.911 72.2326 127.661C73.0301 132.614 71.7076 136.96 68.2995 140.638C67.7729 141.207 67.6512 141.601 68.0422 142.326C71.286 148.344 74.4791 154.389 77.696 160.422C77.8349 160.682 77.8902 161.038 78.2649 161.165C79.3745 141.385 100.526 130.249 117.676 140.446Z" fill="#7F7F7F"/>
<path d="M97.5915 163.764C98.7599 163.143 99.9125 162.488 101.104 161.915C101.699 161.628 101.768 161.35 101.544 160.733C100.764 158.589 100.498 156.416 101.271 154.175C102.638 150.217 109.108 146.746 113.924 151.269C114.562 151.868 115.176 152.52 115.668 153.239C116.062 153.812 116.38 153.824 116.915 153.501C117.607 153.085 118.348 152.751 119.048 152.347C119.457 152.11 119.726 152.148 119.901 152.602C119.914 152.636 119.933 152.668 119.952 152.699C121.314 154.99 121.337 155.037 118.932 156.228C117.999 156.69 117.809 157.084 118.161 158.126C119.279 161.44 119.079 164.562 116.29 167.107C114.784 168.483 114.731 168.482 113.793 166.717C113.638 166.425 113.498 166.123 113.323 165.843C113.081 165.456 113.165 165.237 113.545 164.952C115.475 163.505 116.005 161.167 114.993 158.971C114.794 158.539 114.605 158.551 114.248 158.743C111.754 160.08 109.259 161.419 106.747 162.722C106.233 162.989 106.323 163.259 106.475 163.689C107.247 165.876 107.561 168.074 106.773 170.355C105.406 174.313 98.9364 177.785 94.1202 173.262C93.4822 172.662 92.8684 172.01 92.3757 171.292C91.9821 170.718 91.6642 170.706 91.1294 171.029C90.4375 171.445 89.696 171.779 88.9963 172.183C88.5871 172.42 88.3185 172.382 88.1438 171.928C88.1306 171.894 88.111 171.863 88.0921 171.831C86.7299 169.54 86.7068 169.493 89.1119 168.303C90.0453 167.841 90.235 167.446 89.8836 166.404C88.765 163.091 88.9656 159.969 91.7538 157.423C93.261 156.047 93.3124 156.047 94.2512 157.813C94.4065 158.105 94.5456 158.407 94.7209 158.687C94.964 159.075 94.8788 159.293 94.4997 159.578C92.5691 161.03 92.0457 163.361 93.049 165.561C93.3012 166.114 93.5597 165.91 93.8918 165.733C95.1237 165.074 96.3581 164.42 97.5915 163.764ZM99.0995 166.803C97.9 167.44 96.6965 168.071 95.5047 168.722C95.2591 168.857 94.8432 168.879 95.0826 169.407C95.9857 171.399 98.8711 172.537 100.904 171.693C104.17 170.338 104.34 167.755 103.442 165.064C103.268 164.542 102.998 164.729 102.697 164.889C101.499 165.528 100.299 166.165 99.0995 166.803ZM108.967 157.716C110.167 157.078 111.369 156.446 112.563 155.798C112.819 155.659 113.207 155.618 112.949 155.101C112.105 153.406 109.666 152.114 107.849 152.62C104.341 153.597 103.445 156.147 104.612 159.49C104.802 160.035 105.09 159.773 105.368 159.627C106.569 158.994 107.768 158.353 108.967 157.716Z" fill="#7F7F7F"/>
<path d="M125.871 191.497C127.321 194.213 126.279 197.646 123.573 199.071C120.862 200.498 117.451 199.424 116.025 196.694C114.621 194.008 115.639 190.646 118.297 189.193C120.965 187.734 124.425 188.787 125.871 191.497ZM119.916 192.184C118.878 192.744 118.46 194.073 118.993 195.121C119.538 196.195 120.96 196.644 122.013 196.074C123.072 195.5 123.476 194.075 122.876 193.027C122.291 192.006 120.953 191.624 119.916 192.184Z" fill="#7F7F7F"/>
<path d="M91.9993 127.794C93.444 130.508 92.3924 133.958 89.6909 135.367C86.9697 136.787 83.5687 135.709 82.1461 132.976C80.7449 130.283 81.7698 126.921 84.4306 125.482C87.1199 124.027 90.5518 125.075 91.9993 127.794ZM85.1456 131.467C85.7079 132.497 87.0425 132.904 88.0911 132.366C89.1761 131.809 89.6054 130.416 89.0204 129.35C88.4587 128.327 87.1057 127.909 86.0686 128.437C85.0044 128.979 84.5686 130.41 85.1456 131.467Z" fill="#7F7F7F"/>
<path d="M94.4348 222.909L150.097 202.65L113.368 101.737L57.7056 121.996L94.4348 222.909Z" fill="#FEFEFE"/>
<path d="M94.4348 222.909L150.097 202.65L113.368 101.737L57.7056 121.996L94.4348 222.909Z" stroke="#010102" stroke-width="0.0404444" stroke-miterlimit="10"/>
<path d="M115.2 98.1117C120.335 112.205 125.471 126.297 130.604 140.391C134.114 150.029 137.609 159.673 141.15 169.299C141.455 170.129 141.289 170.4 140.492 170.668C138.34 171.395 138.352 171.432 137.578 169.304C129.606 147.401 121.627 125.501 113.686 103.587C113.328 102.596 113.02 102.428 112.012 102.797C94.5783 109.183 77.1312 115.529 59.6752 121.853C58.7668 122.182 58.5435 122.464 58.9013 123.444C70.7753 155.976 82.6194 188.52 94.4372 221.072C94.7691 221.986 95.0597 222.12 95.9711 221.787C113.475 215.381 130.991 209.007 148.516 202.659C149.361 202.353 149.539 202.085 149.214 201.206C146.197 193.032 143.244 184.835 140.234 176.658C139.942 175.866 140.031 175.553 140.865 175.274C143.035 174.548 143.021 174.505 143.792 176.624C147.024 185.502 150.244 194.385 153.506 203.252C153.8 204.052 153.687 204.331 152.871 204.627C133.205 211.757 113.548 218.914 93.8971 226.085C93.1671 226.351 92.8212 226.391 92.4989 225.504C79.8269 190.601 67.1229 155.711 54.424 120.818C54.3612 120.646 54.3074 120.47 54.2494 120.296C74.5662 112.901 94.8827 105.506 115.2 98.1117Z" fill="#0D9EB1"/>
<path d="M128.265 153.492C132.477 165.063 136.678 176.637 140.919 188.197C141.246 189.088 141.242 189.515 140.315 190.07C135.293 193.078 133.338 197.454 134.327 203.315C134.446 204.022 134.298 204.264 133.661 204.494C125.261 207.53 116.868 210.585 108.482 213.659C107.837 213.896 107.566 213.792 107.219 213.173C104.907 209.044 101.411 206.755 96.6252 206.637C95.6442 206.613 94.6429 206.749 93.6786 206.946C93.0529 207.074 92.7883 206.91 92.6558 206.343C92.6143 206.165 92.5334 205.997 92.4706 205.824C84.0351 182.648 75.6027 159.47 67.151 136.299C66.853 135.483 66.7948 135.055 67.7204 134.508C72.7551 131.532 74.7422 127.121 73.7668 121.29C73.6452 120.562 73.773 120.286 74.4708 120.034C82.839 117.017 91.198 113.975 99.5469 110.906C100.252 110.648 100.52 110.797 100.891 111.425C103.891 116.513 108.253 118.601 114.025 117.668C114.947 117.518 115.265 117.698 115.577 118.564C119.781 130.215 124.028 141.852 128.265 153.492ZM96.3934 141.25C84.8235 145.452 78.8351 158.267 83.006 169.898C87.1496 181.452 99.9557 187.455 111.637 183.32C123.207 179.224 129.31 166.163 125.058 154.601C120.796 143.017 107.973 137.044 96.3934 141.25ZM129.454 166.645C127.229 176.338 121.915 183.13 112.826 186.438C103.73 189.749 95.2765 187.934 87.5005 182.053C87.5709 182.381 87.5815 182.493 87.6184 182.594C90.0423 189.261 92.4775 195.924 94.8791 202.599C95.1057 203.229 95.4483 203.293 96.0303 203.282C101.125 203.193 105.315 205.103 108.514 209.084C108.96 209.639 109.309 209.746 109.975 209.501C116.597 207.061 123.23 204.651 129.868 202.255C130.465 202.04 130.718 201.806 130.701 201.098C130.574 195.954 132.548 191.75 136.556 188.532C137.095 188.099 137.159 187.764 136.933 187.154C135.549 183.434 134.205 179.699 132.847 175.968C131.754 172.966 130.661 169.963 129.454 166.645ZM120.599 142.569C120.5 142.157 120.477 141.989 120.42 141.834C118.009 135.201 115.585 128.573 113.197 121.932C112.965 121.288 112.597 121.261 112.032 121.27C106.936 121.352 102.748 119.434 99.5556 115.451C99.0992 114.882 98.7396 114.819 98.0886 115.058C91.5004 117.483 84.9043 119.888 78.296 122.258C77.5855 122.512 77.3622 122.824 77.3771 123.583C77.4775 128.599 75.563 132.719 71.6761 135.887C71.0755 136.377 70.9003 136.75 71.1865 137.522C73.5612 143.933 75.8819 150.364 78.2279 156.786C78.3292 157.063 78.3345 157.423 78.6877 157.601C82.5394 138.168 105.035 130.084 120.599 142.569Z" fill="#7F7F7F"/>
<path d="M97.4645 162.865C98.708 162.413 99.9405 161.925 101.2 161.523C101.829 161.321 101.936 161.056 101.8 160.414C101.327 158.182 101.365 155.993 102.443 153.881C104.348 150.152 111.238 147.615 115.377 152.765C115.926 153.447 116.442 154.178 116.83 154.958C117.141 155.581 117.454 155.637 118.028 155.392C118.771 155.075 119.552 154.848 120.301 154.545C120.739 154.368 121 154.443 121.11 154.917C121.118 154.952 121.133 154.987 121.147 155.02C122.177 157.478 122.194 157.528 119.647 158.372C118.658 158.7 118.415 159.064 118.618 160.145C119.265 163.582 118.632 166.645 115.516 168.778C113.833 169.931 113.781 169.923 113.098 168.045C112.984 167.734 112.888 167.415 112.754 167.114C112.568 166.696 112.681 166.491 113.097 166.262C115.21 165.097 116.06 162.856 115.364 160.54C115.227 160.085 115.038 160.071 114.658 160.211C112.002 161.188 109.345 162.167 106.676 163.108C106.13 163.3 106.181 163.581 106.272 164.027C106.732 166.301 106.737 168.521 105.639 170.67C103.735 174.399 96.845 176.937 92.7052 171.787C92.1568 171.105 91.6398 170.374 91.2518 169.594C90.9419 168.971 90.6288 168.915 90.0543 169.16C89.3112 169.476 88.5304 169.703 87.7813 170.006C87.3431 170.184 87.0824 170.109 86.9725 169.635C86.9642 169.6 86.9492 169.565 86.9349 169.531C85.9048 167.074 85.8883 167.024 88.4358 166.179C89.4245 165.852 89.6672 165.488 89.4642 164.407C88.8176 160.97 89.4507 157.907 92.5661 155.774C94.2502 154.621 94.3011 154.628 94.985 156.507C95.0981 156.818 95.1938 157.136 95.3285 157.438C95.5152 157.856 95.4005 158.06 94.9853 158.29C92.8715 159.459 92.0288 161.694 92.7162 164.012C92.8889 164.595 93.1733 164.429 93.5268 164.3C94.8384 163.819 96.1518 163.343 97.4645 162.865ZM98.5349 166.084C97.2583 166.549 95.9788 167.005 94.708 167.485C94.4461 167.584 94.0311 167.548 94.1947 168.104C94.8118 170.202 97.5107 171.731 99.641 171.178C103.064 170.291 103.592 167.757 103.077 164.967C102.977 164.425 102.684 164.573 102.364 164.69C101.088 165.156 99.8117 165.62 98.5349 166.084ZM109.571 158.459C110.848 157.994 112.126 157.536 113.399 157.06C113.672 156.958 114.061 156.972 113.878 156.424C113.278 154.628 111.043 153.009 109.173 153.258C105.564 153.737 104.321 156.137 105.012 159.61C105.124 160.176 105.445 159.957 105.741 159.851C107.019 159.391 108.295 158.923 109.571 158.459Z" fill="#7F7F7F"/>
<path d="M121.609 194.264C122.667 197.155 121.157 200.41 118.279 201.444C115.396 202.48 112.168 200.942 111.135 198.04C110.119 195.185 111.595 191.997 114.429 190.928C117.275 189.855 120.554 191.378 121.609 194.264ZM115.616 194.115C114.511 194.526 113.912 195.783 114.293 196.895C114.683 198.035 116.03 198.677 117.152 198.259C118.281 197.838 118.878 196.483 118.43 195.362C117.993 194.269 116.721 193.705 115.616 194.115Z" fill="#7F7F7F"/>
<path d="M96.9328 126.466C97.9858 129.355 96.4642 132.625 93.5929 133.644C90.7005 134.672 87.4827 133.131 86.4544 130.226C85.4415 127.365 86.9243 124.178 89.7596 123.123C92.6252 122.056 95.8778 123.573 96.9328 126.466ZM89.6346 129.15C90.0481 130.248 91.313 130.837 92.4263 130.45C93.5782 130.049 94.1974 128.729 93.7664 127.592C93.3525 126.501 92.0709 125.899 90.9704 126.277C89.8411 126.666 89.2103 128.023 89.6346 129.15Z" fill="#7F7F7F"/>
<path d="M88.1628 221.584L145.638 207.254L119.658 103.055L62.1831 117.385L88.1628 221.584Z" fill="#FEFEFE"/>
<path d="M88.1628 221.584L145.638 207.254L119.658 103.055L62.1831 117.385L88.1628 221.584Z" stroke="#010102" stroke-width="0.0404444" stroke-miterlimit="10"/>
<path d="M121.859 99.6401C125.493 114.193 129.127 128.745 132.759 143.298C135.243 153.25 137.71 163.206 140.225 173.15C140.443 174.007 140.249 174.259 139.428 174.443C137.212 174.941 137.221 174.979 136.673 172.781C131.034 150.166 125.388 127.551 119.781 104.927C119.528 103.905 119.24 103.705 118.199 103.967C100.193 108.495 82.1782 112.983 64.1569 117.447C63.219 117.68 62.9674 117.937 63.2208 118.949C71.6293 152.544 80.0068 186.147 88.3572 219.757C88.5916 220.701 88.8667 220.864 89.8079 220.628C107.886 216.087 125.972 211.579 144.064 207.097C144.937 206.881 145.142 206.633 144.911 205.725C142.764 197.281 140.684 188.82 138.546 180.373C138.338 179.554 138.459 179.253 139.318 179.063C141.552 178.568 141.542 178.523 142.088 180.711C144.373 189.879 146.648 199.049 148.965 208.209C149.173 209.035 149.033 209.301 148.19 209.51C127.886 214.545 107.589 219.608 87.2961 224.685C86.5422 224.874 86.194 224.878 85.9662 223.961C77.012 187.926 68.0247 151.898 59.0425 115.87C58.998 115.692 58.963 115.511 58.9236 115.332C79.9019 110.101 100.88 104.871 121.859 99.6401Z" fill="#0FABBF"/>
<path d="M129.064 156.082C132.043 168.03 135.011 179.98 138.021 191.92C138.253 192.84 138.204 193.264 137.224 193.72C131.915 196.186 129.513 200.334 129.884 206.266C129.929 206.981 129.756 207.207 129.099 207.369C120.428 209.51 111.761 211.671 103.1 213.852C102.434 214.02 102.175 213.888 101.895 213.236C100.027 208.888 96.7891 206.247 92.042 205.629C91.069 205.502 90.0589 205.533 89.0792 205.628C88.4436 205.69 88.1976 205.499 88.1252 204.921C88.1025 204.74 88.0396 204.564 87.9951 204.386C82.0285 180.455 76.065 156.523 70.0816 132.596C69.8706 131.752 69.8574 131.321 70.8351 130.873C76.1532 128.44 78.5907 124.26 78.23 118.36C78.1851 117.624 78.3412 117.362 79.0615 117.185C87.6992 115.059 96.3304 112.907 104.954 110.728C105.682 110.544 105.934 110.72 106.237 111.384C108.689 116.758 112.808 119.291 118.646 118.966C119.579 118.914 119.876 119.125 120.096 120.019C123.059 132.046 126.067 144.063 129.064 156.082ZM98.6463 140.576C86.7006 143.545 79.4054 155.664 82.3377 167.667C85.2509 179.591 97.3593 186.9 109.409 184.009C121.343 181.145 128.778 168.793 125.758 156.85C122.731 144.884 110.602 137.603 98.6463 140.576ZM128.871 169.287C125.645 178.695 119.65 184.894 110.265 187.234C100.873 189.576 92.6557 186.887 85.5371 180.225C85.5728 180.559 85.5717 180.671 85.5978 180.776C87.3115 187.66 89.0368 194.541 90.7275 201.431C90.8871 202.081 91.2212 202.18 91.801 202.23C96.8767 202.674 100.845 205.012 103.61 209.305C103.995 209.903 104.331 210.047 105.02 209.872C111.861 208.138 118.709 206.434 125.561 204.746C126.177 204.594 126.454 204.388 126.51 203.682C126.921 198.553 129.324 194.578 133.647 191.797C134.228 191.423 134.327 191.096 134.165 190.466C133.178 186.621 132.231 182.766 131.271 178.914C130.498 175.814 129.725 172.714 128.871 169.287ZM122.581 144.418C122.526 143.997 122.52 143.828 122.48 143.668C120.776 136.82 119.058 129.974 117.377 123.12C117.214 122.455 116.851 122.39 116.288 122.34C111.211 121.889 107.247 119.544 104.488 115.249C104.093 114.635 103.742 114.534 103.07 114.704C96.2644 116.428 89.4531 118.13 82.6332 119.796C81.9001 119.975 81.6454 120.261 81.5808 121.018C81.1564 126.017 78.8218 129.914 74.625 132.658C73.9765 133.083 73.7632 133.435 73.9671 134.234C75.6587 140.857 77.2945 147.496 78.9564 154.127C79.0281 154.414 78.9958 154.772 79.3284 154.987C85.1904 136.062 108.408 130.374 122.581 144.418Z" fill="#7F7F7F"/>
<path d="M97.4522 162.184C98.7363 161.864 100.013 161.508 101.307 161.24C101.954 161.105 102.089 160.852 102.02 160.2C101.783 157.93 102.05 155.758 103.343 153.77C105.626 150.261 112.744 148.458 116.322 154.012C116.797 154.747 117.234 155.529 117.539 156.345C117.782 156.997 118.087 157.085 118.684 156.902C119.457 156.664 120.257 156.52 121.033 156.297C121.488 156.166 121.739 156.268 121.799 156.751C121.803 156.787 121.815 156.823 121.825 156.858C122.593 159.41 122.604 159.461 119.983 160.035C118.965 160.257 118.685 160.594 118.775 161.69C119.058 165.176 118.108 168.157 114.787 169.952C112.993 170.922 112.941 170.909 112.458 168.97C112.378 168.649 112.316 168.322 112.214 168.008C112.072 167.573 112.206 167.381 112.644 167.197C114.867 166.259 115.947 164.119 115.497 161.743C115.408 161.276 115.221 161.242 114.829 161.342C112.085 162.036 109.341 162.732 106.587 163.389C106.025 163.523 106.046 163.807 106.09 164.26C106.31 166.57 106.083 168.778 104.766 170.801C102.482 174.311 95.3652 176.114 91.7863 170.56C91.3123 169.824 90.8745 169.043 90.5702 168.227C90.3271 167.575 90.0216 167.486 89.4246 167.67C88.6525 167.907 87.8523 168.051 87.0756 168.274C86.6212 168.405 86.3698 168.304 86.3101 167.821C86.3055 167.784 86.2941 167.749 86.2835 167.714C85.5159 165.161 85.5048 165.11 88.1266 164.537C89.144 164.314 89.4235 163.977 89.3345 162.882C89.0507 159.396 90.0007 156.415 93.3219 154.62C95.1173 153.649 95.1672 153.662 95.6509 155.602C95.7309 155.923 95.7928 156.25 95.8952 156.563C96.0372 156.999 95.9018 157.19 95.4649 157.375C93.2404 158.317 92.1687 160.451 92.6101 162.829C92.7208 163.427 93.021 163.291 93.3861 163.2C94.7408 162.858 96.0968 162.522 97.4522 162.184ZM98.1803 165.498C96.8621 165.826 95.5419 166.147 94.228 166.491C93.9572 166.561 93.5482 166.482 93.6528 167.052C94.0471 169.204 96.5715 171.007 98.7478 170.679C102.245 170.154 103.035 167.689 102.814 164.861C102.772 164.312 102.465 164.429 102.134 164.511C100.817 164.841 99.4986 165.169 98.1803 165.498ZM109.953 159.068C111.271 158.739 112.591 158.417 113.906 158.077C114.188 158.004 114.574 158.058 114.449 157.494C114.041 155.646 111.986 153.802 110.101 153.853C106.461 153.953 104.975 156.209 105.298 159.736C105.351 160.311 105.693 160.126 105.998 160.052C107.317 159.728 108.635 159.396 109.953 159.068Z" fill="#7F7F7F"/>
<path d="M118.183 195.935C118.932 198.921 117.09 202.001 114.12 202.728C111.145 203.457 108.095 201.59 107.371 198.596C106.659 195.65 108.46 192.634 111.39 191.867C114.333 191.097 117.435 192.955 118.183 195.935ZM112.238 195.161C111.095 195.454 110.369 196.642 110.632 197.788C110.901 198.962 112.172 199.741 113.332 199.443C114.499 199.142 115.235 197.857 114.906 196.695C114.586 195.563 113.379 194.869 112.238 195.161Z" fill="#7F7F7F"/>
<path d="M100.728 125.93C101.473 128.912 99.6182 132.006 96.6561 132.719C93.6722 133.439 90.6331 131.57 89.914 128.574C89.2057 125.622 91.0135 122.608 93.9436 121.855C96.905 121.094 99.9813 122.941 100.728 125.93ZM93.1893 127.836C93.4857 128.971 94.6822 129.689 95.8298 129.42C97.0173 129.143 97.7711 127.894 97.4612 126.719C97.1637 125.59 95.9521 124.857 94.8181 125.118C93.6542 125.387 92.8851 126.671 93.1893 127.836Z" fill="#7F7F7F"/>
<path d="M81.0687 219.219L139.862 212L126.774 105.411L67.9813 112.63L81.0687 219.219Z" fill="#FEFEFE"/>
<path d="M129.375 102.037C131.208 116.924 133.042 131.811 134.874 146.698C136.126 156.879 137.362 167.061 138.646 177.238C138.757 178.115 138.534 178.341 137.697 178.424C135.437 178.647 135.441 178.686 135.165 176.439C132.324 153.304 129.476 130.17 126.669 107.032C126.542 105.986 126.28 105.752 125.215 105.886C106.792 108.186 88.364 110.445 69.9329 112.68C68.9737 112.796 68.6927 113.02 68.8208 114.056C73.0724 148.425 77.2923 182.799 81.4845 217.176C81.6022 218.141 81.8552 218.337 82.8182 218.217C101.315 215.913 119.816 213.643 138.319 211.399C139.212 211.291 139.445 211.07 139.327 210.141C138.225 201.498 137.192 192.846 136.098 184.202C135.992 183.364 136.149 183.08 137.025 182.996C139.303 182.777 139.298 182.731 139.573 184.969C140.724 194.347 141.864 203.726 143.047 213.1C143.154 213.945 142.982 214.192 142.12 214.297C121.354 216.82 100.591 219.372 79.8306 221.938C79.0594 222.034 78.7133 221.995 78.5989 221.057C74.1031 184.199 69.5734 147.345 65.0489 110.49C65.0265 110.308 65.0137 110.125 64.9965 109.942C86.4559 107.307 107.915 104.672 129.375 102.037Z" fill="#12B6CB"/>
<path d="M129.647 159.191C131.148 171.412 132.638 183.635 134.17 195.853C134.289 196.795 134.189 197.21 133.16 197.542C127.59 199.343 124.701 203.168 124.346 209.1C124.303 209.816 124.104 210.019 123.432 210.1C114.565 211.168 105.699 212.256 96.8364 213.366C96.155 213.451 95.9142 213.289 95.7156 212.608C94.3918 208.065 91.4998 205.048 86.8635 203.856C85.9131 203.612 84.9068 203.52 83.9228 203.495C83.2844 203.478 83.0635 203.259 83.062 202.677C83.0615 202.494 83.0206 202.312 82.9982 202.129C79.9925 177.65 76.9901 153.169 73.9672 128.691C73.8606 127.828 73.9 127.398 74.925 127.074C80.5 125.307 83.4286 121.455 83.7897 115.555C83.835 114.818 84.0218 114.577 84.7583 114.49C93.5906 113.432 102.42 112.349 111.245 111.237C111.99 111.143 112.218 111.348 112.438 112.044C114.217 117.677 117.997 120.693 123.831 121.082C124.763 121.143 125.032 121.39 125.142 122.304C126.617 134.602 128.138 146.896 129.647 159.191ZM101.346 140.093C89.1279 141.585 80.4101 152.724 81.8579 164.995C83.2962 177.185 94.4235 185.916 106.736 184.514C118.93 183.126 127.815 171.772 126.272 159.55C124.726 147.304 113.575 138.6 101.346 140.093ZM127.847 172.274C123.499 181.218 116.793 186.641 107.192 187.82C97.5849 188.999 89.7565 185.329 83.503 177.849C83.4976 178.185 83.4829 178.296 83.496 178.404C84.358 185.445 85.2319 192.485 86.0704 199.529C86.1495 200.194 86.469 200.333 87.0384 200.454C92.0221 201.513 95.676 204.317 97.8974 208.915C98.2067 209.556 98.5226 209.739 99.2272 209.65C106.228 208.762 113.233 207.906 120.24 207.065C120.87 206.99 121.17 206.818 121.312 206.125C122.345 201.084 125.214 197.431 129.844 195.198C130.466 194.898 130.604 194.585 130.521 193.94C130.01 190.004 129.54 186.062 129.056 182.122C128.666 178.951 128.277 175.779 127.847 172.274ZM124.635 146.823C124.631 146.399 124.646 146.231 124.626 146.067C123.769 139.062 122.898 132.058 122.065 125.05C121.984 124.37 121.632 124.261 121.079 124.143C116.095 123.077 112.446 120.266 110.231 115.667C109.914 115.009 109.578 114.867 108.89 114.954C101.925 115.835 94.9572 116.694 87.9852 117.517C87.2357 117.605 86.9481 117.858 86.7916 118.601C85.7613 123.511 82.9691 127.095 78.4691 129.307C77.7738 129.649 77.519 129.974 77.6241 130.791C78.4959 137.571 79.3105 144.359 80.1518 151.144C80.1881 151.437 80.1123 151.789 80.4163 152.042C88.5409 133.973 112.278 131.157 124.635 146.823Z" fill="#12B6CB"/>
<path d="M97.5279 161.394C98.8414 161.232 100.152 161.034 101.469 160.926C102.128 160.871 102.292 160.636 102.304 159.98C102.345 157.699 102.874 155.575 104.4 153.76C107.094 150.555 114.379 149.633 117.254 155.581C117.635 156.37 117.974 157.198 118.176 158.045C118.338 158.722 118.631 158.847 119.246 158.738C120.041 158.596 120.853 158.551 121.651 158.424C122.118 158.35 122.355 158.481 122.355 158.968C122.355 159.004 122.362 159.041 122.368 159.077C122.819 161.704 122.824 161.756 120.152 162.006C119.115 162.102 118.796 162.403 118.752 163.501C118.608 166.996 117.302 169.839 113.787 171.216C111.888 171.96 111.838 171.941 111.595 169.957C111.555 169.629 111.533 169.297 111.47 168.973C111.383 168.524 111.539 168.35 111.996 168.22C114.316 167.56 115.649 165.568 115.492 163.155C115.46 162.68 115.279 162.624 114.878 162.675C112.07 163.03 109.261 163.386 106.448 163.702C105.874 163.767 105.86 164.051 105.848 164.507C105.785 166.826 105.291 168.99 103.737 170.837C101.043 174.043 93.7589 174.965 90.8835 169.016C90.5027 168.228 90.1634 167.4 89.9608 166.552C89.799 165.875 89.5066 165.75 88.8916 165.86C88.0964 166.001 87.2846 166.046 86.4865 166.173C86.0196 166.248 85.7823 166.116 85.7819 165.63C85.7819 165.593 85.7748 165.557 85.7686 165.52C85.3178 162.894 85.3129 162.842 87.9851 162.592C89.0221 162.495 89.3405 162.195 89.3858 161.096C89.5289 157.602 90.835 154.759 94.3503 153.382C96.2507 152.637 96.2986 152.656 96.5423 154.64C96.5826 154.969 96.6042 155.301 96.6676 155.625C96.7554 156.074 96.5977 156.247 96.1415 156.378C93.8189 157.042 92.495 159.03 92.6434 161.443C92.6804 162.05 92.9948 161.952 93.3684 161.906C94.7546 161.732 96.1414 161.564 97.5279 161.394ZM97.8468 164.771C96.4984 164.936 95.149 165.093 93.8029 165.275C93.5255 165.312 93.1292 165.184 93.1635 165.762C93.2927 167.946 95.5786 170.043 97.7786 169.983C101.313 169.888 102.398 167.538 102.524 164.704C102.548 164.154 102.23 164.232 101.892 164.274C100.544 164.44 99.1953 164.606 97.8468 164.771ZM110.315 159.824C111.664 159.658 113.013 159.499 114.36 159.322C114.649 159.284 115.025 159.385 114.97 158.81C114.789 156.925 112.975 154.845 111.098 154.666C107.473 154.321 105.722 156.38 105.614 159.919C105.596 160.496 105.958 160.355 106.27 160.318C107.619 160.157 108.967 159.989 110.315 159.824Z" fill="#12B6CB"/>
<path d="M113.991 197.42C114.371 200.474 112.167 203.307 109.131 203.666C106.088 204.027 103.289 201.803 102.936 198.743C102.588 195.732 104.743 192.958 107.745 192.554C110.759 192.149 113.611 194.371 113.991 197.42ZM108.185 195.927C107.015 196.078 106.149 197.168 106.27 198.338C106.394 199.536 107.561 200.465 108.749 200.31C109.943 200.154 110.831 198.968 110.646 197.775C110.466 196.611 109.353 195.776 108.185 195.927Z" fill="#12B6CB"/>
<path d="M105.198 125.809C105.574 128.86 103.356 131.704 100.329 132.051C97.2792 132.402 94.4906 130.176 94.142 127.115C93.7986 124.099 95.9603 121.328 98.9603 120.937C101.992 120.543 104.821 122.752 105.198 125.809ZM97.4828 126.782C97.6386 127.945 98.7387 128.803 99.9105 128.676C101.123 128.545 102.023 127.398 101.859 126.193C101.701 125.037 100.588 124.162 99.4306 124.283C98.2426 124.408 97.3228 125.588 97.4828 126.782Z" fill="#12B6CB"/>
<path d="M200.419 78.5342V232.749H113.309V78.5342H200.419Z" fill="white"/>
<path d="M198.748 88.2709V229.08C198.748 233.243 195.811 236.623 192.193 236.623H120.524C116.906 236.623 113.969 233.243 113.969 229.08V88.2709C113.969 84.1077 116.906 80.7275 120.524 80.7275H192.193C195.811 80.7275 198.748 84.1077 198.748 88.2709Z" fill="white"/>
<path d="M198.748 88.2709V229.08C198.748 233.243 195.811 236.623 192.193 236.623H120.524C116.906 236.623 113.969 233.243 113.969 229.08V88.2709C113.969 84.1077 116.906 80.7275 120.524 80.7275H192.193C195.811 80.7275 198.748 84.1077 198.748 88.2709Z" stroke="url(#paint0_linear_331_3829)" stroke-width="10.079" stroke-linecap="round"/>
<path d="M156.098 210.996C157.765 211.022 159.431 211.04 161.097 211.074C163.826 211.13 165.797 213.198 165.774 215.969C165.752 218.624 163.757 220.65 161.097 220.705C159.431 220.74 157.765 220.758 156.098 220.784C154.534 220.766 152.969 220.764 151.404 220.728C148.49 220.66 146.389 218.623 146.389 215.889C146.389 213.154 148.489 211.118 151.404 211.052C152.969 211.016 154.534 211.014 156.098 210.996Z" fill="#F37413"/>
<path d="M156.098 93.5898C159.117 93.9703 160.884 95.7383 160.908 98.4014C160.934 101.175 159.184 102.985 156.098 103.377C151.905 103.111 149.861 98.6292 152.317 95.4967C153.276 94.2731 154.597 93.7485 156.098 93.5898Z" fill="#87539A"/>
<path d="M223.307 194.676H117.393C117.003 194.676 116.683 194.356 116.683 193.966V117.54C116.683 117.149 117.003 116.83 117.393 116.83H223.307C223.697 116.83 224.016 117.149 224.016 117.54V193.966C224.016 194.356 223.697 194.676 223.307 194.676Z" fill="white"/>
<path d="M223.307 194.676H117.393C117.003 194.676 116.683 194.356 116.683 193.966V117.54C116.683 117.149 117.003 116.83 117.393 116.83H223.307C223.697 116.83 224.016 117.149 224.016 117.54V193.966C224.016 194.356 223.697 194.676 223.307 194.676Z" stroke="#12B6CA" stroke-width="3.19301" stroke-miterlimit="10"/>
<path d="M201.871 179.283C200.25 179.282 198.628 179.318 197.008 179.275C194.244 179.201 192.144 177.111 192.113 174.459C192.08 171.743 194.214 169.574 197.057 169.535C200.244 169.49 203.433 169.492 206.62 169.534C209.49 169.571 211.612 171.698 211.597 174.426C211.582 177.154 209.455 179.223 206.571 179.278C205.005 179.308 203.437 179.283 201.871 179.283Z" fill="white"/>
<path d="M201.871 179.283C200.25 179.282 198.628 179.318 197.008 179.275C194.244 179.201 192.144 177.111 192.113 174.459C192.08 171.743 194.214 169.574 197.057 169.535C200.244 169.49 203.433 169.492 206.62 169.534C209.49 169.571 211.612 171.698 211.597 174.426C211.582 177.154 209.455 179.223 206.571 179.278C205.005 179.308 203.437 179.283 201.871 179.283Z" stroke="#12B6CA" stroke-width="3.19301" stroke-miterlimit="10"/>
<path d="M223.12 145.967H117.523V135.038H223.12V145.967Z" fill="white"/>
<path d="M223.12 145.967H117.523V135.038H223.12V145.967Z" stroke="#12B6CA" stroke-width="3.19301" stroke-miterlimit="10"/>
</g>
</g>
<defs>
<linearGradient id="paint0_linear_331_3829" x1="114.903" y1="75.7643" x2="208.516" y2="234.942" gradientUnits="userSpaceOnUse">
<stop stop-color="#F37413"/>
<stop offset="0.12" stop-color="#F37413" stop-opacity="0.7"/>
<stop offset="0.25" stop-color="#F37413" stop-opacity="0.4"/>
<stop offset="0.4" stop-color="#8E4489"/>
<stop offset="0.55" stop-color="#855195"/>
<stop offset="0.68" stop-color="#4A7EBA"/>
<stop offset="0.8" stop-color="#10ACDF"/>
<stop offset="0.9" stop-color="#1BB6DD"/>
<stop offset="1" stop-color="#27C0DB"/>
</linearGradient>
<clipPath id="clip0_331_3829">
<rect width="273" height="273" fill="white"/>
</clipPath>
</defs>
</svg>
