<svg width="24" height="24" viewBox="0 0 24 24" fill="none" xmlns="http://www.w3.org/2000/svg">
<path d="M12.28 10.8732C11.5302 10.8653 10.7995 10.6358 10.1799 10.2135C9.56024 9.79114 9.07942 9.19494 8.79793 8.49992C8.51644 7.80491 8.44687 7.04214 8.59798 6.30767C8.74909 5.5732 9.11412 4.89985 9.64712 4.3724C10.1801 3.84496 10.8573 3.48699 11.5933 3.34358C12.3293 3.20017 13.0913 3.27772 13.7833 3.56648C14.4753 3.85523 15.0665 4.34227 15.4823 4.96628C15.8981 5.59029 16.12 6.32337 16.12 7.07323C16.113 8.08581 15.7049 9.05432 14.9851 9.76658C14.2653 10.4788 13.2926 10.8768 12.28 10.8732ZM12.28 4.60656C11.7939 4.61445 11.321 4.76579 10.9207 5.04157C10.5203 5.31736 10.2104 5.7053 10.0298 6.15666C9.84926 6.60803 9.80608 7.10268 9.90573 7.5785C10.0054 8.05433 10.2434 8.49009 10.5899 8.83107C10.9364 9.17205 11.376 9.40304 11.8533 9.49502C12.3307 9.587 12.8246 9.53587 13.273 9.34805C13.7214 9.16024 14.1043 8.84412 14.3736 8.43939C14.6429 8.03466 14.7866 7.55937 14.7867 7.07323C14.7796 6.41427 14.512 5.7849 14.0423 5.32268C13.5726 4.86047 12.939 4.603 12.28 4.60656Z" fill="#0C0404"/>
<path d="M12.2801 10.8732C11.5303 10.8653 10.7995 10.6358 10.1799 10.2135C9.56029 9.79114 9.07947 9.19494 8.79798 8.49992C8.51649 7.80491 8.44692 7.04214 8.59803 6.30767C8.74914 5.5732 9.11417 4.89985 9.64717 4.3724C10.1802 3.84496 10.8573 3.48699 11.5933 3.34358C12.3293 3.20017 13.0913 3.27772 13.7834 3.56648C14.4754 3.85523 15.0665 4.34227 15.4823 4.96628C15.8981 5.59029 16.12 6.32337 16.1201 7.07323C16.113 8.08581 15.7049 9.05432 14.9852 9.76658C14.2654 10.4788 13.2927 10.8768 12.2801 10.8732ZM12.2801 4.60656C11.794 4.61445 11.3211 4.76579 10.9207 5.04157C10.5204 5.31736 10.2105 5.7053 10.0299 6.15666C9.84931 6.60803 9.80613 7.10268 9.90578 7.5785C10.0054 8.05433 10.2435 8.49009 10.59 8.83107C10.9365 9.17205 11.376 9.40304 11.8534 9.49502C12.3307 9.587 12.8246 9.53587 13.273 9.34805C13.7214 9.16024 14.1043 8.84412 14.3736 8.43939C14.643 8.03466 14.7867 7.55937 14.7867 7.07323C14.7797 6.41427 14.5121 5.7849 14.0424 5.32268C13.5727 4.86047 12.9391 4.603 12.2801 4.60656ZM14.6067 11.7666C11.6498 11.252 8.60565 11.7203 5.94007 13.0999C5.75085 13.205 5.59418 13.36 5.48718 13.5482C5.38018 13.7363 5.32698 13.9502 5.33341 14.1666V16.5399C5.33341 16.7167 5.40364 16.8863 5.52867 17.0113C5.65369 17.1363 5.82326 17.2066 6.00007 17.2066C6.17688 17.2066 6.34645 17.1363 6.47148 17.0113C6.5965 16.8863 6.66674 16.7167 6.66674 16.5399V14.2532C9.13852 13.013 11.9494 12.6195 14.6667 13.1332L14.6067 11.7666Z" fill="#0C0404"/>
<path d="M22.0001 14.6668H17.5334V13.6801C17.5334 13.5033 17.4632 13.3337 17.3382 13.2087C17.2131 13.0837 17.0436 13.0134 16.8667 13.0134C16.6899 13.0134 16.5204 13.0837 16.3953 13.2087C16.2703 13.3337 16.2001 13.5033 16.2001 13.6801V14.6668H11.3334C11.1566 14.6668 10.987 14.737 10.862 14.862C10.737 14.987 10.6667 15.1566 10.6667 15.3334V22.0001C10.6667 22.1769 10.737 22.3465 10.862 22.4715C10.987 22.5965 11.1566 22.6668 11.3334 22.6668H22.0001C22.1769 22.6668 22.3465 22.5965 22.4715 22.4715C22.5965 22.3465 22.6667 22.1769 22.6667 22.0001V15.3334C22.6667 15.1566 22.5965 14.987 22.4715 14.862C22.3465 14.737 22.1769 14.6668 22.0001 14.6668ZM21.3334 21.3334H12.0001V16.0001H16.2001V16.2734C16.2001 16.4502 16.2703 16.6198 16.3953 16.7448C16.5204 16.8699 16.6899 16.9401 16.8667 16.9401C17.0436 16.9401 17.2131 16.8699 17.3382 16.7448C17.4632 16.6198 17.5334 16.4502 17.5334 16.2734V16.0001H21.3334V21.3334Z" fill="#0C0404"/>
<path d="M14.54 18.28H18.5134V19.2133H14.54V18.28ZM7.22671 8.16C5.381 8.19088 3.5673 8.64715 1.92671 9.49333C1.74828 9.58758 1.59883 9.72854 1.49432 9.90116C1.38981 10.0738 1.33418 10.2715 1.33337 10.4733V12.54C1.33337 12.7168 1.40361 12.8864 1.52864 13.0114C1.65366 13.1364 1.82323 13.2067 2.00004 13.2067C2.17685 13.2067 2.34642 13.1364 2.47145 13.0114C2.59647 12.8864 2.66671 12.7168 2.66671 12.54V10.6067C4.23424 9.82641 5.96975 9.44405 7.72004 9.49333C7.49104 9.07551 7.32481 8.62625 7.22671 8.16ZM22.0734 9.48666C20.6019 8.7148 18.9848 8.26056 17.3267 8.15333C17.2291 8.61876 17.0652 9.06777 16.84 9.48666C18.4021 9.52405 19.9365 9.90652 21.3334 10.6067V12.54C21.3334 12.7168 21.4036 12.8864 21.5286 13.0114C21.6537 13.1364 21.8232 13.2067 22 13.2067C22.1769 13.2067 22.3464 13.1364 22.4714 13.0114C22.5965 12.8864 22.6667 12.7168 22.6667 12.54V10.4733C22.6671 10.2704 22.6121 10.0712 22.5075 9.89735C22.4029 9.72345 22.2528 9.58144 22.0734 9.48666ZM7.10671 7.07333V6.62666C6.58445 6.55677 6.10927 6.28815 5.78009 5.87673C5.4509 5.4653 5.29308 4.94277 5.33946 4.4179C5.38585 3.89304 5.63288 3.40628 6.02912 3.05897C6.42536 2.71165 6.94029 2.53054 7.46671 2.55333C8.01425 2.55234 8.54053 2.76524 8.93337 3.14666C9.27997 2.86078 9.66065 2.61894 10.0667 2.42666C9.61312 1.9051 9.01213 1.53322 8.34296 1.36004C7.6738 1.18686 6.96786 1.22051 6.3182 1.45656C5.66854 1.6926 5.10565 2.11996 4.70373 2.6823C4.3018 3.24464 4.0797 3.91557 4.06671 4.60666C4.0807 5.4525 4.40951 6.26274 4.98891 6.87913C5.56831 7.49551 6.35669 7.87376 7.20004 7.94C7.14349 7.65442 7.11226 7.3644 7.10671 7.07333ZM16.5134 1.22C16.0552 1.2201 15.6017 1.31153 15.1793 1.48896C14.7569 1.66639 14.3742 1.92624 14.0534 2.25333C14.5041 2.41664 14.9303 2.64095 15.32 2.92C15.6313 2.70395 15.9953 2.57642 16.3733 2.551C16.7513 2.52559 17.1292 2.60324 17.4665 2.77568C17.8039 2.94812 18.0881 3.20888 18.2889 3.53016C18.4897 3.85144 18.5995 4.2212 18.6067 4.6C18.6025 4.98909 18.4882 5.36904 18.277 5.69585C18.0658 6.02266 17.7664 6.28298 17.4134 6.44666C17.4402 6.65224 17.4536 6.85935 17.4534 7.06666C17.4516 7.33464 17.4293 7.60209 17.3867 7.86666C18.113 7.67995 18.7571 7.25838 19.2189 6.66757C19.6807 6.07676 19.9342 5.34985 19.94 4.6C19.9312 3.6982 19.5659 2.83653 18.9239 2.20322C18.2818 1.56991 17.4152 1.21643 16.5134 1.22Z" fill="#0C0404"/>
</svg>
