<svg width="26" height="26" viewBox="0 0 26 26" fill="none" xmlns="http://www.w3.org/2000/svg">
<path d="M13 9.25C12.7528 9.25 12.5111 9.32331 12.3055 9.46066C12.1 9.59802 11.9398 9.79324 11.8452 10.0216C11.7505 10.2501 11.7258 10.5014 11.774 10.7439C11.8223 10.9863 11.9413 11.2091 12.1161 11.3839C12.2909 11.5587 12.5137 11.6778 12.7561 11.726C12.9986 11.7742 13.2499 11.7495 13.4784 11.6549C13.7068 11.5602 13.902 11.4 14.0393 11.1945C14.1767 10.9889 14.25 10.7472 14.25 10.5C14.25 10.1685 14.1183 9.85054 13.8839 9.61612C13.6495 9.3817 13.3315 9.25 13 9.25ZM21.75 0.5H4.25C3.25544 0.5 2.30161 0.895088 1.59835 1.59835C0.895088 2.30161 0.5 3.25544 0.5 4.25V16.75C0.5 17.7446 0.895088 18.6984 1.59835 19.4017C2.30161 20.1049 3.25544 20.5 4.25 20.5H18.7375L23.3625 25.1375C23.4793 25.2534 23.6178 25.345 23.7701 25.4072C23.9224 25.4694 24.0855 25.501 24.25 25.5C24.414 25.5042 24.5767 25.47 24.725 25.4C24.9533 25.3062 25.1487 25.147 25.2866 24.9423C25.4245 24.7377 25.4988 24.4968 25.5 24.25V4.25C25.5 3.25544 25.1049 2.30161 24.4017 1.59835C23.6984 0.895088 22.7446 0.5 21.75 0.5ZM23 21.2375L20.1375 18.3625C20.0207 18.2467 19.8822 18.155 19.7299 18.0928C19.5776 18.0306 19.4145 17.9991 19.25 18H4.25C3.91848 18 3.60054 17.8683 3.36612 17.6339C3.1317 17.3995 3 17.0815 3 16.75V4.25C3 3.91848 3.1317 3.60054 3.36612 3.36612C3.60054 3.1317 3.91848 3 4.25 3H21.75C22.0815 3 22.3995 3.1317 22.6339 3.36612C22.8683 3.60054 23 3.91848 23 4.25V21.2375ZM8 9.25C7.75277 9.25 7.5111 9.32331 7.30554 9.46066C7.09998 9.59802 6.93976 9.79324 6.84515 10.0216C6.75054 10.2501 6.72579 10.5014 6.77402 10.7439C6.82225 10.9863 6.9413 11.2091 7.11612 11.3839C7.29093 11.5587 7.51366 11.6778 7.75614 11.726C7.99861 11.7742 8.24995 11.7495 8.47836 11.6549C8.70676 11.5602 8.90199 11.4 9.03934 11.1945C9.17669 10.9889 9.25 10.7472 9.25 10.5C9.25 10.1685 9.11831 9.85054 8.88388 9.61612C8.64946 9.3817 8.33152 9.25 8 9.25ZM18 9.25C17.7528 9.25 17.5111 9.32331 17.3055 9.46066C17.1 9.59802 16.9398 9.79324 16.8452 10.0216C16.7505 10.2501 16.7258 10.5014 16.774 10.7439C16.8223 10.9863 16.9413 11.2091 17.1161 11.3839C17.2909 11.5587 17.5137 11.6778 17.7561 11.726C17.9986 11.7742 18.2499 11.7495 18.4784 11.6549C18.7068 11.5602 18.902 11.4 19.0393 11.1945C19.1767 10.9889 19.25 10.7472 19.25 10.5C19.25 10.1685 19.1183 9.85054 18.8839 9.61612C18.6495 9.3817 18.3315 9.25 18 9.25Z" fill="#F37413" fill-opacity="0.8"/>
</svg>
