<svg width="24" height="24" viewBox="0 0 24 24" fill="none" xmlns="http://www.w3.org/2000/svg">
<path d="M4.28569 23.1431H19.7143M4.28569 14.5716H19.7143M23.0228 5.82879C22.8485 5.10985 22.4903 4.44857 21.9834 3.90978C21.4765 3.37099 20.8382 2.97319 20.1312 2.75539C19.4242 2.53759 18.6728 2.50726 17.9506 2.66739C17.2283 2.82752 16.5601 3.17259 16.0114 3.66879C15.7119 2.84543 15.1663 2.13418 14.4487 1.63158C13.731 1.12897 12.8761 0.859375 12 0.859375C11.1238 0.859375 10.2689 1.12897 9.55129 1.63158C8.83365 2.13418 8.28804 2.84543 7.98855 3.66879C7.43986 3.17259 6.77164 2.82752 6.0494 2.66739C5.32717 2.50726 4.57572 2.53759 3.86873 2.75539C3.16174 2.97319 2.5235 3.37099 2.01658 3.90978C1.50966 4.44857 1.15146 5.10985 0.97712 5.82879C0.840909 6.38983 0.818997 6.97255 0.912689 7.54223C1.00638 8.11192 1.21376 8.65692 1.52248 9.14479C1.83119 9.63266 2.23493 10.0534 2.70965 10.382C3.18437 10.7106 3.72035 10.9402 4.28569 11.0574V17.1431C4.28569 17.5977 4.4663 18.0338 4.78779 18.3553C5.10928 18.6767 5.54532 18.8574 5.99998 18.8574H18C18.4546 18.8574 18.8907 18.6767 19.2122 18.3553C19.5337 18.0338 19.7143 17.5977 19.7143 17.1431V11.0574C20.2796 10.9402 20.8156 10.7106 21.2903 10.382C21.765 10.0534 22.1688 9.63266 22.4775 9.14479C22.7862 8.65692 22.9936 8.11192 23.0873 7.54223C23.181 6.97255 23.159 6.38983 23.0228 5.82879Z" stroke="#F37413" stroke-width="1.71429" stroke-linecap="round" stroke-linejoin="round"/>
</svg>
