<svg width="176" height="176" viewBox="0 0 176 176" fill="none" xmlns="http://www.w3.org/2000/svg">
<g clip-path="url(#clip0_545_4995)">
<mask id="mask0_545_4995" style="mask-type:luminance" maskUnits="userSpaceOnUse" x="0" y="0" width="176" height="176">
<path d="M176 0H0V176H176V0Z" fill="white"/>
</mask>
<g mask="url(#mask0_545_4995)">
<mask id="mask1_545_4995" style="mask-type:luminance" maskUnits="userSpaceOnUse" x="-312" y="-137" width="800" height="450">
<path d="M-311.872 -136.928H487.872V312.928H-311.872V-136.928Z" fill="white"/>
</mask>
<g mask="url(#mask1_545_4995)">
<path d="M26.353 88C26.353 53.9534 53.9534 26.3531 88 26.3531C122.047 26.3531 149.647 53.9534 149.647 88C149.647 122.047 122.047 149.647 88 149.647C53.9534 149.647 26.353 122.047 26.353 88Z" stroke="#F37413" stroke-opacity="0.8" stroke-width="11.6629" stroke-linecap="round"/>
<path d="M58.2083 91.7489L78.8266 112.159C78.8266 112.159 105.183 85.8024 117.825 73.1606" stroke="#F37413" stroke-opacity="0.8" stroke-width="11.6629" stroke-linecap="round" stroke-linejoin="round"/>
<mask id="mask2_545_4995" style="mask-type:luminance" maskUnits="userSpaceOnUse" x="30" y="9" width="193" height="109">
<path d="M30.9114 9.70557H222.85V117.671H30.9114V9.70557Z" fill="white"/>
</mask>
<g mask="url(#mask2_545_4995)">
<g opacity="0.761308">
<path d="M154.545 58.6899C157.303 58.6899 159.543 60.9297 159.543 63.6883C159.543 66.447 157.303 68.6867 154.545 68.6867C151.786 68.6867 149.546 66.447 149.546 63.6883C149.546 60.9297 151.786 58.6899 154.545 58.6899Z" fill="#F3E4C3"/>
</g>
<g opacity="0.761308">
<path d="M149.977 79.7151C151.927 81.6657 151.927 84.8332 149.977 86.7839C148.026 88.7345 144.858 88.7345 142.908 86.7839C140.957 84.8332 140.957 81.6657 142.908 79.7151C144.858 77.7644 148.026 77.7644 149.977 79.7151Z" fill="#F3E4C3"/>
</g>
<g opacity="0.761308">
<path d="M131.879 91.3524C131.879 94.111 129.64 96.3508 126.881 96.3508C124.122 96.3508 121.883 94.111 121.883 91.3524C121.883 88.5938 124.122 86.354 126.881 86.354C129.64 86.354 131.879 88.5938 131.879 91.3524Z" fill="#F3E4C3"/>
</g>
<g opacity="0.761308">
<path d="M110.854 86.7839C108.903 88.7346 105.736 88.7346 103.785 86.7839C101.835 84.8333 101.835 81.6657 103.785 79.7151C105.736 77.7645 108.903 77.7645 110.854 79.7151C112.805 81.6657 112.805 84.8333 110.854 86.7839Z" fill="#F3E4C3"/>
</g>
<g opacity="0.761308">
<path d="M99.2172 68.687C96.4586 68.687 94.2188 66.4472 94.2188 63.6886C94.2188 60.93 96.4586 58.6902 99.2172 58.6902C101.976 58.6902 104.216 60.93 104.216 63.6886C104.216 66.4472 101.976 68.687 99.2172 68.687Z" fill="#F3E4C3"/>
</g>
<g opacity="0.761308">
<path d="M103.785 47.6614C101.835 45.7108 101.835 42.5432 103.785 40.5926C105.736 38.642 108.903 38.642 110.854 40.5926C112.805 42.5432 112.805 45.7108 110.854 47.6614C108.903 49.612 105.736 49.612 103.785 47.6614Z" fill="#F3E4C3"/>
</g>
<g opacity="0.761308">
<path d="M121.883 36.0245C121.883 33.2659 124.122 31.0261 126.881 31.0261C129.64 31.0261 131.879 33.2659 131.879 36.0245C131.879 38.7832 129.64 41.0229 126.881 41.0229C124.122 41.0229 121.883 38.7832 121.883 36.0245Z" fill="#F3E4C3"/>
</g>
<g opacity="0.761308">
<path d="M142.908 40.5926C144.858 38.6419 148.026 38.6419 149.976 40.5926C151.927 42.5432 151.927 45.7107 149.976 47.6614C148.026 49.612 144.858 49.612 142.908 47.6614C140.957 45.7107 140.957 42.5432 142.908 40.5926Z" fill="#F3E4C3"/>
</g>
</g>
</g>
</g>
</g>
<defs>
<clipPath id="clip0_545_4995">
<rect width="176" height="176" fill="white"/>
</clipPath>
</defs>
</svg>
