<svg width="26" height="24" viewBox="0 0 26 24" fill="none" xmlns="http://www.w3.org/2000/svg">
<path d="M21.4 15.4504C21.8375 14.3879 22.075 13.2504 22.075 12.0004C22.075 11.1004 21.9375 10.2379 21.7 9.43786C20.8875 9.62536 20.0375 9.72536 19.15 9.72536C17.3325 9.72731 15.5411 9.29226 13.9269 8.45689C12.3127 7.62152 10.923 6.41031 9.875 4.92536C8.75387 7.63808 6.63891 9.82012 3.9625 11.0254C3.9125 11.3379 3.9125 11.6754 3.9125 12.0004C3.9125 13.1938 4.14756 14.3755 4.60425 15.478C5.06094 16.5805 5.73032 17.5823 6.57417 18.4262C8.27841 20.1304 10.5898 21.0879 13 21.0879C14.3125 21.0879 15.575 20.8004 16.7125 20.2879C17.425 21.6504 17.75 22.3254 17.725 22.3254C15.675 23.0129 14.0875 23.3504 13 23.3504C9.975 23.3504 7.0875 22.1629 4.9625 20.0254C3.67 18.7368 2.70921 17.1541 2.1625 15.4129H0.5V9.72536H1.8625C2.2753 7.716 3.22437 5.85587 4.60899 4.34235C5.99361 2.82883 7.76214 1.71837 9.72691 1.12881C11.6917 0.539247 13.7794 0.492575 15.7686 0.993744C17.7577 1.49491 19.5741 2.52523 21.025 3.97536C22.6003 5.54443 23.6748 7.54549 24.1125 9.72536H25.5V15.4129H25.425L20.975 19.5004L14.35 18.7504V16.6629H20.3875L21.4 15.4504ZM9.5875 11.7129C9.9625 11.7129 10.325 11.8629 10.5875 12.1379C10.8513 12.4038 10.9993 12.7633 10.9993 13.1379C10.9993 13.5125 10.8513 13.8719 10.5875 14.1379C10.325 14.4004 9.9625 14.5504 9.5875 14.5504C8.8 14.5504 8.1625 13.9254 8.1625 13.1379C8.1625 12.3504 8.8 11.7129 9.5875 11.7129ZM16.4 11.7129C17.1875 11.7129 17.8125 12.3504 17.8125 13.1379C17.8125 13.9254 17.1875 14.5504 16.4 14.5504C15.6125 14.5504 14.975 13.9254 14.975 13.1379C14.975 12.7599 15.1251 12.3975 15.3924 12.1302C15.6596 11.863 16.0221 11.7129 16.4 11.7129Z" fill="#F37413" fill-opacity="0.8"/>
</svg>
