<svg width="21" height="21" viewBox="0 0 21 21" fill="none" xmlns="http://www.w3.org/2000/svg">
<path d="M14 0C14.2652 0 14.5196 0.105357 14.7071 0.292893C14.8946 0.48043 15 0.734784 15 1V1.999L20 2V8L17.98 7.999L20.747 15.595C20.9346 16.1029 21.0171 16.6436 20.9895 17.1843C20.9619 17.725 20.8249 18.2545 20.5867 18.7407C20.3484 19.2269 20.014 19.6596 19.6036 20.0128C19.1932 20.3659 18.7153 20.632 18.1991 20.795C17.6828 20.9581 17.1388 21.0146 16.6 20.9611C16.0612 20.9077 15.5389 20.7455 15.0647 20.4842C14.5904 20.223 14.1742 19.8682 13.8411 19.4414C13.5081 19.0145 13.2651 18.5245 13.127 18.001H8.874C8.64652 18.8786 8.12779 19.653 7.40275 20.1973C6.67771 20.7416 5.78933 21.0237 4.88309 20.9972C3.97685 20.9707 3.10646 20.6373 2.41445 20.0515C1.72244 19.4658 1.24983 18.6624 1.074 17.773C0.749866 17.6041 0.478316 17.3494 0.288937 17.0368C0.0995583 16.7241 -0.000383512 16.3655 1.10595e-06 16V11H9C9.00003 11.2449 9.08996 11.4813 9.25272 11.6644C9.41547 11.8474 9.63975 11.9643 9.883 11.993L10 12H12C12.2449 12 12.4813 11.91 12.6644 11.7473C12.8474 11.5845 12.9643 11.3603 12.993 11.117L13 11V2H10V0H14ZM5 15C4.46957 15 3.96086 15.2107 3.58579 15.5858C3.21071 15.9609 3 16.4696 3 17C3 17.5304 3.21071 18.0391 3.58579 18.4142C3.96086 18.7893 4.46957 19 5 19C5.53043 19 6.03914 18.7893 6.41421 18.4142C6.78929 18.0391 7 17.5304 7 17C7 16.4696 6.78929 15.9609 6.41421 15.5858C6.03914 15.2107 5.53043 15 5 15ZM17 15C16.4696 15 15.9609 15.2107 15.5858 15.5858C15.2107 15.9609 15 16.4696 15 17C15 17.5304 15.2107 18.0391 15.5858 18.4142C15.9609 18.7893 16.4696 19 17 19C17.5304 19 18.0391 18.7893 18.4142 18.4142C18.7893 18.0391 19 17.5304 19 17C19 16.4696 18.7893 15.9609 18.4142 15.5858C18.0391 15.2107 17.5304 15 17 15ZM8 2C8.26522 2 8.51957 2.10536 8.70711 2.29289C8.89464 2.48043 9 2.73478 9 3V10H1.10595e-06V3C1.10595e-06 2.73478 0.105358 2.48043 0.292894 2.29289C0.480431 2.10536 0.734785 2 1 2H8ZM18 4H15V6H18V4ZM7 4H2V5H7V4Z" fill="#F37413"/>
</svg>
