<svg width="24" height="30" viewBox="0 0 24 30" fill="none" xmlns="http://www.w3.org/2000/svg">
<path fill-rule="evenodd" clip-rule="evenodd" d="M0.666687 3.66683C0.666687 2.91538 0.965198 2.19471 1.49655 1.66336C2.0279 1.13201 2.74857 0.833496 3.50002 0.833496H20.5C21.2515 0.833496 21.9721 1.13201 22.5035 1.66336C23.0348 2.19471 23.3334 2.91538 23.3334 3.66683V26.3335C23.3334 27.0849 23.0348 27.8056 22.5035 28.337C21.9721 28.8683 21.2515 29.1668 20.5 29.1668H3.50002C2.74857 29.1668 2.0279 28.8683 1.49655 28.337C0.965198 27.8056 0.666687 27.0849 0.666687 26.3335V3.66683ZM20.5 3.66683H3.50002V26.3335H20.5V3.66683ZM11.3597 7.58108C11.6253 7.84674 11.7745 8.20701 11.7745 8.58266C11.7745 8.95831 11.6253 9.31858 11.3597 9.58425L8.60427 12.3368C8.27222 12.6686 7.82203 12.855 7.35264 12.855C6.88326 12.855 6.43307 12.6686 6.10102 12.3368L4.84869 11.0845C4.71338 10.9538 4.60546 10.7975 4.53121 10.6247C4.45696 10.4518 4.41788 10.2659 4.41625 10.0778C4.41461 9.88971 4.45046 9.70317 4.52169 9.52906C4.59292 9.35496 4.69811 9.19678 4.83113 9.06377C4.96414 8.93076 5.12232 8.82556 5.29642 8.75433C5.47052 8.6831 5.65707 8.64726 5.84517 8.64889C6.03328 8.65053 6.21917 8.68961 6.39201 8.76385C6.56485 8.8381 6.72117 8.94602 6.85185 9.08133L7.35335 9.58283L9.35652 7.57966C9.62218 7.31408 9.98245 7.16488 10.3581 7.16488C10.7338 7.16488 11.094 7.3155 11.3597 7.58108ZM13.4167 10.7502C13.4167 10.3744 13.5659 10.0141 13.8316 9.74843C14.0973 9.48275 14.4576 9.3335 14.8334 9.3335H17.6667C18.0424 9.3335 18.4027 9.48275 18.6684 9.74843C18.9341 10.0141 19.0834 10.3744 19.0834 10.7502C19.0834 11.1259 18.9341 11.4862 18.6684 11.7519C18.4027 12.0176 18.0424 12.1668 17.6667 12.1668H14.8334C14.4576 12.1668 14.0973 12.0176 13.8316 11.7519C13.5659 11.4862 13.4167 11.1259 13.4167 10.7502ZM4.91669 17.1252C4.91669 16.5616 5.14057 16.0211 5.53908 15.6226C5.9376 15.224 6.4781 15.0002 7.04169 15.0002H9.87502C10.4386 15.0002 10.9791 15.224 11.3776 15.6226C11.7761 16.0211 12 16.5616 12 17.1252V19.9585C12 20.5221 11.7761 21.0626 11.3776 21.4611C10.9791 21.8596 10.4386 22.0835 9.87502 22.0835H7.04169C6.4781 22.0835 5.9376 21.8596 5.53908 21.4611C5.14057 21.0626 4.91669 20.5221 4.91669 19.9585V17.1252ZM7.75002 17.8335V19.2502H9.16669V17.8335H7.75002ZM13.4167 18.5418C13.4167 18.1661 13.5659 17.8058 13.8316 17.5401C14.0973 17.2744 14.4576 17.1252 14.8334 17.1252H17.6667C18.0424 17.1252 18.4027 17.2744 18.6684 17.5401C18.9341 17.8058 19.0834 18.1661 19.0834 18.5418C19.0834 18.9176 18.9341 19.2779 18.6684 19.5436C18.4027 19.8092 18.0424 19.9585 17.6667 19.9585H14.8334C14.4576 19.9585 14.0973 19.8092 13.8316 19.5436C13.5659 19.2779 13.4167 18.9176 13.4167 18.5418Z" fill="#F37413"/>
</svg>
