<svg width="34" height="24" viewBox="0 0 34 24" fill="none" xmlns="http://www.w3.org/2000/svg">
<path d="M34 2.375V23.625H2.125V19.375H0V0.25H29.75V2.375H34ZM25.5 2.375C25.5 2.67383 25.5553 2.95052 25.666 3.20508C25.7767 3.45964 25.9261 3.68099 26.1143 3.86914C26.3024 4.05729 26.5293 4.21224 26.7949 4.33398C27.0605 4.45573 27.3372 4.51107 27.625 4.5V2.375H25.5ZM2.125 4.5C2.42383 4.5 2.70052 4.44466 2.95508 4.33398C3.20964 4.22331 3.43099 4.07389 3.61914 3.88574C3.80729 3.69759 3.96224 3.4707 4.08398 3.20508C4.20573 2.93945 4.26107 2.66276 4.25 2.375H2.125V4.5ZM2.125 13C2.71159 13 3.25944 13.1107 3.76855 13.332C4.27767 13.5534 4.73145 13.8577 5.12988 14.2451C5.52832 14.6325 5.83268 15.0807 6.04297 15.5898C6.25326 16.099 6.36393 16.6523 6.375 17.25H23.375C23.375 16.6634 23.4857 16.1156 23.707 15.6064C23.9284 15.0973 24.2327 14.6436 24.6201 14.2451C25.0075 13.8467 25.4557 13.5423 25.9648 13.332C26.474 13.1217 27.0273 13.0111 27.625 13V6.625C27.0384 6.625 26.4906 6.51432 25.9814 6.29297C25.4723 6.07161 25.0186 5.76725 24.6201 5.37988C24.2217 4.99251 23.9173 4.54427 23.707 4.03516C23.4967 3.52604 23.3861 2.97266 23.375 2.375H6.375C6.375 2.96159 6.26432 3.50944 6.04297 4.01855C5.82161 4.52767 5.51725 4.98145 5.12988 5.37988C4.74251 5.77832 4.29427 6.08268 3.78516 6.29297C3.27604 6.50326 2.72266 6.61393 2.125 6.625V13ZM27.625 15.125C27.3262 15.125 27.0495 15.1803 26.7949 15.291C26.5404 15.4017 26.319 15.5511 26.1309 15.7393C25.9427 15.9274 25.7878 16.1543 25.666 16.4199C25.5443 16.6855 25.4889 16.9622 25.5 17.25H27.625V15.125ZM2.125 17.25H4.25C4.25 16.9512 4.19466 16.6745 4.08398 16.4199C3.97331 16.1654 3.82389 15.944 3.63574 15.7559C3.44759 15.5677 3.2207 15.4128 2.95508 15.291C2.68945 15.1693 2.41276 15.1139 2.125 15.125V17.25ZM31.875 4.5H29.75V19.375H4.25V21.5H31.875V4.5ZM7.4375 10.875C7.14974 10.875 6.90072 10.7699 6.69043 10.5596C6.48014 10.3493 6.375 10.1003 6.375 9.8125C6.375 9.52474 6.48014 9.27572 6.69043 9.06543C6.90072 8.85514 7.14974 8.75 7.4375 8.75C7.72526 8.75 7.97428 8.85514 8.18457 9.06543C8.39486 9.27572 8.5 9.52474 8.5 9.8125C8.5 10.1003 8.39486 10.3493 8.18457 10.5596C7.97428 10.7699 7.72526 10.875 7.4375 10.875ZM22.3125 10.875C22.0247 10.875 21.7757 10.7699 21.5654 10.5596C21.3551 10.3493 21.25 10.1003 21.25 9.8125C21.25 9.52474 21.3551 9.27572 21.5654 9.06543C21.7757 8.85514 22.0247 8.75 22.3125 8.75C22.6003 8.75 22.8493 8.85514 23.0596 9.06543C23.2699 9.27572 23.375 9.52474 23.375 9.8125C23.375 10.1003 23.2699 10.3493 23.0596 10.5596C22.8493 10.7699 22.6003 10.875 22.3125 10.875ZM14.875 15.125C14.2884 15.125 13.7406 15.0143 13.2314 14.793C12.7223 14.5716 12.2686 14.2673 11.8701 13.8799C11.4717 13.4925 11.1673 13.0443 10.957 12.5352C10.7467 12.026 10.6361 11.4727 10.625 10.875V8.75C10.625 8.16341 10.7357 7.61556 10.957 7.10645C11.1784 6.59733 11.4827 6.14355 11.8701 5.74512C12.2575 5.34668 12.7057 5.04232 13.2148 4.83203C13.724 4.62174 14.2773 4.51107 14.875 4.5C15.4616 4.5 16.0094 4.61068 16.5186 4.83203C17.0277 5.05339 17.4814 5.35775 17.8799 5.74512C18.2783 6.13249 18.5827 6.58073 18.793 7.08984C19.0033 7.59896 19.1139 8.15234 19.125 8.75V10.875C19.125 11.4616 19.0143 12.0094 18.793 12.5186C18.5716 13.0277 18.2673 13.4814 17.8799 13.8799C17.4925 14.2783 17.0443 14.5827 16.5352 14.793C16.026 15.0033 15.4727 15.1139 14.875 15.125ZM12.75 10.875C12.75 11.1738 12.8053 11.4505 12.916 11.7051C13.0267 11.9596 13.1761 12.181 13.3643 12.3691C13.5524 12.5573 13.7793 12.7122 14.0449 12.834C14.3105 12.9557 14.5872 13.0111 14.875 13C15.1738 13 15.4505 12.9447 15.7051 12.834C15.9596 12.7233 16.181 12.5739 16.3691 12.3857C16.5573 12.1976 16.7122 11.9707 16.834 11.7051C16.9557 11.4395 17.0111 11.1628 17 10.875V8.75C17 8.45117 16.9447 8.17448 16.834 7.91992C16.7233 7.66536 16.5739 7.44401 16.3857 7.25586C16.1976 7.06771 15.9707 6.91276 15.7051 6.79102C15.4395 6.66927 15.1628 6.61393 14.875 6.625C14.5762 6.625 14.2995 6.68034 14.0449 6.79102C13.7904 6.90169 13.569 7.05111 13.3809 7.23926C13.1927 7.42741 13.0378 7.6543 12.916 7.91992C12.7943 8.18555 12.7389 8.46224 12.75 8.75V10.875Z" fill="#F37413"/>
</svg>
